<svg width="68" height="45" viewBox="0 0 68 45" fill="none" xmlns="http://www.w3.org/2000/svg">
<g clip-path="url(#clip0_3394_3618)">
<path d="M4.68052 13.1444C4.88741 13.1249 5.14084 13.0951 5.41108 13.0821C5.68131 13.0679 5.96966 13.0743 6.24507 13.0821C6.52048 13.0886 6.78167 13.0964 6.9976 13.0341C7.21224 12.9732 7.3855 12.837 7.4411 12.5608C7.44886 12.2094 7.36999 11.8437 7.21353 11.5078C7.05708 11.172 6.82434 10.8659 6.5347 10.6195C6.24636 10.3732 5.90371 10.1838 5.53779 10.0684C5.17316 9.953 4.78396 9.90891 4.41416 9.93874C4.04436 9.96726 3.67844 10.0632 3.34614 10.2162C3.01383 10.3693 2.71515 10.5742 2.46172 10.8154C1.95356 11.2991 1.61609 11.9111 1.43118 12.5686C1.38722 12.9174 1.39886 13.2611 1.46092 13.5995C1.52428 13.938 1.64195 14.2687 1.81004 14.5682C2.14493 15.1673 2.68411 15.6471 3.33191 15.8961C3.981 16.1477 4.70509 16.1503 5.34772 15.8961C5.98776 15.6458 6.50626 15.144 6.75839 14.5436C6.86959 14.2207 6.89157 13.9523 6.87606 13.7461C6.86054 13.5412 6.81399 13.3985 6.75839 13.3065C6.6459 13.1223 6.52307 13.1314 6.39118 13.2157C6.25929 13.3 6.11189 13.4634 5.91276 13.5969C5.71881 13.7318 5.47702 13.833 5.23781 13.833C5.01541 13.8537 4.82663 13.8122 4.6844 13.7461C4.54217 13.6786 4.44907 13.5853 4.39348 13.4984C4.33658 13.4115 4.31848 13.3298 4.32236 13.2714C4.32624 13.2131 4.34563 13.1781 4.35727 13.1625L4.36632 13.1534L4.36374 13.156C4.36374 13.156 4.35856 13.1599 4.35598 13.1612C4.35339 13.1625 4.35081 13.1612 4.3702 13.1612C4.37408 13.1612 4.37796 13.1612 4.38184 13.1612C4.34434 13.1599 4.3521 13.1547 4.36115 13.1612C4.36891 13.1664 4.36761 13.169 4.36115 13.1573C4.35598 13.1496 4.36115 13.1431 4.36115 13.1846C4.36115 13.1431 4.36632 13.1496 4.36115 13.1573C4.35468 13.1677 4.35339 13.1651 4.36115 13.1599C4.36632 13.156 4.37667 13.1547 4.35856 13.1573C4.3521 13.1573 4.33788 13.1586 4.33658 13.1573C4.33529 13.1573 4.33529 13.1573 4.33658 13.1573C4.36115 13.1573 4.3883 13.1573 4.41675 13.1573C4.49821 13.1547 4.58743 13.1508 4.68182 13.1431L4.68052 13.1444Z" fill="#CC7D45"/>
<path d="M50.227 6.16958C50.2063 6.2033 50.1856 6.23831 50.1636 6.27462C50.1326 6.32908 50.099 6.38485 50.0654 6.4419C49.9981 6.55732 49.927 6.68051 49.8494 6.8063C49.6969 7.05657 49.5184 7.31334 49.3452 7.55583C49.1732 7.79833 49.0064 8.02786 48.9211 8.2548C48.8357 8.48043 48.8344 8.70867 49.0142 8.91356C49.2792 9.11975 49.6064 9.26369 49.9555 9.32723C50.3033 9.39207 50.6718 9.37651 51.0222 9.28314C51.3726 9.19107 51.7075 9.02249 51.9971 8.79555C52.2855 8.56862 52.5299 8.28332 52.7031 7.97469C52.879 7.66606 52.9966 7.3263 53.0548 6.98266C53.1117 6.63901 53.1091 6.29407 53.0561 5.96728C52.9488 5.31241 52.6579 4.72497 52.2544 4.22312C52.0062 4.00267 51.7347 3.8302 51.4386 3.69792C51.1425 3.56565 50.8257 3.48136 50.5037 3.45024C49.8624 3.38929 49.2055 3.5475 48.665 3.91449C48.122 4.28147 47.7328 4.84038 47.5854 5.4758C47.4367 6.10733 47.5518 6.77517 47.8866 7.28351C48.0819 7.53638 48.2836 7.6894 48.453 7.78018C48.6237 7.86965 48.7607 7.90207 48.8655 7.89948C49.0736 7.89429 49.1409 7.77888 49.1616 7.61938C49.1822 7.45987 49.1603 7.25109 49.1939 7.02805C49.2236 6.80759 49.3128 6.57936 49.477 6.41856C49.6141 6.26165 49.7731 6.17606 49.9141 6.14883C49.9503 6.14235 49.9852 6.13846 50.0162 6.13846C50.0499 6.13846 50.0822 6.14105 50.1093 6.14624C50.1404 6.15272 50.1675 6.1605 50.1921 6.16958L50.2115 6.17736L50.2205 6.18125H50.2244C50.2244 6.18125 50.236 6.19033 50.2348 6.19033C50.2322 6.18903 50.2257 6.18384 50.2231 6.18125C50.2192 6.17736 50.2167 6.17477 50.2167 6.17606C50.2167 6.17606 50.2218 6.18644 50.2205 6.18644C50.2205 6.18773 50.2205 6.17995 50.2205 6.17736C50.2205 6.17477 50.2218 6.17477 50.2154 6.18644C50.2154 6.18903 50.205 6.202 50.2102 6.19422C50.227 6.17217 50.2257 6.17866 50.2179 6.18125C50.2115 6.18384 50.2102 6.18125 50.2205 6.18255C50.227 6.18255 50.2296 6.18773 50.2037 6.17088C50.2283 6.18773 50.2231 6.18903 50.2205 6.18255C50.2167 6.17477 50.2192 6.17477 50.2192 6.18255C50.2192 6.18773 50.2154 6.19422 50.2218 6.18255C50.2296 6.16958 50.2348 6.16439 50.227 6.17347V6.16958Z" fill="#CC7D45"/>
<path d="M19.2461 7.58421C19.0845 7.44805 18.941 7.23927 18.7897 7.01752C18.6397 6.79447 18.4781 6.55976 18.3126 6.3432C18.2957 6.32115 18.2802 6.3004 18.2647 6.27965C18.2647 6.27965 18.2673 6.28484 18.2686 6.28744C18.2699 6.29003 18.2699 6.29003 18.2725 6.29392C18.2751 6.3004 18.2712 6.28225 18.2725 6.28614C18.2763 6.28873 18.257 6.30818 18.2841 6.28095C18.2867 6.28095 18.2712 6.29133 18.2712 6.29003C18.2686 6.29133 18.2673 6.29262 18.2673 6.29262C18.2673 6.29262 18.2738 6.29133 18.2763 6.29133C18.2828 6.29392 18.2634 6.28614 18.2686 6.28873C18.2712 6.29003 18.2725 6.29262 18.2738 6.29262C18.2763 6.29392 18.2802 6.29911 18.2815 6.3017C18.2854 6.30818 18.2712 6.28873 18.2725 6.29003C18.2686 6.28225 18.2699 6.28484 18.2712 6.29003C18.2712 6.29392 18.2712 6.29781 18.2712 6.29651C18.2712 6.29522 18.2725 6.28873 18.2738 6.28744C18.2738 6.28614 18.2738 6.28744 18.2582 6.3017C18.2699 6.29133 18.2776 6.28873 18.2751 6.29003C18.2686 6.29262 18.2595 6.29003 18.2712 6.29262C18.2802 6.29651 18.2738 6.29262 18.2647 6.28484C18.2582 6.27706 18.2595 6.27836 18.2621 6.28095C18.2699 6.28873 18.2776 6.29781 18.2867 6.30689C18.31 6.33023 18.3358 6.35487 18.3617 6.37562C18.4147 6.41841 18.4781 6.45731 18.5505 6.48455C18.6953 6.54031 18.8841 6.54809 19.0909 6.47936C19.2746 6.40285 19.431 6.25242 19.5241 6.05661C19.6172 5.86209 19.6444 5.62219 19.5939 5.38877C19.5461 5.15535 19.4207 4.92452 19.2293 4.74168C19.0392 4.55754 18.7858 4.42527 18.5091 4.3708C18.2725 4.22297 17.9518 4.22037 17.7178 4.27484C17.5859 4.1296 17.4592 4.19185 17.3506 4.27225C17.2381 4.35265 17.145 4.44731 16.9614 4.39674C16.8734 4.38377 16.7803 4.46417 16.7803 4.59514C16.4713 4.80263 16.1377 5.07754 15.9127 5.46139C15.7989 5.65072 15.7162 5.86339 15.6748 6.08773C15.6347 6.31207 15.6412 6.54679 15.7007 6.76984C15.7808 6.96565 15.786 7.1848 15.8455 7.41044C15.8998 7.63349 16.0162 7.85913 16.2463 7.97324C16.4429 8.09514 16.598 8.23908 16.7635 8.39081C16.9251 8.54383 17.0958 8.70592 17.2937 8.85246C17.4915 8.9964 17.7178 9.11959 17.9647 9.18184C18.2104 9.24279 18.4768 9.24408 18.7199 9.14553C18.9035 9.12348 19.1181 9.08717 19.3172 9.01066C19.5151 8.93545 19.6922 8.82134 19.7918 8.67869C19.8926 8.53734 19.912 8.37265 19.8241 8.20018C19.7375 8.02382 19.5357 7.84097 19.2461 7.58551V7.58421Z" fill="#CC7D45"/>
<path d="M31.9535 1.89116C32.119 2.00787 32.26 2.1998 32.4087 2.40598C32.5548 2.61347 32.71 2.83392 32.869 3.03362C32.9479 3.13477 33.028 3.23073 33.103 3.3228C33.1173 3.34096 33.1315 3.35782 33.1457 3.37468V3.37338L33.1392 3.3643C33.1392 3.3643 33.1366 3.36171 33.1341 3.35652C33.1302 3.34744 33.1366 3.37338 33.1341 3.36819C33.1341 3.36689 33.1366 3.35911 33.1379 3.35522C33.1379 3.35263 33.1405 3.35522 33.1185 3.37468C33.1147 3.37597 33.1366 3.36041 33.1354 3.36171L33.1405 3.35911C33.1405 3.35911 33.1315 3.36171 33.1276 3.36171C33.1237 3.36171 33.1276 3.36171 33.1328 3.36171C33.1379 3.36171 33.1431 3.36689 33.1392 3.363C33.1354 3.36041 33.1341 3.35782 33.1328 3.35782C33.1302 3.35522 33.1237 3.34874 33.1211 3.34615C33.116 3.33837 33.1354 3.3643 33.1341 3.36171C33.1405 3.37208 33.1379 3.36819 33.1366 3.363C33.1366 3.35782 33.1366 3.35133 33.1366 3.35393C33.1366 3.35522 33.1341 3.3643 33.1328 3.36689C33.1328 3.36949 33.1328 3.3656 33.1535 3.34615C33.1366 3.36171 33.1263 3.3656 33.1302 3.3643C33.1315 3.3643 33.1405 3.36171 33.1431 3.36171C33.1457 3.36171 33.1431 3.36171 33.1366 3.36041C33.1237 3.35522 33.1341 3.35911 33.1457 3.37078L33.1496 3.37468C33.1392 3.363 33.1302 3.35263 33.1211 3.34355C33.0991 3.31891 33.081 3.29817 33.0642 3.27871C33.0267 3.23462 32.988 3.19183 32.9414 3.15293C32.8509 3.07382 32.7281 3.00769 32.5677 2.99472C32.4087 2.98046 32.2109 3.02455 32.0078 3.14126C31.8268 3.26704 31.6846 3.46415 31.6148 3.69887C31.5437 3.93359 31.5462 4.20461 31.629 4.46397C31.7105 4.72203 31.8734 4.96971 32.1035 5.16293C32.3324 5.35485 32.6246 5.48972 32.9401 5.5364C33.0772 5.60383 33.2349 5.63625 33.3901 5.64014C33.5452 5.64403 33.6965 5.62069 33.8271 5.58698C33.8995 5.65311 33.9693 5.66478 34.0353 5.65311C34.1025 5.64144 34.1659 5.60254 34.2254 5.55715C34.3495 5.46897 34.4529 5.36393 34.6417 5.39505C34.7322 5.39765 34.8331 5.30817 34.8383 5.1759C35.1667 4.92951 35.508 4.60791 35.7253 4.17997C35.8365 3.9686 35.9127 3.73388 35.9464 3.49009C35.9787 3.24629 35.9632 2.99342 35.8934 2.75482C35.8054 2.54474 35.7847 2.31002 35.7084 2.07271C35.6373 1.8354 35.5029 1.60198 35.2624 1.47749C35.0529 1.34652 34.8796 1.19479 34.6934 1.04048C34.5111 0.883569 34.3172 0.722769 34.0974 0.58142C33.8775 0.441368 33.6306 0.325955 33.3642 0.272787C33.0992 0.222213 32.8173 0.228697 32.56 0.335033C32.3647 0.364858 32.1372 0.414136 31.929 0.502317C31.7208 0.589201 31.5359 0.714988 31.4286 0.864117C31.3213 1.01195 31.2967 1.17794 31.3794 1.34133C31.4622 1.50861 31.66 1.67201 31.9535 1.89376V1.89116Z" fill="#CC7D45"/>
<path d="M66.0374 13.7039C65.8486 13.7299 65.6301 13.6832 65.3987 13.63C65.1672 13.5755 64.9228 13.5146 64.6862 13.4705C64.5685 13.4485 64.4522 13.429 64.3423 13.4121C64.288 13.4031 64.2337 13.3953 64.1819 13.3875C64.1612 13.3849 64.1418 13.381 64.1224 13.3784C64.1224 13.3784 64.1302 13.3797 64.1341 13.381C64.138 13.381 64.138 13.381 64.1444 13.3836C64.1535 13.3888 64.1302 13.3719 64.1354 13.3758C64.1367 13.3771 64.1406 13.3849 64.1418 13.3888C64.1418 13.3901 64.1406 13.3914 64.1418 13.359C64.1431 13.3551 64.138 13.3836 64.138 13.3823V13.3875H64.1367C64.1367 13.3875 64.1418 13.3797 64.1457 13.3771C64.1483 13.3745 64.1457 13.3771 64.1406 13.3797C64.1354 13.3823 64.1289 13.3836 64.1341 13.3823C64.1393 13.3823 64.1418 13.3823 64.1431 13.3823C64.147 13.3823 64.1574 13.3823 64.1612 13.3823C64.1716 13.3849 64.1367 13.3784 64.1406 13.3784C64.1276 13.3745 64.1328 13.3758 64.138 13.3784C64.1431 13.3823 64.147 13.3875 64.1444 13.3849C64.1431 13.3836 64.1393 13.3745 64.138 13.3719C64.138 13.3694 64.1393 13.3719 64.1367 13.4044C64.1393 13.381 64.1444 13.3694 64.1431 13.3732C64.1431 13.3758 64.1367 13.3823 64.1341 13.3836C64.1328 13.3849 64.1341 13.3836 64.1406 13.3797C64.1444 13.3771 64.1509 13.3771 64.1457 13.3771C64.1457 13.3771 64.1457 13.3771 64.1418 13.3771C64.1483 13.3771 64.1561 13.3771 64.1612 13.3771C64.1897 13.3771 64.2143 13.3797 64.2401 13.3836C64.3448 13.3992 64.4509 13.4264 64.5634 13.4186C64.6759 13.4108 64.8065 13.3668 64.9228 13.2578C65.0405 13.1502 65.1465 12.9764 65.2047 12.7495C65.2422 12.5303 65.2047 12.2865 65.0922 12.0648C64.9797 11.843 64.7896 11.6446 64.5491 11.5098C64.3099 11.3749 64.0203 11.301 63.7177 11.314C63.4152 11.3256 63.1061 11.4242 62.8372 11.6005C62.5424 11.6874 62.2864 11.9364 62.1403 12.1634C62.0472 12.1634 61.989 12.2036 61.9476 12.2567C61.9062 12.3112 61.883 12.3812 61.8687 12.4551C61.8325 12.603 61.8222 12.7508 61.6683 12.8558C61.6024 12.9155 61.5856 13.0478 61.6631 13.1502C61.583 13.5548 61.5468 14.0203 61.6696 14.482C61.7278 14.7128 61.8274 14.9359 61.9631 15.1395C62.1002 15.3417 62.2773 15.5194 62.4868 15.6517C62.6898 15.7515 62.8605 15.911 63.0738 16.0342C63.282 16.1613 63.5354 16.2443 63.7966 16.1847C64.0384 16.147 64.2673 16.147 64.5078 16.138C64.747 16.1328 64.9952 16.1211 65.2512 16.0796C65.5047 16.0355 65.762 15.9551 65.9934 15.819C66.2223 15.6815 66.4266 15.4909 66.5494 15.2445C66.6749 15.0941 66.8093 14.9073 66.9063 14.7063C67.0033 14.5053 67.0589 14.2901 67.0447 14.1111C67.0304 13.9322 66.9464 13.7934 66.7861 13.7273C66.6257 13.6585 66.3839 13.6689 66.0387 13.7026L66.0374 13.7039Z" fill="#CC7D45"/>
<path d="M3.83873 24.7934C4.12578 24.8816 4.04173 24.9879 3.83226 25.1059C3.6228 25.2239 3.27627 25.3614 3.05387 25.495C2.56382 25.7478 2.47201 25.9333 2.43322 26.098C2.39573 26.2666 2.42288 26.4274 2.19014 26.6893C2.03368 26.8216 1.76862 26.9111 1.7169 27.0978C1.68328 27.2197 1.52553 27.3947 1.35097 27.4401C0.877731 27.5646 1.19193 27.6282 1.10272 27.7164C0.906178 27.9031 0.713519 28.0924 0.501465 28.274C0.721277 28.532 0.871266 28.7745 0.841527 28.9872C0.916522 29.3062 1.46088 29.3192 1.46476 29.432C1.35097 29.6408 1.92895 29.7406 2.07118 29.8872C2.35952 30.1815 2.53408 30.4007 2.65174 30.5706C2.70993 30.6548 2.75518 30.7262 2.79139 30.7884C2.83018 30.8494 2.8638 30.8986 2.89095 30.9414C3.00732 31.11 3.09654 31.1658 3.56849 31.2488C3.82968 31.4018 3.74175 31.4212 3.59435 31.4199C3.44695 31.4199 3.23489 31.394 3.26334 31.4705C3.90726 31.9348 4.58092 32.5118 5.22613 33.0785L5.20932 33.0733C5.48603 33.1187 5.63084 33.3392 5.80799 33.5791C5.89462 33.6932 5.98901 33.8073 6.10409 33.902C6.16098 33.9487 6.22434 33.9889 6.29287 34.0213C6.31226 34.0304 6.32519 34.0342 6.33683 34.0368C6.34976 34.0394 6.36269 34.042 6.37691 34.0433C6.40536 34.0459 6.4351 34.0459 6.46613 34.0433C6.59931 34.0498 6.72344 34.2158 6.81653 34.3571C7.0273 34.7384 7.44494 34.575 7.7475 34.8797C8.05653 35.0781 8.24531 35.4646 8.66296 35.4996C8.85949 35.5956 8.86467 36.0183 9.15689 36.043C9.29265 36.0819 9.40902 36.1363 9.51376 36.2038C9.61978 36.2699 9.71288 36.3555 9.79434 36.467C10.2947 36.8132 10.9425 36.9624 11.3757 37.4253C11.6705 37.8325 12.5433 37.6963 12.6286 38.1813C12.5963 38.2734 12.5239 38.3525 12.7528 38.2929C12.9777 38.2397 13.1885 38.3733 13.4083 38.5029C13.6307 38.6248 13.8596 38.7493 14.0975 38.6923C14.1893 38.6715 14.2863 38.748 14.3807 38.7895C14.6108 38.927 14.841 39.058 15.0685 39.1824C15.1836 39.2434 15.2974 39.3043 15.4099 39.3653C15.5263 39.4185 15.6426 39.4716 15.7577 39.5248C16.2206 39.7323 16.6796 39.9242 17.1386 40.1135C17.2537 40.1602 17.3675 40.2095 17.4839 40.2549L17.8343 40.382C18.0683 40.4688 18.3024 40.5557 18.539 40.6439C19.0122 40.8203 19.4842 41.0265 19.9846 41.2119C20.4488 41.3545 20.9867 41.4648 21.2401 41.8279C21.3034 41.9329 21.3487 41.8434 21.3836 41.8006C21.4004 41.6982 21.4767 41.7267 21.5711 41.7682C21.6655 41.8071 21.7793 41.8577 21.8659 41.8097C22.2978 41.9355 22.7296 42.0613 23.1628 42.1871C23.38 42.2467 23.5947 42.3155 23.8145 42.3673L24.4739 42.5216C24.9148 42.6241 25.3557 42.7252 25.7967 42.8277C26.2427 42.9107 26.6888 42.9924 27.1349 43.0754C28.0258 43.2595 28.9322 43.3607 29.8373 43.5033L30.1774 43.5539L30.5187 43.5915L31.204 43.6693L31.8906 43.751C32.1195 43.7782 32.3496 43.8119 32.5798 43.8275C33.1319 43.7315 33.6931 43.7808 34.2581 43.8405C34.54 43.8768 34.8245 43.8884 35.1063 43.8962C35.3882 43.9027 35.6688 43.8936 35.9442 43.8547C36.2183 43.8132 36.5532 43.7678 36.764 43.9559C36.8997 44.0739 37.1273 43.8262 37.2191 44.0389C37.2398 44.0856 37.3484 43.9494 37.4338 43.9209C37.7131 43.8794 38.0143 43.8431 38.3156 43.8236C38.6156 43.8029 38.9156 43.8067 39.1884 43.8132C39.4043 43.9131 39.3862 43.6485 39.5646 43.7082C40.365 43.8884 41.1305 43.6148 41.8856 43.3542C42.1933 43.3399 42.5037 43.3542 42.8088 43.3399C42.9614 43.3334 43.1114 43.3192 43.2601 43.2919C43.4075 43.2608 43.551 43.2115 43.6894 43.1441C43.9376 43.0987 44.2234 42.9029 44.4432 42.9937C44.7613 43.1233 44.9811 42.8381 45.2461 42.8821C45.4996 42.9055 45.6573 43.1324 45.9392 42.9535C46.3568 42.698 46.9141 42.7615 47.346 42.4866C47.4779 42.5074 47.6098 42.5048 47.7365 42.475C47.8632 42.4451 47.9899 42.3972 48.1153 42.344C48.3675 42.2364 48.6222 42.1041 48.8989 42.0392C49.3036 41.8694 49.7549 41.8084 50.1777 41.6865C50.6031 41.5724 51.0156 41.4401 51.3479 41.1847C51.4888 40.9966 51.5728 41.0615 51.6582 41.1315C51.7539 41.1886 51.8431 41.1873 51.931 41.1561C52.0176 41.1237 52.1017 41.055 52.1896 40.985C52.3655 40.8449 52.5542 40.688 52.8077 40.7308C53.202 40.6867 53.5033 40.3042 53.9507 40.2393C54.4343 39.9903 54.9295 39.6908 55.3782 39.3821C55.6316 39.3783 55.8876 39.2499 56.1385 39.0826C56.388 38.9127 56.6389 38.7195 56.9052 38.6145C57.1561 38.4588 57.4108 38.311 57.6694 38.171C57.7974 38.0996 57.9293 38.0348 58.0573 37.9622L58.44 37.7469C58.9534 37.4642 59.477 37.1997 60.002 36.9364C61.0209 36.362 62.0734 35.8173 62.9901 35.0756C63.1854 34.929 63.3858 34.7864 63.5901 34.6437C63.7944 34.5024 64.0052 34.3636 64.2056 34.2106C64.6116 33.9111 65.0241 33.6115 65.4275 33.3029L65.7274 33.0681C65.827 32.9903 65.9253 32.9099 66.0171 32.8231C66.2033 32.6532 66.3856 32.4807 66.5589 32.303C66.908 31.9477 67.2286 31.5756 67.5002 31.1787C67.4743 30.9583 66.9933 31.1761 66.449 31.5068C66.1761 31.6728 65.8878 31.866 65.6292 32.0515C65.5012 32.1448 65.3796 32.2343 65.2697 32.316C65.1572 32.3938 65.0603 32.4664 64.9814 32.5261C64.5327 32.6687 64.0983 32.8127 63.6754 32.9981C63.4634 33.0902 63.2578 33.1952 63.0496 33.3119C62.8376 33.4222 62.6281 33.548 62.4199 33.6958C61.9428 33.8631 61.4605 34.0252 60.9924 34.2015C60.5127 34.3636 60.0382 34.5335 59.5921 34.7436C59.4434 34.8266 59.2934 34.8979 59.1421 34.9666C58.9909 35.0341 58.8435 35.1041 58.6922 35.1663C58.3909 35.2986 58.1064 35.4542 57.8595 35.7097C57.5427 35.6967 57.4224 35.9898 57.1664 36.0857C57.0475 36.0715 56.9505 36.1026 56.8574 36.1493C56.7643 36.196 56.6777 36.266 56.5859 36.3373C56.4682 36.4307 56.2949 36.5707 56.1695 36.5098C55.8036 36.5331 55.426 36.6628 55.0446 36.8067C54.8558 36.882 54.658 36.9455 54.4627 37.0052C54.2675 37.0648 54.0735 37.1154 53.8822 37.1478C53.6106 37.3553 53.2822 37.4383 52.9512 37.5226C52.6189 37.6069 52.2737 37.6665 51.9737 37.8701C51.578 38.0335 51.1772 38.0944 50.7828 38.1619C50.382 38.2138 49.985 38.2682 49.5997 38.442C49.4161 38.5989 49.2144 38.6287 49.0075 38.6365C48.9041 38.6404 48.7993 38.6391 48.6933 38.6456C48.586 38.6482 48.4787 38.6585 48.3714 38.691C48.0468 38.7402 47.7197 38.8595 47.3912 38.9516C47.227 38.997 47.0641 39.0359 46.9012 39.0554C46.8197 39.0644 46.7396 39.0696 46.6594 39.067C46.5779 39.0618 46.4978 39.0489 46.4176 39.0281C46.1034 39.4768 45.4142 39.1539 44.9306 39.2006C44.5402 39.2278 44.1988 39.4742 43.8018 39.4262C43.6325 39.7102 43.4954 39.5157 43.3661 39.4353C43.251 39.3679 42.9523 39.4651 42.6368 39.5481C42.3201 39.6221 41.9826 39.6713 41.8041 39.5391C41.6154 39.4146 41.3606 39.6324 41.1305 39.6402C40.9443 39.6324 40.7904 39.4418 40.5797 39.5183C40.2874 39.7232 39.8814 39.5131 39.619 39.6674C39.4095 39.8814 39.0526 39.6895 38.7901 39.7893C38.582 39.6389 38.3104 39.5559 38.026 39.5287C37.7415 39.5028 37.4415 39.5326 37.1777 39.5948C36.5067 39.8166 35.9429 39.3588 35.3016 39.5754C35.0637 39.5676 34.8464 39.5248 34.624 39.495C34.4004 39.4638 34.1715 39.4275 33.9077 39.46C33.7099 39.495 33.5806 39.1928 33.3478 39.2188C33.119 39.3056 32.9043 39.2784 32.6936 39.2278C32.4815 39.1799 32.2759 39.0852 32.0574 39.0709C31.8997 39.058 31.7872 39.0709 31.6618 39.1176C31.6217 39.1332 31.623 39.2719 31.5428 39.1578C31.429 38.9944 31.248 38.997 31.1148 39.0528C30.9364 39.032 30.7373 39.0255 30.5291 39.0074C30.3222 38.9853 30.1063 38.9633 29.8929 38.9348C29.4662 38.879 29.0499 38.7986 28.7408 38.6456C28.5327 38.5159 28.3271 38.6715 28.1344 38.5094C27.7129 38.3058 27.2422 38.2864 26.7703 38.263C26.3035 38.2215 25.8367 38.171 25.445 37.9427C25.2148 38.0983 25.0092 37.8714 24.7997 37.874C24.4894 37.8623 24.6071 37.7586 24.6847 37.66C24.7286 37.6043 24.739 37.5135 24.6601 37.5485C24.4713 37.6328 24.3718 37.4331 24.214 37.4525C23.8584 37.2853 23.5559 37.2165 23.1421 37.306C22.8757 37.2425 22.6301 37.0882 22.3741 36.965C22.1193 36.8379 21.8568 36.7251 21.5659 36.6978C21.2815 36.6434 21.434 36.6019 21.4935 36.5202C21.5375 36.301 21.019 36.6096 20.9259 36.3697C20.7707 36.161 20.5535 36.3114 20.3841 36.1882C20.1449 35.9457 19.8048 35.886 19.47 35.8277C19.3019 35.8018 19.1389 35.7667 18.9928 35.7084C18.8467 35.6513 18.7187 35.5748 18.6217 35.4555C18.5894 35.3842 18.3916 35.2506 18.1136 35.0963C17.9752 35.0185 17.8149 34.9355 17.6468 34.8525C17.4761 34.7721 17.3054 34.671 17.1309 34.5854C16.4353 34.2326 15.7409 33.9577 15.7008 34.1133C15.6232 34.151 15.5495 34.0939 15.5896 34.02C15.7862 33.6089 15.1009 33.7554 14.9509 33.5207C14.7595 33.2601 14.4492 33.4079 14.241 33.2315C14.2255 33.2186 14.1634 33.2264 14.1479 33.2445C14.0018 33.4092 13.8893 33.4831 13.8699 33.1498C13.2661 32.9073 13.3734 32.7025 12.9247 32.4509C12.745 32.4159 12.5084 32.4224 12.4528 32.268C12.3894 31.9944 12.158 32.0502 12.0377 31.9179C12.0261 31.796 12.0765 31.6132 11.8347 31.7493C11.5464 31.5315 11.1636 31.3823 10.7744 31.2125C10.3801 31.0517 10.009 30.8286 9.72064 30.5213C9.59004 30.5291 9.49436 30.4798 9.41678 30.4059C9.37799 30.3683 9.34437 30.3255 9.31463 30.2788L9.29265 30.2438L9.28231 30.2165L9.26291 30.1621C9.23835 30.0907 9.21636 30.0246 9.17757 29.9909C9.14008 29.9585 9.08318 29.9572 8.97845 30.0078C8.77674 30.0674 8.88665 30.1322 8.93449 30.1932C9.0625 30.0972 9.22671 30.1374 9.12456 30.2969C9.04181 30.201 8.91639 30.2178 8.8207 30.2165C8.72502 30.2165 8.66037 30.1906 8.73536 30.0415C8.71338 29.8003 8.60736 29.5591 8.32936 29.4501C8.07593 29.3866 7.98154 29.2401 7.91689 29.1026C7.84836 28.9613 7.79922 28.8407 7.51476 28.7473C7.31693 28.685 7.24323 28.6085 7.22125 28.5372C7.19797 28.4659 7.22513 28.3985 7.20315 28.3349C7.11781 28.3155 7.06221 28.296 7.0273 28.2779C7.04152 28.2182 7.25357 28.1702 7.379 28.1222C7.6182 28.0691 7.64406 28.0159 7.66475 27.9524C7.68285 27.8901 7.69578 27.8175 7.86517 27.7643C8.27376 27.6528 8.2479 27.6632 8.35393 27.4401C8.41211 27.3857 8.60865 27.3727 8.74183 27.3533C8.8763 27.3312 8.94871 27.3014 8.81295 27.1639C8.75217 27.1095 8.76898 27.02 8.86208 27.0226C8.98621 27.0278 9.03922 26.9668 9.10646 26.9175C9.1724 26.8696 9.24998 26.8307 9.3948 26.9098C9.42971 26.8229 9.50858 26.7477 9.59651 26.6906C9.75038 26.583 9.91718 26.4909 10.0866 26.4027C10.2559 26.3145 10.4279 26.2302 10.5921 26.1382C10.6749 26.0928 10.7538 26.0422 10.8352 25.9929C10.9167 25.945 10.9943 25.8931 11.0693 25.836C11.311 25.7245 11.7222 25.3938 12.1153 25.0982C12.2136 25.0242 12.3105 24.9529 12.4036 24.8881C12.4967 24.8232 12.5911 24.7727 12.6739 24.7273C12.842 24.6391 12.979 24.5911 13.0605 24.6132C13.3669 24.7869 13.4807 24.2604 13.7148 24.206C14.0846 24.3175 14.3483 24.0945 14.625 23.9077C14.8966 23.7158 15.1642 23.5342 15.5017 23.7145C15.6219 23.7767 15.6956 23.7106 15.7616 23.6276C15.8586 23.4487 15.9982 23.4292 16.1417 23.4292C16.2866 23.4331 16.4378 23.4603 16.5555 23.3631C16.7223 23.1724 16.9486 23.1387 17.1645 23.118C17.3895 23.1595 17.5615 23.0168 17.7205 22.8781C17.7994 22.8094 17.8757 22.7406 17.952 22.6978C18.0295 22.6576 18.1084 22.646 18.1912 22.681C18.6592 22.5889 19.4299 22.4618 19.8928 22.1363C20.0893 22.1519 20.2652 21.9807 20.4746 22.0131C20.5949 22.0378 20.7087 21.781 20.8535 21.9574C20.9711 21.7719 21.3202 21.8575 21.3655 21.5735C21.3784 21.4905 21.5077 21.4425 21.5789 21.4451C21.8698 21.4724 22.1426 21.2753 22.4322 21.3466C22.5163 21.3673 22.6378 21.3453 22.6559 21.261C22.7064 21.0289 22.8408 21.0574 23.0374 21.0717C23.1977 21.1015 23.3425 21.0859 23.4848 21.0535C23.627 21.0237 23.764 20.9692 23.8998 20.907C24.1726 20.7812 24.4442 20.6204 24.7519 20.5543C24.9226 20.5646 25.0881 20.5283 25.2497 20.4829C25.4139 20.4453 25.5743 20.396 25.7307 20.3714C26.3643 20.5218 27.0793 20.0239 27.7633 20.0213C27.9831 20.0485 28.2042 20.033 28.4292 19.9953C28.5417 19.9759 28.6542 19.9513 28.768 19.9227C28.8249 19.9072 28.8818 19.8929 28.9387 19.8773L29.1119 19.8384C29.5735 19.7308 30.0455 19.6037 30.5058 19.6076H30.7722L31.0398 19.6167C31.2183 19.6219 31.3967 19.6258 31.5738 19.6271C31.9294 19.6297 32.285 19.6258 32.6393 19.6154C32.9949 19.6219 33.3504 19.6258 33.7047 19.6245L34.2374 19.6206L34.5038 19.618L34.7702 19.6271C35.1244 19.64 35.4787 19.653 35.8317 19.6647L36.3606 19.6854C36.5364 19.6997 36.7123 19.7178 36.8868 19.736C37.2372 19.771 37.5863 19.8099 37.9342 19.854L38.1941 19.8877C38.2807 19.9007 38.366 19.9188 38.4514 19.9357C38.6233 19.9694 38.794 20.0057 38.9634 20.042C39.328 20.0628 39.7172 20.1315 40.1 20.2002C40.4801 20.2845 40.8564 20.361 41.2055 20.3714C41.4874 20.3546 41.7718 20.3714 42.0511 20.4362C42.3304 20.5011 42.6084 20.5867 42.8877 20.6684C43.167 20.7501 43.4463 20.8253 43.7281 20.8733C44.0074 20.9342 44.2906 20.9653 44.5815 20.9407C44.8401 21.0509 45.1 21.1534 45.3612 21.2519C45.4931 21.2986 45.6211 21.3518 45.7504 21.4062L46.1383 21.5631C46.3982 21.6656 46.6581 21.7629 46.9193 21.8588C47.0499 21.9068 47.1818 21.9509 47.3111 22.0015L47.6977 22.161C47.9563 22.2647 48.2149 22.3684 48.4735 22.4735C48.7321 22.5798 48.9959 22.6719 49.2467 22.7977C49.7536 23.035 50.263 23.271 50.7621 23.5317C51.2858 23.7132 51.7474 24.0024 52.2116 24.2864L52.3862 24.394L52.5568 24.5094C52.6706 24.5846 52.787 24.6598 52.9059 24.7299C53.1426 24.8712 53.3908 24.9983 53.6611 25.0995C53.8123 25.1487 53.9675 25.1993 54.1175 25.2654C54.2675 25.3329 54.4175 25.4068 54.5662 25.4846C54.8661 25.6402 55.1635 25.814 55.4545 25.9981C55.7493 26.1745 56.0131 26.3949 56.2704 26.6037C56.5251 26.8151 56.7656 27.0291 56.9841 27.2365C57.094 27.2897 57.2104 27.3429 57.319 27.4129C57.4289 27.4829 57.5401 27.5581 57.6539 27.6372C57.8802 27.7955 58.1103 27.9705 58.3443 28.1495C58.8215 28.497 59.2714 28.9146 59.7434 29.244C59.9774 29.4112 60.2166 29.5578 60.4558 29.6797C60.6873 29.8106 60.9213 29.9131 61.1592 29.9753C61.6351 30.0998 62.1277 30.0661 62.6346 29.7808C63.0871 29.253 63.6354 28.8497 64.1797 28.4542C64.7228 28.0574 65.262 27.6671 65.6744 27.1419C65.8593 26.9785 65.9098 26.6724 66.2447 26.6647C66.3752 26.5324 66.383 26.2756 66.586 26.19C66.6468 26.1317 66.6675 26.0526 66.5692 25.9631C66.2964 25.7141 66.1632 25.2914 65.7339 25.2239C65.527 25.0657 65.3163 24.9049 65.1029 24.7415C64.9982 24.6573 64.8883 24.5782 64.7771 24.5003C64.6659 24.4212 64.5547 24.3408 64.4435 24.2604C63.9974 23.9375 63.5487 23.6017 63.1013 23.258C62.1691 22.6161 61.2666 21.9081 60.3459 21.2714C60.1804 21.1106 60.011 20.9537 59.8378 20.8019C59.6632 20.6515 59.4913 20.4972 59.3025 20.3649C58.9314 20.0926 58.5486 19.8345 58.1607 19.583C57.9655 19.4585 57.7715 19.3314 57.5737 19.2121C57.3707 19.0993 57.1677 18.9865 56.9647 18.8736C56.5574 18.648 56.1501 18.4211 55.7402 18.1941C55.1558 17.7636 54.4705 17.4809 53.7865 17.2125C53.0921 16.9635 52.3849 16.7586 51.7461 16.4422L51.5728 16.3605L51.3957 16.2879L51.0388 16.1452C50.7996 16.0506 50.5591 15.9585 50.3186 15.869C50.0768 15.7795 49.8337 15.69 49.5907 15.6006C49.3463 15.5163 49.0967 15.4437 48.8485 15.3659C48.3532 15.2102 47.8567 15.0533 47.3615 14.8964C46.8611 14.7564 46.362 14.6098 45.8681 14.4477C45.7039 14.3946 45.5397 14.3401 45.3754 14.2869C45.2099 14.2377 45.0406 14.1962 44.8725 14.1521C44.535 14.0652 44.1949 13.9809 43.8536 13.8992C43.1734 13.7215 42.4739 13.6178 41.7835 13.4907C41.0943 13.3546 40.3986 13.278 39.7172 13.1795C39.5465 13.1549 39.3772 13.1302 39.2078 13.1056C39.0384 13.0809 38.8703 13.0524 38.7022 13.0368C38.366 12.9992 38.0337 12.959 37.7053 12.9137C37.3782 13.0226 37.0989 13.0887 36.7485 12.9539C36.1433 12.8683 35.5822 12.9149 35.0107 12.9629L34.5154 12.9487L34.0189 12.9616C33.6879 12.9733 33.3569 12.9863 33.0259 12.9979C32.3626 13.0135 31.7031 13.0926 31.045 13.1523C30.7166 13.186 30.3881 13.2093 30.061 13.2482C29.7352 13.291 29.4106 13.3325 29.0874 13.3753C28.7641 13.4155 28.4409 13.4531 28.1202 13.4868C27.7995 13.5296 27.4815 13.5724 27.166 13.6152C27.0845 13.5828 27.0056 13.5893 26.9604 13.6606C26.7328 14.0665 26.3514 13.6476 26.0216 13.8655C25.7074 14.0561 25.3609 14.1002 25.0118 14.13C24.6627 14.1624 24.311 14.1936 24.0058 14.3855C23.9645 14.4231 23.8882 14.4477 23.8015 14.4607C23.7149 14.4737 23.6205 14.4802 23.5391 14.4698C22.6055 14.7408 21.637 15.0066 20.6815 15.3646C20.441 15.4488 20.2005 15.5344 19.9587 15.62L19.5967 15.7484L19.2398 15.8923C18.7627 16.083 18.2856 16.2749 17.8097 16.4655C17.5692 16.555 17.3378 16.6639 17.1037 16.7677C16.8697 16.8701 16.637 16.9726 16.4042 17.075C16.1715 17.1749 15.9387 17.2747 15.7073 17.3746L15.534 17.4485L15.3646 17.5289C15.2509 17.582 15.1384 17.6352 15.0259 17.6884C14.5746 17.8985 14.1259 18.1021 13.6798 18.294C13.5673 18.3407 13.4587 18.3912 13.3501 18.4444C13.2415 18.4963 13.1342 18.5468 13.0256 18.5974C12.8096 18.6986 12.595 18.7971 12.3817 18.8918C12.3467 19.0733 12.0377 18.9709 12.083 19.168C12.0998 19.2419 12.03 19.3132 11.9485 19.3184C11.8089 19.382 11.6615 19.4338 11.5179 19.4974C11.3757 19.5609 11.2335 19.6245 11.0951 19.6971C10.8184 19.8397 10.5598 20.0122 10.3594 20.2625C10.3103 20.3558 10.1331 20.4311 9.99088 20.4518C9.89002 20.4661 9.76072 20.4933 9.72064 20.5672C9.44911 20.9939 8.90992 20.8862 8.62029 21.3155C8.47676 21.5891 8.28281 21.6215 8.06558 21.6267C7.85094 21.6332 7.60786 21.6033 7.39839 21.7758C7.07384 21.9677 7.55097 22.0222 7.29754 22.2012C7.14237 22.288 6.98592 22.3944 6.82688 22.5072C6.64715 22.6382 6.46354 22.773 6.28381 22.9053C6.16486 22.9909 6.0459 23.0765 5.93082 23.1595C5.81316 23.2477 5.69549 23.332 5.57783 23.4124C5.35026 23.5757 5.12528 23.7197 4.899 23.8299C4.59385 23.9311 4.418 24.0919 4.27706 24.2669C4.13483 24.4433 4.02751 24.6339 3.83356 24.8194L3.83873 24.8051V24.7934ZM5.20932 33.0733C5.46792 33.2938 5.46017 33.3872 5.38776 33.382C5.31406 33.3768 5.18605 33.2627 5.22613 33.0785L5.20932 33.0733ZM3.83873 24.7934L3.54134 25.0009C3.52453 24.8012 3.76632 24.6923 3.83356 24.8077L3.83873 24.7934Z" fill="#CC7D45"/>
<path d="M42.2983 22.1463C42.588 21.7365 42.4755 22.1748 42.4987 22.3213C42.5013 22.6689 42.7961 22.3187 42.9772 22.4225C43.0056 22.4705 42.9565 22.5833 43.0664 22.5625C43.1388 22.5496 43.1957 22.5911 43.1491 22.6676C43.0224 22.8764 43.2138 22.7039 43.2383 22.7285C43.294 22.7973 43.3599 22.8569 43.3896 22.9425C43.4194 23.0281 43.4207 23.1305 43.3547 23.2693C43.3004 23.4573 43.5875 23.2395 43.5564 23.3173C43.431 23.5053 43.7116 23.3445 43.7465 23.3912C44.0116 23.7569 43.6224 23.9566 44.1111 23.7828C44.2922 23.8282 43.868 23.9332 43.8344 24.0123C44.0155 24.1057 44.1525 24.2808 44.2805 24.4532H44.2728C44.4318 24.4195 44.4021 24.5194 44.3801 24.6153C44.3581 24.7126 44.3413 24.8073 44.5275 24.7878C44.6154 24.7878 44.6077 24.8838 44.5883 24.9642C44.5081 25.1794 44.8947 25.0874 44.9102 25.2715C44.9826 25.4025 44.8663 25.6113 45.1068 25.667C45.1701 25.737 44.896 25.9458 45.0667 25.9873C45.1895 26.0535 45.2244 26.1442 45.1662 26.27C45.1934 26.3854 45.2787 26.4853 45.3382 26.5955C45.399 26.7044 45.4533 26.8199 45.4029 26.9547C45.3253 27.0662 45.43 27.1557 45.5141 27.2465C45.5981 27.3373 45.6524 27.4319 45.483 27.5227C45.3925 27.5448 45.2917 27.5525 45.4597 27.5914C45.7869 27.677 45.4804 27.9818 45.805 28.0933C45.8683 28.1153 45.8476 28.1672 45.8567 28.2087C45.8257 28.6457 45.8451 29.0399 45.8606 29.4393C45.8606 29.8362 45.858 30.242 45.7248 30.6505C45.7054 30.8412 45.7145 31.072 45.4365 31.1459C45.3511 31.1615 45.4442 31.19 45.4908 31.2107C45.6873 31.2496 45.4481 31.3313 45.5658 31.4195C45.4662 31.7619 45.3408 32.0964 45.2102 32.4271C45.068 32.7526 44.9219 33.0781 44.7395 33.3828C44.3865 33.9988 43.9418 34.5655 43.3858 35.0168C43.3547 35.1296 43.2965 35.2243 43.2215 35.3021C43.1427 35.3773 43.0509 35.4395 42.9578 35.4992C42.8673 35.5614 42.7651 35.6107 42.6772 35.6742C42.588 35.7352 42.513 35.813 42.4496 35.8999C42.3888 35.9907 42.3113 36.1035 42.1341 35.9984C42.0216 35.931 42.0824 36.1618 41.9311 36.0075C41.8975 35.9725 41.9376 36.0996 41.9234 36.1359C41.7824 36.2993 41.5768 36.438 41.3635 36.4756C41.2342 36.4095 41.3661 36.6326 41.2691 36.5962C41.0738 36.5522 40.9445 36.6079 40.8269 36.6948C40.7118 36.7869 40.6174 36.923 40.5036 37.0307C40.2631 37.0644 39.989 36.9697 39.8351 37.185C39.7446 37.2057 39.6709 37.3639 39.5597 37.2615C39.4033 37.1163 39.3722 37.3562 39.2559 37.2861C39.1486 37.2394 39.0464 37.0021 38.9637 37.1253C38.8305 37.29 38.6068 37.1448 38.4633 37.3134C38.3559 37.2187 38.2654 37.2407 38.1723 37.2784C38.0792 37.3134 37.9848 37.3717 37.8814 37.3639C37.7288 37.4132 37.5594 37.3575 37.4017 37.3289C37.2414 37.2874 37.0914 37.2783 36.9478 37.3912C36.878 37.5118 36.856 37.4236 36.8366 37.3302C36.7875 37.159 36.7203 37.207 36.6427 37.2641C36.5651 37.3185 36.4772 37.3756 36.4074 37.2356C36.344 37.1733 36.2716 37.2005 36.1953 37.2187C36.1203 37.2369 36.0402 37.2537 35.9703 37.1876C35.8734 37.1876 35.7751 37.1863 35.6729 37.1902C35.5721 37.1941 35.4686 37.2135 35.3665 37.2291C35.3057 37.1046 35.2062 37.0916 35.095 37.0968C34.9851 37.0994 34.8661 37.1098 34.7769 37.0501C34.3554 36.9853 32.4895 36.9736 32.1611 36.7026C31.8301 36.4303 31.5379 36.1385 31.2017 35.9258C30.934 35.7287 30.7129 35.446 30.4944 35.1828C30.2669 34.9286 30.0432 34.6939 29.6785 34.594C29.5208 34.677 29.5182 34.913 29.5854 35.1711C29.6178 35.3008 29.6772 35.4227 29.7341 35.5355C29.7897 35.6496 26.3051 36.9373 26.3568 36.9918C26.362 37.1124 26.3697 37.2317 26.3839 37.3497C26.3982 37.4664 26.424 37.574 26.4551 37.6804C26.4874 37.7854 26.5275 37.8878 26.5818 37.976C26.6374 38.0642 26.9218 38.7139 27.002 38.7826C27.0408 38.9058 27.0848 39.0251 27.1326 39.1431C27.1804 39.2624 27.0136 38.8124 27.0692 38.9291C27.1869 39.1509 30.2371 39.6061 30.4052 39.772C30.6496 39.9692 31.3245 39.7617 31.6814 39.728C31.7383 39.9341 31.9103 39.8071 32.0098 39.9004C32.0486 40.0664 33.8886 40.0132 34.0011 40.012C34.0748 40.012 34.1821 40.0068 34.1886 40.1248C34.2998 40.3141 34.4691 40.4295 34.6476 40.5371C34.8299 40.6331 34.9114 39.6683 35.0769 39.8084C35.2527 39.772 35.404 39.8706 35.5643 39.9614C35.7247 40.0483 35.894 40.1416 36.0789 40.0949C36.2949 40.1131 36.4901 40.2389 36.6944 40.331C36.8961 40.4269 37.1069 40.5216 37.3293 40.4853C37.4457 40.401 37.5517 40.4425 37.6603 40.5021C37.7689 40.5579 37.8827 40.6344 38.0042 40.6305C38.184 40.672 38.3702 40.6331 38.5551 40.624C38.7413 40.6175 38.9223 40.624 39.1085 40.7524C39.1912 40.5631 39.3309 40.5773 39.4886 40.6279C39.6464 40.6811 39.8248 40.7848 39.9696 40.7926C40.2037 40.8121 40.3653 40.5864 40.6084 40.6487C40.6562 40.3841 40.7713 40.5722 40.867 40.65C40.9497 40.7135 41.1139 40.6357 41.282 40.5514C41.4514 40.4697 41.6337 40.4049 41.7798 40.5138C41.9285 40.6124 42.0152 40.3893 42.1483 40.3621C42.2621 40.353 42.4212 40.5112 42.5207 40.4153C42.6151 40.1857 42.9332 40.3102 43.0211 40.1209C43.0496 39.8926 43.334 39.9925 43.4414 39.8525C43.815 40.0275 44.2029 39.8473 44.415 39.5814C44.4771 39.4881 44.5546 39.4297 44.6426 39.3869C44.7292 39.3415 44.8223 39.3104 44.9167 39.278C45.1029 39.2131 45.2929 39.1483 45.377 38.9382C45.4947 38.85 45.6265 38.7969 45.7546 38.7294C45.8813 38.662 45.9976 38.5738 46.0907 38.4325C46.1489 38.3171 46.4217 38.4675 46.5006 38.3352C46.5601 37.9968 46.9415 37.9942 47.1213 37.7724C47.1872 37.6946 47.2169 37.6259 47.2247 37.5312C47.2273 37.5001 47.1161 37.421 47.2351 37.4443C47.4044 37.4781 47.4626 37.373 47.4613 37.268C47.6087 37.089 47.7626 36.8517 47.9152 36.6196C47.9928 36.5042 48.0794 36.3965 48.1647 36.298C48.2501 36.1981 48.3419 36.1125 48.444 36.049C48.6056 35.9725 48.5009 35.7754 48.6755 35.7131C48.7996 35.6146 48.8862 35.4875 48.9522 35.3487C49.0155 35.2087 49.0543 35.0544 49.0944 34.904C49.1138 34.8287 49.1345 34.7535 49.1565 34.6796C49.1759 34.6044 49.1978 34.5318 49.225 34.4618C49.2793 34.3217 49.3543 34.1946 49.4707 34.087C49.3297 33.8977 49.5444 33.8056 49.547 33.6616C49.5483 33.4503 49.6504 33.5475 49.7448 33.6176C49.7991 33.6578 49.8844 33.6798 49.8482 33.6176C49.7655 33.4736 49.9426 33.4308 49.9168 33.3167C50.0551 33.0885 50.1055 32.8771 49.9775 32.5866C50.0667 32.2365 50.3577 31.9071 50.3021 31.5038C50.2956 31.3067 50.3654 31.4078 50.4546 31.4442C50.6693 31.4584 50.2788 31.1264 50.4715 31.0422C50.6266 30.9138 50.4236 30.7815 50.4909 30.6531C50.5697 30.5572 50.5982 30.4469 50.6021 30.3341C50.6021 30.22 50.5762 30.1033 50.5516 29.9879C50.5258 29.8725 50.4999 29.7609 50.4973 29.6546C50.4921 29.5483 50.5102 29.4497 50.5788 29.3589C50.6279 29.3213 50.6732 29.1618 50.699 28.9427C50.7171 28.7235 50.7301 28.446 50.7068 28.175C50.6706 27.6329 50.5271 27.1298 50.3822 27.1765C50.3137 27.1505 50.315 27.0883 50.3952 27.0766C50.8322 26.9975 50.3176 26.6993 50.4133 26.5164C50.5038 26.2895 50.2025 26.2104 50.209 26.0236C50.209 26.0094 50.1663 25.9847 50.1443 25.986C49.9336 26.0029 49.8146 25.9925 50.0474 25.8084C49.825 25.4167 50.0331 25.3493 49.9077 25.0173C49.8094 24.9253 49.6452 24.8397 49.7086 24.7256C49.8443 24.5323 49.6556 24.4779 49.6439 24.3586C49.7086 24.2795 49.8547 24.1783 49.5961 24.1835C49.556 24.0655 49.4875 23.9514 49.4073 23.8399C49.3258 23.7283 49.225 23.6207 49.1306 23.5092C48.9444 23.2848 48.7505 23.0644 48.6819 22.7856C48.4763 22.7441 48.4776 22.5781 48.4776 22.4199C48.4776 22.263 48.475 22.119 48.263 22.1541C48.0703 22.1528 48.1505 22.2565 48.1738 22.3317C48.3147 22.2772 48.4531 22.3823 48.307 22.4938C48.2255 22.2578 47.8454 22.3901 48.0367 22.1203C48.0522 21.9958 48.0367 21.8506 47.9902 21.7144C47.9669 21.6457 47.9359 21.5809 47.8958 21.5212C47.8544 21.4629 47.804 21.4123 47.7458 21.3721C47.5376 21.2813 47.4717 21.0907 47.3915 20.9079C47.3126 20.7263 47.2299 20.5448 47.0217 20.4786C46.7321 20.4034 46.7489 20.1389 46.6532 19.9443C46.436 19.9612 46.4773 19.7861 46.445 19.6591C46.4657 19.3478 46.1256 19.4321 46.0507 19.1689C45.9731 18.8473 45.9679 18.8408 45.6472 18.6787C45.4947 18.5594 45.5671 18.0173 45.2231 18.2144C45.1546 18.2598 45.0356 18.2378 45.0214 18.1522C44.9813 17.9227 44.6451 17.9149 44.7007 17.605C44.5663 17.5687 44.4512 17.5038 44.3478 17.4234C44.2443 17.3417 44.1499 17.2458 44.0529 17.1498C43.8616 16.9566 43.6767 16.7387 43.431 16.6285C43.3599 16.5637 43.2371 16.4936 43.0935 16.4223C42.9474 16.3549 42.778 16.2874 42.6177 16.2187C42.4574 16.1474 42.3022 16.0864 42.1833 16.0203C42.0643 15.9555 41.9828 15.8867 41.9673 15.8154C41.9647 15.4847 41.5755 15.7428 41.4514 15.6144C41.41 15.4497 41.326 15.3538 41.2213 15.2954C41.1165 15.2409 40.9924 15.2215 40.8721 15.2007C40.7519 15.1813 40.6342 15.1592 40.5373 15.1022C40.4403 15.0477 40.364 14.9531 40.3265 14.7819C40.298 14.6613 40.2218 14.6626 40.1429 14.682C39.852 14.8221 39.8002 14.3967 39.561 14.4123C39.3697 14.4655 39.2223 14.3682 39.08 14.2697C38.9611 14.1153 38.7865 14.1374 38.6275 14.1646C38.4671 14.1944 38.3223 14.2333 38.2422 14.0959C38.0715 14.0272 37.8413 13.9273 37.5982 13.869C37.3551 13.8067 37.0978 13.7717 36.8832 13.83C36.7448 13.7458 36.5703 13.8378 36.4242 13.7354C36.3401 13.6731 36.194 13.8715 36.1281 13.6641C35.9988 13.7963 35.7505 13.6031 35.66 13.8534C35.6341 13.926 35.5294 13.9338 35.4751 13.9105C35.2592 13.8171 35.0213 13.9286 34.8066 13.8054C34.7433 13.7678 34.645 13.7652 34.623 13.8404C34.5597 14.0492 34.4601 13.9947 34.3062 13.9429C34.0593 13.8288 33.8356 13.8884 33.6183 13.9766C33.3998 14.0674 33.1904 14.2048 32.9486 14.2411C32.6757 14.1944 32.4288 14.3423 32.1883 14.3916C31.9271 14.3254 31.6698 14.4253 31.4138 14.542C31.1603 14.6678 30.9134 14.8221 30.6535 14.8791C30.3018 14.9025 29.9759 15.0788 29.6734 15.298C29.363 15.5081 29.076 15.7571 28.7385 15.8854C27.6989 16.3056 26.7783 16.9838 25.9637 17.7476C25.1452 18.5153 24.4237 19.3751 23.7022 20.2348C23.4126 20.7458 22.9562 21.2722 22.7842 21.8169C22.7441 22.0464 22.6665 22.2604 22.5683 22.4679C22.47 22.6754 22.3666 22.8841 22.2592 23.0929C22.1506 23.3004 22.0666 23.5196 22.0019 23.7426C21.936 23.9644 21.9153 24.1991 21.9463 24.439C21.5545 25.2495 21.3309 26.1326 21.2054 27.0312C21.0787 27.9325 21.0516 28.848 21.0464 29.7765C21.1472 30.2265 21.1369 30.6713 21.1589 31.1239C21.1628 31.2367 21.1666 31.3508 21.1757 31.4649C21.1873 31.5777 21.2003 31.6918 21.2197 31.806C21.2559 32.0329 21.3102 32.2611 21.4097 32.4816C21.53 32.7202 21.6347 32.9731 21.742 33.2311C21.7937 33.3608 21.8429 33.4918 21.8881 33.6253C21.9373 33.7576 21.9864 33.8899 22.0317 34.0234C22.0782 34.157 22.117 34.2919 22.161 34.4241C22.2049 34.5564 22.2476 34.6887 22.2864 34.8197C22.3601 35.0829 22.439 35.3371 22.5036 35.5809C22.5644 35.6639 22.6226 35.7507 22.6795 35.8428C22.7402 35.9336 22.7997 36.0283 22.8579 36.1268C22.9756 36.3226 23.0868 36.5353 23.2135 36.7428C23.4566 37.1655 23.7294 37.5935 24.041 37.9501C24.2 38.1264 24.3655 38.2859 24.5401 38.4169C24.7198 38.5427 24.9086 38.6426 25.1039 38.7022C25.2978 38.7632 25.5073 38.78 25.7245 38.7489C25.9417 38.7178 26.3839 39.208 26.6193 39.0718C27.0938 38.5998 27.4054 37.6531 27.9162 37.2667C28.4269 36.8828 28.9195 36.4886 29.363 36.0231C29.5402 35.8662 29.6695 35.6392 29.9035 35.5588C30.0328 35.4343 30.1207 35.2554 30.285 35.149C30.3444 35.0946 30.3845 35.0349 30.347 34.9986C30.2449 34.891 30.2953 34.6511 30.0264 34.6939C29.6721 34.4527 29.3385 34.1389 29.0424 33.7809C28.754 33.4178 28.5148 33.0042 28.348 32.5762C28.348 32.4751 28.3403 32.3778 28.3286 32.2832L28.2885 32.0031C28.273 31.911 28.2536 31.8202 28.2317 31.7307C28.2123 31.64 28.1929 31.5492 28.1696 31.4597C28.0752 31.1031 27.9795 30.7439 27.92 30.3743C27.9562 30.2239 27.9485 30.0812 27.9278 29.9386C27.9123 29.7947 27.867 29.652 27.8269 29.5081C27.7907 29.3628 27.7429 29.2176 27.717 29.0711C27.6951 28.9245 27.677 28.778 27.6976 28.634C27.7455 28.2243 27.7713 27.8106 27.8231 27.3943C27.8864 26.982 27.9679 26.5657 28.145 26.187C28.3842 25.6891 28.6079 25.1794 28.8769 24.6983C29.1445 24.2185 29.46 23.7685 29.8427 23.4197C29.8221 23.2433 29.8259 23.0994 29.9992 23.0657C30.1039 22.9996 30.1828 22.9166 30.2488 22.8245C30.3134 22.7311 30.3768 22.6365 30.4349 22.534C30.8177 22.1774 31.1991 21.8117 31.6155 21.4888C32.0331 21.1698 32.4857 20.8975 32.9705 20.7367C33.0158 20.7652 33.0468 20.7574 33.043 20.6939C33.0067 20.3165 33.3067 20.703 33.3804 20.5084C33.4205 20.4229 33.4774 20.3762 33.5433 20.3502C33.6106 20.3269 33.6843 20.3243 33.758 20.3217C33.8317 20.3191 33.9041 20.3178 33.97 20.2958C34.0373 20.2776 34.0981 20.2426 34.1472 20.1661C34.1705 20.1039 34.2636 20.1 34.3398 20.1415C34.7174 20.0351 35.1105 19.9223 35.5217 19.8523C35.6238 19.8315 35.7272 19.8121 35.8307 19.8004L36.1436 19.7576C36.3544 19.7433 36.5651 19.7174 36.7785 19.7213C37.6267 19.6993 38.4775 19.8691 39.1654 20.2322C39.2481 20.1116 39.2714 20.3658 39.3438 20.1907C39.371 20.1259 39.4175 20.1116 39.4369 20.1531C39.5494 20.218 39.6554 20.3074 39.7653 20.3788C39.8752 20.4488 39.9981 20.4773 40.1493 20.4332C40.2024 20.4008 40.2657 20.4592 40.2929 20.5318C40.3123 20.5837 40.342 20.6446 40.386 20.6187C40.5127 20.5629 40.5722 20.6485 40.6303 20.7328C40.6885 20.8171 40.7441 20.9014 40.8734 20.8612C41.1967 20.7263 40.9808 21.2917 41.1631 21.3915C41.2665 21.5083 41.3092 21.1555 41.4087 21.232C41.4566 21.2917 41.5161 21.341 41.5794 21.3877C41.6428 21.4356 41.7048 21.4862 41.7669 21.5355C41.8277 21.5874 41.8833 21.6418 41.9272 21.7041C41.9699 21.7689 41.9971 21.8467 42.0022 21.9362C41.9596 22.2202 42.191 22.0646 42.3048 22.1476L42.297 22.1502L42.2983 22.1463ZM25.6017 26.4918C25.612 26.318 25.9249 26.4957 25.5952 26.4866L25.6017 26.4918ZM25.4633 29.5885L25.4982 29.4951C25.6637 29.521 25.5887 29.5859 25.4556 29.5859L25.4633 29.5885Z" fill="#CC7D45"/>
</g>
<defs>
<clipPath id="clip0_3394_3618">
<rect width="67" height="43.8077" fill="white" transform="translate(0.5 0.242188)"/>
</clipPath>
</defs>
</svg>
