<svg width="61" height="45" viewBox="0 0 61 45" fill="none" xmlns="http://www.w3.org/2000/svg">
<g clip-path="url(#clip0_3394_3570)">
<path d="M13.6435 15.3517C13.4943 15.3899 13.59 15.2695 13.5974 15.2028C13.6148 15.134 13.593 15.1039 13.5589 15.0768C13.5251 15.0497 13.4814 15.0252 13.4614 14.9683C13.4587 14.9376 13.4847 14.9117 13.4509 14.8754C13.4293 14.8515 13.4186 14.8119 13.4401 14.7988C13.4981 14.7634 13.4264 14.758 13.4228 14.7377C13.4156 14.6871 13.4033 14.6353 13.4057 14.587C13.4078 14.5387 13.4192 14.4941 13.4494 14.4589C13.4811 14.3966 13.3893 14.3794 13.4045 14.357C13.4524 14.3225 13.3716 14.2834 13.3692 14.2492C13.3653 14.1824 13.3692 14.1354 13.3743 14.1005C13.377 14.0832 13.38 14.0689 13.383 14.057C13.3866 14.0451 13.3896 14.0353 13.3923 14.0269C13.4018 13.993 13.3964 13.9805 13.3405 13.9286C13.3121 13.8392 13.4036 13.9492 13.4192 13.9236C13.4081 13.8661 13.3967 13.8023 13.3967 13.7377C13.3949 13.6727 13.3955 13.6051 13.3964 13.5384L13.3976 13.5407C13.3683 13.5008 13.3875 13.4621 13.4045 13.4204C13.4222 13.3787 13.4377 13.3343 13.4108 13.281C13.4051 13.2661 13.4063 13.2467 13.4102 13.2267C13.4156 13.2071 13.424 13.1868 13.4317 13.1689C13.4778 13.0823 13.4174 13.0048 13.4527 12.9056C13.462 12.8612 13.4796 12.8189 13.4943 12.7757C13.5092 12.7325 13.5182 12.6878 13.5164 12.6393C13.5269 12.5856 13.5954 12.5487 13.5924 12.4799C13.5975 12.4105 13.6199 12.3557 13.6561 12.3023C13.6701 12.2678 13.6824 12.232 13.6941 12.1954C13.7048 12.1584 13.7201 12.1233 13.7335 12.0869C13.7476 12.0509 13.762 12.0151 13.7781 11.9803C13.794 11.9454 13.8122 11.9118 13.8358 11.8817C13.8756 11.8391 13.8984 11.7703 13.9226 11.7068C13.9474 11.6436 13.9776 11.5882 14.0195 11.5695C14.033 11.5733 14.0416 11.5867 14.0449 11.5379C14.0488 11.4896 14.0835 11.4375 14.1221 11.3868C14.1598 11.3359 14.1975 11.2838 14.2079 11.2331C14.2115 11.2132 14.2337 11.1914 14.2492 11.1709C14.4224 10.9641 14.5968 10.7854 14.779 10.6168C14.8259 10.5759 14.8729 10.5357 14.9213 10.4961C14.9453 10.4764 14.9695 10.4565 14.9937 10.4368C15.0191 10.4183 15.044 10.3993 15.07 10.3811C15.1217 10.3448 15.1732 10.3075 15.2273 10.2724C15.2827 10.239 15.3398 10.2065 15.3975 10.1738C15.4472 10.1401 15.5037 10.1097 15.5578 10.0838C15.6123 10.0582 15.6664 10.0397 15.7194 10.0427C15.7484 10.0463 15.7418 10.0293 15.7412 10.0188C15.714 9.98905 15.8154 9.98846 15.8324 9.95181C16.0361 9.86363 16.2491 9.79869 16.46 9.74089C16.6747 9.69085 16.8874 9.64735 17.104 9.62858C17.3181 9.60296 17.5347 9.60237 17.7459 9.60624C17.7988 9.60803 17.8524 9.61369 17.905 9.61756L17.984 9.62352L18.0231 9.6265L18.0626 9.63156C18.1679 9.64705 18.2708 9.65629 18.374 9.67923C18.4329 9.66582 18.494 9.66374 18.5556 9.66999C18.6172 9.67863 18.6794 9.69531 18.7407 9.71081C18.802 9.72481 18.8631 9.74924 18.9229 9.76205C18.983 9.77635 19.0422 9.7829 19.1015 9.7823C19.1604 9.77992 19.2337 9.77635 19.2681 9.86244C19.2896 9.91666 19.3488 9.83682 19.3551 9.92798C19.3563 9.94824 19.3862 9.90177 19.4054 9.897C19.5232 9.89968 19.6572 9.93066 19.7598 9.98846C19.79 10.0498 19.8145 9.94347 19.8421 9.98578C19.8747 10.0236 19.9097 10.0486 19.9465 10.0656C19.9838 10.0811 20.0212 10.0951 20.0619 10.099C20.1023 10.1037 20.1445 10.1035 20.1872 10.1017C20.2303 10.0999 20.2728 10.1017 20.3162 10.1008C20.3724 10.1341 20.4244 10.1747 20.4771 10.2104C20.5309 10.2438 20.5884 10.2643 20.6589 10.2563C20.7062 10.2768 20.7921 10.2503 20.8079 10.3129C20.83 10.4011 20.9243 10.3382 20.9554 10.3912C20.9898 10.4344 20.9593 10.5327 21.0397 10.5181C21.0977 10.5113 21.1429 10.5348 21.1887 10.5578C21.2114 10.5694 21.2359 10.5786 21.2608 10.587C21.2859 10.5953 21.3131 10.5998 21.3445 10.5971C21.3684 10.6525 21.4226 10.6674 21.4812 10.6814C21.5389 10.6963 21.6053 10.7049 21.658 10.7335C21.6819 10.7395 21.7047 10.7481 21.7253 10.7589C21.7462 10.7696 21.7675 10.7803 21.7875 10.7922C21.8282 10.8161 21.8674 10.8417 21.9071 10.8664C21.946 10.892 21.9864 10.9156 22.0304 10.934C22.0741 10.9528 22.1237 10.9638 22.1761 10.9716C22.2425 10.9632 22.2347 10.9897 22.2251 11.016C22.2155 11.0684 22.267 11.0746 22.3238 11.0836C22.38 11.0931 22.4402 11.1071 22.456 11.1569C22.4823 11.1884 22.5317 11.2027 22.5787 11.2221C22.6259 11.2412 22.6747 11.2623 22.7067 11.2981C22.7354 11.3133 22.7647 11.3288 22.794 11.3442C22.8233 11.3606 22.8527 11.377 22.8823 11.3934C22.9128 11.4098 22.943 11.4259 22.9732 11.442C23.004 11.4578 23.0348 11.4738 23.0638 11.4908C23.0878 11.5379 23.1452 11.5766 23.2086 11.6168C23.2717 11.6574 23.336 11.7023 23.3845 11.7503C23.6097 11.9347 23.8032 12.1507 23.9672 12.3875C24.1314 12.6241 24.2785 12.877 24.4009 13.146C24.4969 13.37 24.5747 13.6149 24.6216 13.8646C24.6752 14.1136 24.6889 14.3668 24.7018 14.6049C24.711 14.6394 24.7155 14.5146 24.7173 14.3552C24.7185 14.3153 24.7146 14.2736 24.7116 14.2316C24.7084 14.1896 24.7054 14.1476 24.7021 14.1071C24.6991 14.0668 24.6952 14.0284 24.6901 13.9939C24.6844 13.9593 24.6793 13.9289 24.6752 13.9039C24.6704 13.8488 24.6647 13.794 24.6578 13.7388C24.6512 13.6837 24.6399 13.6286 24.6303 13.572C24.6186 13.5157 24.6085 13.4576 24.5932 13.3986C24.5776 13.3397 24.5588 13.2789 24.5385 13.2157C24.531 13.1853 24.525 13.1546 24.5163 13.1246C24.5077 13.0945 24.4987 13.0644 24.49 13.034C24.4721 12.9735 24.4559 12.9124 24.4374 12.8517C24.3943 12.7322 24.3584 12.6086 24.304 12.4912C24.2651 12.4102 24.2361 12.3297 24.1966 12.2532C24.1771 12.2147 24.1574 12.1763 24.135 12.1385C24.1239 12.1194 24.1122 12.1006 24.0997 12.0819C24.0871 12.0631 24.0718 12.0455 24.0566 12.0277C24.0407 11.9576 23.9794 11.9127 23.9465 11.8504C23.9384 11.798 23.8996 11.756 23.858 11.7101C23.8311 11.6803 23.7904 11.6374 23.7955 11.6097C23.7655 11.5257 23.7108 11.436 23.6543 11.3439C23.6238 11.2993 23.5927 11.2543 23.5636 11.209C23.534 11.164 23.5092 11.1172 23.4844 11.0731C23.4105 11.016 23.3644 10.9394 23.3151 10.8622C23.2639 10.7869 23.2152 10.7058 23.1329 10.6501C23.091 10.6099 23.056 10.567 23.0243 10.5217C23.0085 10.4991 22.9935 10.4761 22.9789 10.4526C22.9636 10.4297 22.9484 10.407 22.9331 10.3844C22.8721 10.2935 22.812 10.1988 22.7148 10.1323C22.6484 10.1127 22.6158 10.0674 22.5867 10.0165C22.5568 9.96671 22.5314 9.91011 22.4823 9.87049C22.4515 9.83623 22.4174 9.80286 22.3786 9.77486C22.3403 9.74596 22.3002 9.71825 22.2622 9.68876C22.2239 9.65986 22.1892 9.62709 22.1566 9.59343C22.1246 9.55917 22.098 9.52014 22.08 9.47248C21.9933 9.49542 21.9418 9.44567 21.8946 9.38072C21.8482 9.31488 21.8093 9.2276 21.7558 9.17784C21.6706 9.09592 21.5377 9.10605 21.4624 9.00982C21.3607 9.0694 21.3741 8.97914 21.3619 8.92581C21.3562 8.90287 21.3308 8.8847 21.2955 8.86742C21.2778 8.85908 21.2581 8.85044 21.2365 8.8427C21.2147 8.83555 21.192 8.8281 21.1686 8.82035C21.0762 8.78967 20.9841 8.75005 20.9631 8.67229C20.9374 8.59632 20.8309 8.63446 20.7702 8.60049C20.7233 8.56743 20.714 8.47061 20.6434 8.46822C20.5866 8.48699 20.5387 8.46346 20.4917 8.43813C20.4451 8.41311 20.3996 8.3857 20.3512 8.40149C20.2632 8.46077 20.1863 8.34459 20.0981 8.35412C20.0553 8.27101 19.9815 8.21619 19.8968 8.18312C19.8543 8.16733 19.8098 8.15422 19.7643 8.15065C19.7188 8.14618 19.6737 8.14648 19.6306 8.15065C19.5753 8.16108 19.5247 8.15661 19.4765 8.14469C19.4281 8.13367 19.3814 8.11818 19.3348 8.10209C19.2414 8.07111 19.1472 8.03834 19.0425 8.08064C18.9678 8.07617 18.8993 8.058 18.8281 8.04608C18.7569 8.03417 18.6833 8.03268 18.5995 8.05234C18.5379 8.07289 18.4895 7.96207 18.415 7.98412C18.3441 8.02821 18.2753 8.0294 18.2053 8.02255C18.1703 8.01957 18.1353 8.01302 18.1003 8.01153C18.0653 8.01004 18.03 8.01063 17.995 8.01748C17.9442 8.02731 17.9098 8.04161 17.8736 8.06872C17.8619 8.07736 17.8724 8.12384 17.8395 8.09285C17.7922 8.04757 17.7354 8.06872 17.6986 8.1009C17.6418 8.11341 17.5796 8.13129 17.5147 8.14946C17.4985 8.15422 17.482 8.15869 17.4656 8.16346C17.4491 8.16882 17.433 8.17448 17.4162 8.17984C17.3833 8.19057 17.3501 8.201 17.3169 8.21172C17.2508 8.23287 17.1844 8.24926 17.1222 8.26564C17.06 8.28203 17.0008 8.29335 16.9466 8.29663C16.8698 8.29514 16.8321 8.36961 16.7576 8.36366C16.6855 8.37617 16.6158 8.40298 16.5482 8.43605C16.4809 8.47031 16.4166 8.5138 16.3523 8.55462C16.3203 8.57517 16.288 8.59543 16.256 8.61479C16.2246 8.63535 16.1932 8.65561 16.1615 8.67408C16.098 8.71102 16.0337 8.74141 15.9667 8.76166C15.9359 8.83644 15.8501 8.8418 15.8001 8.88619C15.7256 8.95113 15.7358 8.91092 15.7379 8.87964C15.7391 8.86176 15.7265 8.84627 15.7137 8.86891C15.6829 8.92134 15.6287 8.91926 15.5955 8.95799C15.5414 8.98808 15.4941 9.01876 15.4508 9.05391C15.4071 9.08877 15.3703 9.13346 15.3332 9.1847C15.2644 9.23772 15.1866 9.28033 15.1149 9.33306C15.0781 9.35838 15.0419 9.38489 15.0069 9.41319C14.9719 9.44149 14.9378 9.47158 14.9079 9.50644C14.8442 9.57198 14.8657 9.53265 14.8627 9.51329C14.8325 9.49035 14.787 9.63305 14.7287 9.64407C14.6952 9.65748 14.6767 9.68131 14.6593 9.70485C14.642 9.72868 14.6261 9.75311 14.6004 9.77217C14.5582 9.7978 14.519 9.83176 14.4819 9.8687C14.446 9.90713 14.4128 9.94973 14.3799 9.99114C14.347 10.0325 14.3144 10.0728 14.2809 10.1088C14.2489 10.1461 14.216 10.1791 14.1804 10.2038C14.1634 10.2125 14.108 10.2619 14.0392 10.3349C14.006 10.3725 13.9687 10.4151 13.9292 10.4598C13.89 10.5047 13.8484 10.5515 13.8116 10.6016C13.7365 10.6996 13.6612 10.794 13.616 10.8703C13.5681 10.9445 13.5418 10.9939 13.5544 10.9954C13.5526 11.0139 13.5346 11.0362 13.5251 11.0294C13.5113 11.0216 13.4978 11.027 13.4847 11.0398C13.4721 11.0529 13.4602 11.074 13.4482 11.0979C13.424 11.1452 13.3997 11.2024 13.3707 11.2296C13.3019 11.2966 13.3052 11.372 13.255 11.4396C13.2514 11.4446 13.2478 11.4604 13.2499 11.4634C13.2693 11.4905 13.2747 11.5141 13.2098 11.5441C13.1658 11.6347 13.1395 11.6788 13.1111 11.7163C13.0836 11.7545 13.0561 11.7872 13.0196 11.8593C13.004 11.9115 12.9947 11.9746 12.9627 12.0047C12.9071 12.0497 12.9056 12.1054 12.8784 12.1528C12.855 12.1695 12.8209 12.1763 12.8413 12.227C12.8171 12.2788 12.7952 12.3348 12.774 12.3932C12.7539 12.4519 12.7387 12.5144 12.7204 12.577C12.6822 12.7015 12.6522 12.832 12.5966 12.9518C12.6044 13.0182 12.5703 13.0811 12.5365 13.1386C12.5033 13.1961 12.4722 13.2485 12.5 13.2926C12.5182 13.3453 12.5332 13.2851 12.547 13.2512C12.5215 13.2333 12.5308 13.1588 12.5682 13.1558C12.5263 13.2643 12.5903 13.3185 12.5156 13.3665C12.4883 13.4082 12.4596 13.4654 12.436 13.5282C12.424 13.5595 12.4136 13.5923 12.4055 13.625C12.3983 13.6578 12.3944 13.6909 12.3926 13.7225C12.3953 13.7692 12.3893 13.8151 12.3789 13.8601C12.3687 13.9051 12.3519 13.9495 12.34 13.9942C12.314 14.0832 12.287 14.1726 12.302 14.2611C12.3295 14.3794 12.2739 14.4681 12.2469 14.5667C12.2658 14.5995 12.2649 14.6275 12.2568 14.6543C12.2484 14.6811 12.232 14.7068 12.2212 14.7342C12.1862 14.7839 12.1877 14.8307 12.1925 14.8787C12.1949 14.9028 12.1982 14.9272 12.1982 14.9528C12.1991 14.9785 12.1964 15.0053 12.1853 15.0345C12.1575 15.1024 12.1435 15.1372 12.1393 15.1757C12.1372 15.1947 12.1375 15.215 12.1399 15.2406C12.142 15.2662 12.1461 15.2975 12.1545 15.3389C12.1566 15.3866 12.124 15.4477 12.104 15.5049C12.0842 15.5621 12.0774 15.6154 12.1366 15.6419C12.1614 15.6511 12.1829 15.7 12.1662 15.7337C12.1222 15.8239 12.1949 15.9461 12.11 16.0283C12.1324 16.0885 12.1447 16.1504 12.15 16.2145C12.1527 16.2464 12.1539 16.2788 12.1539 16.3116C12.1548 16.3441 12.1557 16.3768 12.1557 16.4102C12.1557 16.4763 12.1539 16.5437 12.1563 16.6104C12.1575 16.6774 12.1686 16.7421 12.1856 16.8049C12.1883 16.8517 12.203 16.919 12.2233 16.9953C12.2458 17.0707 12.2754 17.1541 12.3032 17.2351C12.3175 17.2753 12.3292 17.3159 12.3427 17.3531C12.3558 17.3903 12.3675 17.4258 12.3762 17.458C12.3938 17.5223 12.3998 17.5741 12.3848 17.603C12.3412 17.6561 12.3633 17.6996 12.4007 17.738C12.4369 17.777 12.4844 17.8125 12.4865 17.8566C12.4542 17.9248 12.4527 17.9871 12.4695 18.0434C12.4871 18.0994 12.5206 18.1506 12.5529 18.2009C12.5855 18.2513 12.6161 18.3013 12.6316 18.3544C12.6475 18.4071 12.6457 18.4649 12.6092 18.5337C12.5841 18.5829 12.6092 18.6103 12.64 18.6329C12.6741 18.6484 12.6929 18.6693 12.7031 18.694C12.7136 18.7181 12.7163 18.7452 12.7166 18.7735C12.7178 18.8298 12.7118 18.89 12.7536 18.9299C12.7934 18.9559 12.8186 18.9901 12.8356 19.0285C12.8533 19.0667 12.864 19.1078 12.873 19.1498C12.867 19.2421 12.9322 19.2982 12.9941 19.347C13.0572 19.3953 13.1189 19.4352 13.1045 19.5082C13.1237 19.5505 13.1458 19.5996 13.1694 19.653C13.1936 19.7066 13.2242 19.7602 13.2565 19.8147C13.2891 19.8686 13.3247 19.922 13.3632 19.9693C13.4015 20.017 13.4464 20.056 13.4919 20.0864C13.5134 20.1639 13.6034 20.1969 13.6223 20.2836C13.6318 20.3343 13.7461 20.3224 13.7033 20.4144C13.791 20.418 13.817 20.5717 13.9289 20.5223C13.9615 20.5077 14.0013 20.5431 14.0126 20.5705C14.0357 20.6253 14.0781 20.6647 14.1188 20.7055C14.1391 20.726 14.1592 20.7466 14.1759 20.7701C14.1936 20.7928 14.2079 20.8181 14.2169 20.8482C14.2274 20.8833 14.2615 20.9203 14.2941 20.9036C14.385 20.8565 14.403 20.9113 14.4413 20.9843C14.4927 21.1115 14.5932 21.1729 14.7021 21.2221C14.7562 21.2474 14.8151 21.2656 14.872 21.2885C14.9288 21.3114 14.9844 21.3376 15.035 21.3752C15.0766 21.4333 15.1337 21.4708 15.192 21.5042C15.2507 21.5372 15.3117 21.5653 15.3649 21.6001C15.4388 21.7169 15.5683 21.7756 15.7035 21.8271C15.8408 21.8754 15.9871 21.9087 16.1037 21.9823C16.1731 22.0416 16.2545 22.0842 16.3415 22.117C16.4286 22.1503 16.5234 22.1673 16.6188 22.1834C16.6667 22.1912 16.7145 22.1989 16.7624 22.2069C16.8099 22.2156 16.8581 22.2224 16.9054 22.2302C17.0005 22.2454 17.0926 22.2665 17.1799 22.3026C17.3157 22.3541 17.4545 22.3985 17.5954 22.436C17.6663 22.4524 17.7375 22.4679 17.809 22.4825L17.9164 22.5034C17.9523 22.5102 17.9882 22.5171 18.0243 22.5209C18.0967 22.5299 18.1691 22.5376 18.2418 22.5451C18.3145 22.5519 18.3872 22.56 18.4599 22.5618C18.5325 22.5647 18.6055 22.568 18.6782 22.5686L18.7874 22.5698C18.8239 22.5692 18.8601 22.5677 18.8966 22.5665L19.1146 22.5582C19.1508 22.5564 19.1873 22.5558 19.2235 22.5528L19.3321 22.5424C19.4768 22.5281 19.6213 22.5159 19.7649 22.4944C19.8367 22.4852 19.9085 22.4754 19.98 22.4652C20.0514 22.4545 20.1223 22.4408 20.1935 22.4295C20.2647 22.4179 20.3359 22.4065 20.4068 22.3949C20.4777 22.3815 20.5483 22.3684 20.6189 22.3553C20.6545 22.3416 20.691 22.3291 20.7283 22.3172C20.7469 22.3115 20.7657 22.3059 20.7846 22.3002C20.8034 22.2942 20.8223 22.288 20.8411 22.2817C20.9171 22.2576 20.9949 22.2352 21.0717 22.2123C21.1489 22.19 21.2243 22.1635 21.2958 22.1322C21.3672 22.1012 21.4351 22.0672 21.4965 22.0285C21.5892 21.9534 21.6879 21.89 21.7923 21.8381C21.8446 21.8125 21.8967 21.7857 21.949 21.7586C22.0014 21.7321 22.0537 21.7056 22.1064 21.6788L22.1844 21.6379C22.2099 21.6233 22.2347 21.6073 22.2595 21.5915C22.3089 21.5596 22.357 21.5259 22.4034 21.4899C22.497 21.4199 22.5763 21.3284 22.6421 21.2247C23.0214 20.9986 23.3444 20.6843 23.616 20.3358C23.6824 20.2467 23.7497 20.1597 23.811 20.068C23.8705 19.9756 23.9301 19.8832 23.9896 19.7906C24.0458 19.6965 24.0991 19.6002 24.1523 19.5058C24.2043 19.4102 24.2522 19.3122 24.3019 19.2168C24.321 19.1662 24.3398 19.1158 24.3587 19.0655C24.3778 19.016 24.3982 18.9681 24.4185 18.9207C24.461 18.8272 24.4987 18.7315 24.5376 18.6377C24.5567 18.5906 24.5761 18.5435 24.5938 18.4959C24.6102 18.4473 24.6264 18.3982 24.6414 18.3487C24.6563 18.2993 24.6704 18.2489 24.6844 18.1989C24.6982 18.1485 24.7078 18.0955 24.7179 18.0428C24.7272 17.9841 24.7374 17.9251 24.7487 17.8658C24.7547 17.8363 24.7592 17.8059 24.7643 17.7755C24.7691 17.7451 24.7751 17.7154 24.7804 17.685C24.7918 17.6248 24.8038 17.5646 24.816 17.505C24.8271 17.4452 24.8385 17.385 24.8495 17.3251C24.86 17.2652 24.8741 17.2074 24.8845 17.149C24.8947 17.0906 24.9037 17.0325 24.9147 16.9768C24.9384 16.8657 24.9527 16.7564 24.971 16.6563C24.9746 16.6149 24.9785 16.572 24.9826 16.5273C24.9853 16.4826 24.9898 16.437 24.994 16.3903C24.9985 16.3438 25.003 16.2964 25.0075 16.2481C25.0144 16.2005 25.0158 16.151 25.0203 16.1019C25.0377 15.9053 25.0502 15.7027 25.0565 15.515C25.0565 15.4206 25.0613 15.3306 25.061 15.2463C25.0568 15.1617 25.0568 15.0836 25.0523 15.0142C25.0496 14.9448 25.041 14.8837 25.0323 14.834C25.0236 14.7842 25.0129 14.7455 25.0003 14.7205C24.9342 14.7464 24.878 14.5864 24.8154 14.6293C24.8044 14.6254 24.7903 14.6731 24.7819 14.6111C24.7733 14.6117 24.7625 14.6576 24.7541 14.6356C24.7502 14.6353 24.7463 14.6457 24.7451 14.6802C24.7431 14.7285 24.7386 14.7777 24.7353 14.8262C24.7326 14.8748 24.7302 14.923 24.7296 14.9695C24.723 15.0368 24.7164 15.1051 24.7096 15.1745C24.7063 15.209 24.7003 15.2439 24.6943 15.2787C24.6886 15.3136 24.6826 15.3488 24.6767 15.3839C24.671 15.4191 24.6638 15.4542 24.6572 15.4897C24.6509 15.5251 24.6408 15.5603 24.633 15.5957C24.6162 15.6666 24.5977 15.7372 24.5782 15.8081C24.4942 16.0903 24.3778 16.367 24.2361 16.6193L24.135 16.7671L24.0844 16.8401L24.0306 16.9113C23.9947 16.9581 23.9591 17.0051 23.9232 17.0519C23.8864 17.0981 23.8469 17.1425 23.8095 17.1875C23.7365 17.2786 23.6522 17.3623 23.5741 17.4478L23.5445 17.4797L23.5131 17.5104L23.4497 17.5709C23.4066 17.6105 23.3662 17.6516 23.3214 17.6888C23.2424 17.7392 23.1721 17.7952 23.1018 17.8506C23.03 17.9045 22.9654 17.9638 22.8987 18.0204C22.8305 18.0755 22.7671 18.1342 22.6983 18.1864C22.6636 18.212 22.6286 18.237 22.5927 18.2608C22.5565 18.2841 22.5224 18.3088 22.4829 18.3276C22.4279 18.3559 22.3741 18.3845 22.3208 18.4137L22.281 18.4357L22.2401 18.456L22.1596 18.4977C22.0546 18.5558 21.9451 18.6058 21.8407 18.6603C21.7872 18.6856 21.7325 18.7092 21.6789 18.7336C21.652 18.7458 21.626 18.7586 21.5988 18.77L21.5162 18.8015C21.4612 18.8224 21.4079 18.845 21.3517 18.862C21.2952 18.8784 21.2395 18.8957 21.183 18.9103C20.8806 18.9803 20.5881 19.0571 20.2988 19.1194C20.2623 19.1263 20.2273 19.137 20.1908 19.1429C20.1546 19.1492 20.1184 19.1555 20.0823 19.1614C20.0464 19.1674 20.0105 19.1733 19.9749 19.1793C19.9387 19.1829 19.9028 19.1864 19.8669 19.19C19.8313 19.1936 19.7957 19.1972 19.7604 19.2007C19.7251 19.204 19.6892 19.2034 19.6539 19.2046C19.5833 19.2049 19.5142 19.2082 19.4448 19.1998C19.3886 19.266 19.3348 19.3148 19.2552 19.2651C19.1906 19.2502 19.1305 19.2505 19.0718 19.2591C19.0425 19.2639 19.0132 19.269 18.9839 19.2746C18.9546 19.2806 18.9253 19.2877 18.8957 19.2952C18.8613 19.294 18.8269 19.2937 18.7925 19.2934C18.7581 19.291 18.7237 19.2892 18.6893 19.2877C18.6205 19.2853 18.5514 19.2877 18.4826 19.2821C18.4138 19.2779 18.3447 19.2776 18.2759 19.2728C18.2071 19.2681 18.1383 19.2633 18.0695 19.2585C18.0013 19.2493 17.9331 19.2418 17.8649 19.2341C17.7967 19.2252 17.73 19.2103 17.6633 19.1975L17.6131 19.1879C17.5963 19.1844 17.5802 19.1796 17.5637 19.1754C17.5311 19.1665 17.4985 19.1572 17.4659 19.1483C17.4336 19.1388 17.401 19.1304 17.3696 19.1185C17.3382 19.1063 17.3071 19.0944 17.276 19.0822C17.2682 19.0565 17.2532 19.0494 17.232 19.0747C17.1734 19.1489 17.1461 19.1286 17.124 19.0926C17.1016 19.0568 17.0827 19.0098 17.0328 19.0333C16.9867 19.0509 16.9469 19.0503 16.9116 19.0387C16.8769 19.0256 16.8464 19.0029 16.8159 18.9803C16.7857 18.9576 16.7555 18.935 16.7217 18.9213C16.6882 18.9064 16.6511 18.8995 16.6044 18.9109C16.5733 18.9255 16.5339 18.8972 16.5174 18.8587C16.3266 18.7768 16.1262 18.6895 15.9323 18.5802L15.8582 18.5409C15.8339 18.5272 15.8103 18.512 15.7861 18.4977C15.7382 18.4685 15.6895 18.4396 15.6413 18.4095C15.5489 18.3448 15.452 18.2835 15.3646 18.2111L15.2976 18.1583L15.2641 18.1318L15.2324 18.1035C15.1902 18.0654 15.1484 18.0276 15.1062 17.9897C15.0846 17.9713 15.0655 17.9507 15.0461 17.9304L14.9877 17.8697C14.9491 17.8292 14.9103 17.7889 14.8762 17.7454C14.8409 17.7025 14.8065 17.6599 14.7724 17.617C14.7398 17.5733 14.7099 17.528 14.6793 17.4836C14.6644 17.4612 14.6497 17.4392 14.6348 17.4168C14.6204 17.3945 14.6082 17.371 14.5947 17.3483C14.5684 17.3027 14.543 17.2572 14.5187 17.2122C14.4532 17.2208 14.51 17.1309 14.435 17.1601C14.4072 17.1708 14.3847 17.1586 14.3874 17.138C14.3575 17.076 14.3369 17.0081 14.3087 16.945C14.2803 16.8818 14.2367 16.827 14.1655 16.7853C14.1368 16.776 14.1251 16.7337 14.1299 16.6992C14.1335 16.6748 14.135 16.6441 14.1116 16.636C14.0479 16.6068 14.0437 16.5559 14.0377 16.5064C14.0324 16.4564 14.0261 16.4072 13.9669 16.3715C13.8909 16.3331 13.9017 16.2851 13.9235 16.2356C13.9346 16.2109 13.9483 16.1853 13.9555 16.1594C13.9627 16.1335 13.963 16.1075 13.9504 16.0801C13.9304 15.9994 13.8529 16.1037 13.8281 16.0381C13.82 15.9991 13.8053 15.9586 13.7889 15.9172C13.7727 15.8758 13.7584 15.8329 13.7437 15.7906C13.7297 15.7483 13.7174 15.7062 13.7102 15.666C13.7042 15.6255 13.706 15.5865 13.7156 15.551C13.7416 15.5069 13.7291 15.476 13.706 15.4462C13.6947 15.4313 13.6806 15.4167 13.6674 15.4009C13.6552 15.3851 13.6441 15.3681 13.6369 15.3491L13.6396 15.3511L13.6435 15.3517ZM13.397 13.5404C13.3958 13.4871 13.4138 13.4815 13.4204 13.491C13.4273 13.5008 13.4273 13.5264 13.3955 13.5378L13.3967 13.5401L13.397 13.5404ZM13.6435 15.3517L13.6417 15.302C13.698 15.3219 13.6833 15.3547 13.6405 15.3499L13.6432 15.352L13.6435 15.3517Z" fill="#777E5C"/>
<path d="M7.39875 34.5536C7.11249 34.4368 7.42417 34.3373 7.52766 34.2247C7.6521 34.1225 7.65449 34.0391 7.63654 33.9476C7.62757 33.9021 7.61351 33.8547 7.60723 33.8029C7.60184 33.7516 7.60424 33.6956 7.62667 33.6322C7.66376 33.5735 7.74243 33.5586 7.73525 33.4516C7.73196 33.3822 7.76666 33.297 7.8187 33.2988C7.95839 33.303 7.85011 33.2076 7.87105 33.1665C7.92549 33.0652 7.98112 32.9613 8.04573 32.874C8.11034 32.7867 8.18931 32.7203 8.28472 32.6905C8.35232 32.652 8.35292 32.5978 8.34574 32.5516C8.33826 32.5052 8.32092 32.4655 8.34844 32.4545C8.47466 32.4483 8.39031 32.2811 8.43099 32.2162C8.59401 31.965 8.70289 31.8897 8.76241 31.8384C8.82163 31.7866 8.82941 31.7571 8.80279 31.5995C8.87189 31.4053 8.88056 31.7065 8.93979 31.6776C8.99572 31.5596 9.06661 31.4369 9.14647 31.3144C9.18685 31.2536 9.22903 31.1926 9.2721 31.1315L9.33701 31.04C9.35944 31.0102 9.38218 30.9805 9.40461 30.951L9.40341 30.9569C9.4079 30.855 9.48687 30.8017 9.56822 30.7427C9.65168 30.6855 9.73573 30.6215 9.75816 30.4961C9.77671 30.429 9.86554 30.3638 9.93703 30.3137C10.1219 30.1981 10.1231 30.0033 10.3049 29.8549C10.3764 29.7829 10.4596 29.7236 10.5386 29.6595C10.6187 29.5967 10.6938 29.5287 10.7473 29.4349C10.7883 29.3899 10.8508 29.3679 10.9136 29.3419C10.9759 29.3154 11.0369 29.2839 11.0773 29.2198C11.1742 29.1021 11.2774 29.0193 11.4063 28.957C11.4739 28.9085 11.54 28.8564 11.6058 28.8018C11.6387 28.7747 11.6716 28.7473 11.7045 28.7199L11.8059 28.641C11.8738 28.5885 11.9426 28.537 12.0135 28.4896C12.085 28.4432 12.1595 28.4017 12.2363 28.3666C12.2668 28.3562 12.297 28.3416 12.3273 28.3243C12.3578 28.3073 12.3886 28.2882 12.4191 28.2671C12.4804 28.2251 12.5408 28.1756 12.6006 28.13C12.7212 28.0404 12.8387 27.9641 12.938 27.9689C12.9584 27.9888 12.9587 28.0201 13.0218 27.9352C13.0538 27.8938 13.1014 27.8581 13.1567 27.8253C13.212 27.7928 13.2743 27.7609 13.3386 27.732C13.4672 27.6745 13.5958 27.6123 13.6742 27.5321C13.7041 27.5012 13.7696 27.4803 13.8213 27.4565C14.0992 27.3457 14.3717 27.2524 14.6376 27.1592C14.7716 27.1151 14.9053 27.0749 15.0372 27.032C15.1703 26.9923 15.3031 26.9548 15.4363 26.919C15.9693 26.7784 16.5119 26.6721 17.1035 26.6402C17.1699 26.633 17.2384 26.6238 17.3072 26.619C17.376 26.614 17.4448 26.6101 17.5118 26.6092C17.5788 26.6092 17.6434 26.6095 17.7047 26.6202C17.7661 26.6307 17.8235 26.6468 17.8749 26.6712C17.9288 26.7007 17.933 26.6637 17.9416 26.6441C17.9291 26.6056 17.9736 26.6062 18.0302 26.6095C18.0867 26.6137 18.1549 26.6223 18.1902 26.5961C18.314 26.6 18.4376 26.6027 18.5611 26.6107C18.6846 26.6176 18.8079 26.6256 18.9308 26.6381C19.054 26.6503 19.1764 26.659 19.299 26.6751L19.4824 26.6968C19.5129 26.7004 19.5434 26.704 19.5739 26.7081L19.6654 26.7227L19.8476 26.7516C19.9083 26.7612 19.9687 26.7707 20.0292 26.7826C20.15 26.8058 20.2705 26.8258 20.3905 26.8514C20.5104 26.8782 20.6301 26.9033 20.7491 26.9319C20.8682 26.9619 20.9866 26.9908 21.1045 27.0218C21.2217 27.0549 21.339 27.0883 21.4565 27.1213C21.5756 27.158 21.6946 27.1946 21.8137 27.2313C21.9315 27.2706 22.0494 27.3099 22.1675 27.3492C22.2851 27.3888 22.4014 27.432 22.5178 27.4741C22.9814 27.6492 23.4355 27.8411 23.8749 28.0577C23.9105 28.0609 23.9461 28.0654 23.9811 28.072C24.0161 28.0788 24.0508 28.0874 24.0851 28.097C24.1542 28.1166 24.2227 28.1393 24.2903 28.1664C24.4249 28.2224 24.556 28.2945 24.6858 28.3669C24.8147 28.4417 24.9427 28.5179 25.0713 28.585C25.1356 28.6183 25.2005 28.6487 25.2667 28.6749C25.3322 28.7023 25.3983 28.7259 25.4668 28.7411C25.6038 28.7703 25.7704 28.8138 25.8075 29.0041C25.8311 29.1254 26.0052 29.0029 25.9773 29.1852C25.9711 29.2255 26.0608 29.1528 26.1069 29.1552C26.2397 29.199 26.3809 29.252 26.5149 29.3181C26.5813 29.3524 26.6456 29.3902 26.7075 29.4283C26.7383 29.4477 26.7685 29.4677 26.7969 29.4891C26.8253 29.5109 26.8526 29.5332 26.8786 29.5564C26.9249 29.6947 27.0216 29.4984 27.0688 29.597C27.1295 29.6911 27.1995 29.7635 27.2776 29.8198C27.3566 29.8749 27.4388 29.9214 27.5301 29.9527C27.6213 29.9839 27.7158 30.0096 27.8127 30.0325L27.9593 30.0659L28.1052 30.1019C28.1633 30.1514 28.2192 30.2032 28.2722 30.258C28.3254 30.3125 28.3783 30.3668 28.434 30.4156C28.4902 30.4639 28.5458 30.5107 28.6096 30.5458C28.6721 30.5821 28.7436 30.6054 28.8213 30.6185C28.9206 30.687 29.1151 30.6802 29.1297 30.8232C29.1408 30.9247 29.2012 30.9539 29.2664 30.9754C29.3298 30.998 29.3983 31.0117 29.424 31.0767C29.4543 31.1324 29.4474 31.2084 29.4534 31.2733C29.459 31.3385 29.4788 31.3916 29.5652 31.4017C29.6918 31.419 29.777 31.4988 29.8646 31.5763C29.8865 31.5959 29.9092 31.6144 29.9319 31.6329C29.9544 31.6516 29.9777 31.6695 30.0025 31.6853C30.0519 31.7175 30.1072 31.7425 30.1736 31.7541C30.1907 31.8212 30.2218 31.8742 30.2652 31.9168C30.3076 31.96 30.3621 31.9931 30.4183 32.0258C30.5302 32.0917 30.6639 32.1444 30.7524 32.2427C30.7964 32.271 30.8377 32.3026 30.8765 32.3368C30.9157 32.3708 30.9501 32.4092 30.9848 32.4474C31.0186 32.4864 31.0521 32.5257 31.0859 32.5647C31.1182 32.6047 31.1505 32.6446 31.1828 32.6842C31.2151 32.7235 31.2483 32.762 31.283 32.7983C31.3171 32.8352 31.3518 32.871 31.3895 32.9035C31.4652 32.9687 31.551 33.0226 31.6536 33.0602C31.7936 33.067 31.7616 33.1266 31.7248 33.1871C31.6713 33.3101 31.7637 33.3506 31.8702 33.3956C31.8965 33.4069 31.924 33.4183 31.9495 33.4317C31.9746 33.4451 31.9982 33.4603 32.0189 33.4778C32.0601 33.5127 32.0871 33.5586 32.0826 33.6235C32.1125 33.7099 32.1914 33.7683 32.2758 33.8285C32.2967 33.8437 32.3177 33.8589 32.3383 33.875C32.3581 33.8913 32.3772 33.9086 32.3946 33.9268C32.4292 33.9637 32.4601 34.0039 32.4774 34.0528C32.5235 34.0987 32.5698 34.1452 32.6168 34.1919C32.6641 34.239 32.7137 34.2852 32.7631 34.3319C32.8115 34.3793 32.8612 34.4264 32.9129 34.472C32.9389 34.4946 32.965 34.5175 32.991 34.5399C33.0167 34.5628 33.0424 34.5855 33.0676 34.6078C33.0697 34.6683 33.0936 34.724 33.1304 34.7782C33.1666 34.8324 33.2123 34.8867 33.2653 34.9397C33.2919 34.9662 33.3185 34.9933 33.3454 35.0201C33.3721 35.0472 33.3972 35.0755 33.4217 35.1038C33.4708 35.1604 33.5147 35.2188 33.5452 35.2796C33.7259 35.5078 33.8826 35.7506 34.0208 36.0026C34.057 36.0649 34.0896 36.1286 34.1219 36.193L34.2191 36.3854C34.2802 36.5153 34.3451 36.6446 34.401 36.7775L34.4913 36.9753L34.5781 37.1755L34.6227 37.2759L34.6663 37.3769L34.7564 37.5795C34.7845 37.6477 34.8141 37.7159 34.8455 37.7844L34.8927 37.8872L34.9379 37.9909C34.9684 38.0603 34.9998 38.1297 35.0336 38.1991L35.1302 38.41C35.2373 38.6442 35.3328 38.8903 35.4297 39.1429C35.4781 39.2707 35.5266 39.3988 35.5753 39.5272C35.6247 39.6568 35.6693 39.7885 35.7189 39.9207C35.9184 40.4498 36.1272 40.9995 36.3399 41.5444C36.3635 41.5846 36.3497 41.5336 36.3246 41.4288C36.3123 41.3763 36.2938 41.3105 36.2774 41.236C36.2609 41.1615 36.2394 41.0784 36.2169 40.9908C36.1948 40.9035 36.1754 40.8118 36.1535 40.7203C36.1305 40.6289 36.1057 40.5377 36.0856 40.4507C36.0755 40.4072 36.0662 40.3649 36.0557 40.3241C36.0449 40.2833 36.0345 40.2443 36.0249 40.207C36.0052 40.1329 35.9872 40.067 35.972 40.0134C35.9573 39.896 35.9462 39.7798 35.9352 39.6628C35.9325 39.6336 35.9298 39.6041 35.9271 39.5746C35.9235 39.5451 35.9199 39.5156 35.9163 39.4861C35.9088 39.4271 35.9017 39.3672 35.8942 39.307C35.8637 39.066 35.8218 38.8149 35.744 38.5438C35.6968 38.0234 35.6782 37.4826 35.5676 36.9467C35.5421 36.8555 35.5236 36.765 35.5056 36.675C35.4859 36.5856 35.4674 36.4966 35.4464 36.4078L35.43 36.3414C35.4237 36.3193 35.4168 36.2976 35.4099 36.2758C35.3959 36.2323 35.3803 36.1888 35.3624 36.1459C35.3444 36.103 35.3247 36.0601 35.3016 36.0181C35.2777 35.9764 35.2505 35.935 35.22 35.8945C35.2358 35.8111 35.2065 35.7437 35.1676 35.6803C35.1273 35.6171 35.0782 35.5573 35.0606 35.484C35.0953 35.3577 35.0232 35.2581 34.9454 35.1509C34.92 35.1163 34.8898 35.0731 34.8682 35.0314C34.847 34.9897 34.8374 34.948 34.8584 34.9144C34.8593 34.7112 34.7931 34.4937 34.7127 34.2753C34.6322 34.0567 34.5383 33.8371 34.4889 33.6179C34.4181 33.5461 34.3678 33.4638 34.3265 33.376C34.2835 33.289 34.25 33.1957 34.2165 33.101C34.183 33.0062 34.145 32.9127 34.0989 32.8221C34.0534 32.7313 33.9927 32.6482 33.9132 32.5764C33.8426 32.4727 33.7842 32.3663 33.7346 32.2561C33.6858 32.145 33.6413 32.0333 33.5958 31.921C33.5728 31.865 33.5509 31.8081 33.5249 31.7535C33.4992 31.6987 33.472 31.6448 33.4423 31.5918C33.384 31.4848 33.3116 31.3853 33.2204 31.2959C33.0846 31.2319 33.0272 31.1249 32.9832 31.0037C32.9401 30.8818 32.9039 30.7514 32.8115 30.6492C32.7586 30.5631 32.6898 30.4859 32.6183 30.4097C32.5821 30.3718 32.5456 30.334 32.5091 30.2959C32.472 30.2586 32.4343 30.2217 32.3981 30.1838C32.2546 30.031 32.1239 29.874 32.0769 29.6589C31.9806 29.6676 31.9082 29.6419 31.8499 29.5943C31.7915 29.5469 31.7488 29.4757 31.709 29.3986C31.6306 29.2424 31.5744 29.0464 31.4724 28.927C31.4347 28.8757 31.3883 28.8346 31.3384 28.7986C31.2881 28.7631 31.2334 28.7336 31.1798 28.7026C31.1263 28.6719 31.074 28.6404 31.027 28.6019C30.9797 28.5638 30.937 28.5206 30.9044 28.4634C30.6731 28.54 30.73 28.3606 30.7204 28.2492C30.7153 28.201 30.6672 28.1539 30.5981 28.1053C30.529 28.0565 30.4389 28.0064 30.3471 27.9555C30.2556 27.9039 30.1653 27.8467 30.0941 27.7848C30.0229 27.7228 29.9729 27.6525 29.9645 27.5697C29.9391 27.4031 29.7031 27.4317 29.588 27.3361C29.5446 27.292 29.5263 27.2226 29.5009 27.1589C29.4755 27.0948 29.4432 27.0361 29.3717 27.0156C29.2479 27.0236 29.156 26.9551 29.0678 26.8836C28.9799 26.8124 28.8958 26.7382 28.7896 26.7436C28.6858 26.7796 28.6072 26.7308 28.5303 26.6691C28.4531 26.6086 28.3762 26.5374 28.2829 26.5258C28.2306 26.3384 28.1026 26.193 27.9425 26.0855C27.863 26.031 27.7738 25.9899 27.6835 25.9553C27.5929 25.9213 27.5001 25.8954 27.4092 25.882C27.2902 25.8734 27.1882 25.8376 27.0939 25.7897C26.9991 25.7429 26.9121 25.6842 26.8247 25.6264C26.7377 25.568 26.6492 25.5144 26.5534 25.4751C26.4577 25.436 26.3548 25.4119 26.2373 25.4206C26.0865 25.3687 25.9576 25.2916 25.8179 25.2308C25.6791 25.1685 25.5323 25.1134 25.3504 25.1039C25.2134 25.1048 25.1799 24.8679 25.0169 24.8626C24.8482 24.9007 24.7088 24.8575 24.5718 24.8033C24.4354 24.7473 24.3023 24.6773 24.1533 24.6579C24.0457 24.643 23.9673 24.6472 23.8773 24.6746C23.8479 24.6838 23.8381 24.7786 23.7926 24.699C23.7274 24.5858 23.6012 24.5843 23.5064 24.618C23.2632 24.5873 22.9629 24.5784 22.6709 24.5596C22.379 24.5408 22.0945 24.514 21.8777 24.4464C21.7296 24.3856 21.5947 24.4997 21.4523 24.4276C21.3761 24.4109 21.2986 24.3996 21.2196 24.3966C21.1407 24.3937 21.0608 24.3957 20.9803 24.4008C20.8197 24.4094 20.657 24.438 20.4958 24.4631C20.1733 24.5146 19.8584 24.5688 19.5616 24.5393C19.4354 24.6475 19.2631 24.5894 19.1258 24.629C18.9224 24.6889 18.9784 24.6245 19.0104 24.5673C19.0286 24.5352 19.0182 24.497 18.973 24.5292C18.8659 24.6046 18.7621 24.5498 18.6625 24.5927C18.53 24.6025 18.4109 24.6216 18.2943 24.6508C18.2653 24.6582 18.2363 24.6662 18.2075 24.6755C18.1788 24.6853 18.1501 24.696 18.1211 24.7077C18.0634 24.7309 18.005 24.758 17.9452 24.7899C17.8995 24.7991 17.8534 24.8072 17.8067 24.814C17.7604 24.8218 17.7137 24.8295 17.667 24.8361C17.5731 24.8492 17.4786 24.8626 17.3835 24.876C17.2887 24.8915 17.1938 24.909 17.0993 24.9311C17.0521 24.9421 17.0051 24.9543 16.9584 24.9683C16.9121 24.9835 16.8657 24.9996 16.8197 25.0172C16.6333 25.0794 16.7135 25.0276 16.7266 24.9901C16.7093 24.9555 16.6435 24.9939 16.5672 25.036C16.4909 25.0791 16.4048 25.128 16.3435 25.1143C16.2672 25.1122 16.2077 25.1363 16.1502 25.1629C16.0934 25.1909 16.039 25.2216 15.9714 25.2335C15.759 25.2519 15.5418 25.3452 15.3334 25.4363C15.2296 25.4837 15.127 25.5284 15.0277 25.565C14.9281 25.6014 14.8326 25.6327 14.7399 25.6449C14.6562 25.6398 14.1261 25.8212 13.6356 26.031C13.1435 26.2371 12.6946 26.4746 12.7361 26.5014C12.7122 26.5324 12.656 26.5574 12.6461 26.5362C12.6126 26.4826 12.5277 26.5255 12.431 26.5866C12.3829 26.6173 12.3308 26.6506 12.2821 26.6819C12.233 26.7126 12.1861 26.7385 12.1451 26.7492C11.948 26.807 11.8678 26.9417 11.7012 27.0147C11.6892 27.02 11.6647 27.0451 11.665 27.0522C11.6671 27.0859 11.6638 27.1145 11.6411 27.1335C11.619 27.1532 11.5777 27.1636 11.5029 27.1604C11.4129 27.2214 11.3429 27.2634 11.283 27.295C11.2238 27.3275 11.1763 27.3507 11.1299 27.371C11.0835 27.3915 11.0393 27.41 10.9878 27.435C10.9621 27.4475 10.9346 27.4615 10.9044 27.4782C10.8745 27.4955 10.8419 27.5155 10.8051 27.539C10.7171 27.6159 10.6259 27.7168 10.535 27.7392C10.3854 27.7645 10.3208 27.8664 10.2158 27.9206C10.1557 27.9266 10.0878 27.9042 10.0636 28.0145C9.96036 28.0815 9.85567 28.1581 9.75278 28.2436C9.64928 28.3282 9.54459 28.4187 9.4405 28.5129C9.38816 28.5593 9.33491 28.6061 9.28137 28.6523C9.22753 28.6985 9.17489 28.7464 9.12015 28.792C9.06571 28.8379 9.00978 28.882 8.95265 28.9243C8.89611 28.9672 8.83898 29.0095 8.77976 29.0485C8.74775 29.1132 8.6972 29.1632 8.63828 29.2043C8.58025 29.2466 8.51444 29.2809 8.45073 29.3133C8.38732 29.3458 8.3266 29.3768 8.28114 29.4131C8.23627 29.4504 8.20576 29.4924 8.20336 29.5472C8.17136 29.6613 8.26737 29.5698 8.33168 29.5237C8.30985 29.4638 8.41723 29.3434 8.48393 29.3783C8.27844 29.5216 8.3278 29.6956 8.13935 29.6944C8.04035 29.7361 7.9225 29.8061 7.80584 29.8907C7.68829 29.9741 7.57822 30.0778 7.49387 30.1835C7.46665 30.2258 7.43584 30.2649 7.40323 30.3021C7.37123 30.3399 7.33653 30.3754 7.30034 30.4091C7.22795 30.4773 7.14719 30.5378 7.06942 30.6003C6.91418 30.7257 6.75685 30.8488 6.67429 31.0237C6.64737 31.0826 6.61477 31.1321 6.57768 31.1756C6.54089 31.2191 6.5014 31.2575 6.45893 31.2924C6.37458 31.3624 6.27976 31.4187 6.1984 31.4899C6.18165 31.6505 6.04824 31.6797 5.94296 31.7485C5.82361 31.7932 5.76767 31.876 5.71503 31.965C5.66149 32.0538 5.61513 32.1512 5.50475 32.2242C5.23944 32.3887 5.23854 32.3943 5.06685 32.7083C5.00912 32.792 4.87871 32.8558 4.77342 32.9288C4.72077 32.9651 4.67531 33.0039 4.65138 33.0488C4.62685 33.0935 4.62266 33.1439 4.65228 33.2032C4.6792 33.2493 4.64779 33.3575 4.5778 33.3932C4.39145 33.4906 4.35256 33.7898 4.11148 33.8204C4.06781 33.9488 4.0032 34.0665 3.93111 34.1815C3.89462 34.2387 3.85514 34.2947 3.81356 34.3498C3.77168 34.4049 3.72801 34.4595 3.68524 34.5146C3.59939 34.6248 3.50667 34.7329 3.42531 34.847C3.34515 34.9614 3.27007 35.0794 3.21384 35.2048C3.18542 35.245 3.15491 35.2975 3.1232 35.3588C3.10735 35.3895 3.0912 35.4226 3.07445 35.4572C3.07026 35.4658 3.06607 35.4747 3.06189 35.4837C3.0568 35.495 3.05172 35.5066 3.04663 35.5182C3.04155 35.5298 3.03616 35.5418 3.03108 35.554L3.0233 35.5721C3.0233 35.5754 3.01762 35.5778 3.01433 35.5805L3.00296 35.5882L2.97993 35.604L2.97424 35.6079C2.97215 35.6091 2.97036 35.6106 2.97036 35.6124L2.96677 35.6231C2.96198 35.6374 2.95719 35.652 2.95241 35.6666C2.94284 35.6958 2.93327 35.7253 2.92339 35.7551C2.90425 35.8146 2.88451 35.8754 2.86477 35.9371C2.84503 35.9985 2.82529 36.0604 2.80524 36.1224L2.77533 36.215C2.76427 36.246 2.75111 36.277 2.73914 36.3077C2.69009 36.4304 2.64133 36.5508 2.59347 36.6634C2.56954 36.7197 2.54591 36.7745 2.52228 36.8266C2.50045 36.88 2.48071 36.9318 2.46007 36.9801C2.37871 37.174 2.30004 37.3209 2.22676 37.3822C2.06314 37.4743 2.03652 37.6265 2.02994 37.7767C2.02695 37.8521 2.02994 37.9277 2.02515 37.9998C2.02097 38.0719 2.00422 38.141 1.98029 38.2033C1.82923 38.3633 1.74608 38.5414 1.69703 38.7211C1.68476 38.766 1.67459 38.811 1.66592 38.8563C1.65605 38.9019 1.64767 38.9475 1.64049 38.9931C1.62614 39.0839 1.61567 39.1742 1.6052 39.2636C1.59473 39.3526 1.58396 39.4408 1.56871 39.5281C1.55525 39.616 1.537 39.7033 1.50948 39.7912C1.45414 39.9669 1.36112 40.1451 1.19212 40.3399C1.07337 40.4805 1.07218 40.5898 1.08893 40.6855C1.15503 40.8341 1.08085 41.0099 0.987825 41.2074C0.895399 41.4028 0.784427 41.612 0.785325 41.7788C0.795794 41.8375 0.796691 41.8989 0.790409 41.9671C0.783829 42.0359 0.77007 42.1089 0.750926 42.1843C0.712939 42.3353 0.654312 42.4986 0.593293 42.6618C0.571458 42.7053 0.552015 42.7473 0.535265 42.7878C0.52689 42.8081 0.519113 42.8283 0.511934 42.848L0.501465 42.8775C0.505054 42.8814 0.512532 42.8823 0.517916 42.8844C0.566074 42.9001 0.624999 42.9088 0.690206 42.913C0.820919 42.921 0.977057 42.9103 1.12661 42.8984C1.42693 42.8748 1.69822 42.8471 1.7398 42.9657C1.98537 43.0285 2.315 43.1197 2.68949 43.1903C3.06278 43.2606 3.48035 43.3107 3.86561 43.2865C3.88864 43.2979 3.91376 43.3065 3.94128 43.3136C3.9697 43.3208 4.00021 43.3265 4.03191 43.3306C4.09533 43.3393 4.16352 43.3437 4.23202 43.3485C4.36872 43.3583 4.50481 43.3702 4.60771 43.4248C4.66424 43.4587 4.7797 43.4379 4.8814 43.4325C4.9834 43.4271 5.07193 43.4379 5.0851 43.5359C5.22628 43.4879 5.38002 43.5162 5.53466 43.5314C5.68841 43.5466 5.84186 43.5484 5.963 43.4447C6.03359 43.3845 6.21276 43.3985 6.29531 43.4307C6.46132 43.4957 6.65784 43.5135 6.85047 43.5362C6.94708 43.5475 7.0428 43.56 7.13553 43.5803C7.18189 43.5904 7.22735 43.6023 7.27192 43.6172C7.29376 43.6247 7.31739 43.6327 7.33683 43.6416C7.3476 43.65 7.35807 43.6595 7.36854 43.6696C7.41669 43.717 7.49985 43.7411 7.53125 43.6774C7.61919 43.4995 7.69726 43.571 7.819 43.6521C8.00864 43.8132 8.20606 43.8198 8.40945 43.7942C8.61285 43.7689 8.82223 43.7114 9.0349 43.7501C9.25086 43.8752 9.49315 43.835 9.70671 43.8731C9.90054 44.0245 10.1371 44.0399 10.3815 44.0334C10.6259 44.028 10.8786 43.9947 11.1045 44.0596C11.2457 44.1329 11.3955 44.1678 11.5508 44.1809C11.706 44.1925 11.8663 44.1821 12.0284 44.1678C12.1906 44.1535 12.3542 44.1353 12.516 44.1302C12.6778 44.1234 12.8375 44.1302 12.9919 44.1686C13.4696 44.289 13.9517 44.3575 14.4354 44.4106C14.9194 44.454 15.4048 44.4829 15.8906 44.4925C16.012 44.4958 16.1332 44.4987 16.2546 44.502L16.4365 44.5068L16.6184 44.5092C16.8606 44.5124 17.1026 44.5169 17.3437 44.5252L17.5244 44.5321L17.705 44.5375C17.8253 44.5416 17.9455 44.5467 18.0652 44.5532C18.3048 44.5655 18.5435 44.5863 18.781 44.6087C19.2862 44.544 19.8628 44.6617 20.3438 44.5458C20.5362 44.4758 20.7315 44.4499 20.9289 44.4415C21.126 44.432 21.3252 44.4415 21.5241 44.4466C21.9223 44.4594 22.3213 44.4439 22.7077 44.2491C22.898 44.2693 23.0885 44.2789 23.2793 44.286C23.4702 44.292 23.6613 44.2956 23.853 44.2914C24.2362 44.2833 24.6206 44.2637 25.0064 44.2315C25.7775 44.1722 26.5537 44.0823 27.3341 44.0218C27.5271 43.9705 27.717 43.9422 27.9057 43.9223C28.0948 43.9011 28.2826 43.8895 28.4714 43.8764C28.6601 43.8642 28.8497 43.8457 29.0421 43.8186C29.1384 43.8049 29.2353 43.7888 29.3328 43.768C29.4306 43.7468 29.5293 43.7221 29.6292 43.6926C29.7384 43.6556 29.8503 43.6217 29.9645 43.5901C30.0785 43.5576 30.1949 43.5261 30.3121 43.4978C30.5469 43.4406 30.7865 43.3923 31.0249 43.3509C31.263 43.3116 31.5002 43.269 31.7296 43.2356C31.9587 43.2013 32.1804 43.173 32.3874 43.148C32.5558 43.0923 32.7385 43.042 32.9309 42.994C33.0269 42.9699 33.1253 42.9466 33.2255 42.9234C33.2754 42.9118 33.326 42.9004 33.3768 42.8885C33.4277 42.876 33.4788 42.8635 33.53 42.851C33.7355 42.8006 33.9449 42.7494 34.1527 42.6985C34.2565 42.6734 34.3603 42.6439 34.4629 42.6156C34.5655 42.5864 34.6669 42.5575 34.7668 42.5292C34.9663 42.4726 35.159 42.4095 35.3393 42.3481C35.4294 42.3174 35.5164 42.2873 35.5996 42.2576C35.6827 42.2269 35.762 42.1962 35.8371 42.1667C35.9866 42.108 36.1182 42.0532 36.2262 42.0014C36.3342 41.9498 36.4185 41.9054 36.4739 41.8631C36.4604 41.8262 36.4727 41.7842 36.4972 41.7443C36.5217 41.704 36.5582 41.6659 36.5938 41.6316C36.6294 41.5971 36.6635 41.5667 36.6833 41.5369C36.703 41.5071 36.7087 41.4779 36.6868 41.4419C36.6916 41.4311 36.668 41.4142 36.6602 41.3999C36.6524 41.3859 36.6608 41.3745 36.7296 41.3814C36.7293 41.365 36.6288 41.3165 36.6779 41.3111C36.6788 41.3033 36.6563 41.2887 36.5798 41.2634C36.4733 41.228 36.3647 41.1884 36.257 41.1505C36.1493 41.1127 36.0423 41.0799 35.9385 41.0695C34.7399 40.7513 33.3649 40.5121 32.0634 40.2297C31.7996 40.1439 31.5349 40.062 31.269 39.9928C31.0031 39.924 30.7363 39.8618 30.4683 39.8043C29.9325 39.6872 29.3926 39.6011 28.8497 39.4983C28.4367 39.3526 28.0092 39.3005 27.5815 39.274C27.3676 39.2591 27.1535 39.251 26.9411 39.2358C26.7287 39.2204 26.5184 39.1965 26.3118 39.1542C25.7192 39.0377 25.1162 38.9618 24.5105 38.89C24.2075 38.8536 23.9042 38.8167 23.6009 38.7762C23.2976 38.7345 22.9949 38.6859 22.6934 38.6263C21.895 38.4562 21.0695 38.3528 20.2523 38.2539C19.8437 38.206 19.4369 38.161 19.037 38.1062C18.6368 38.0543 18.2431 37.9971 17.8609 37.9215C17.67 38.0326 17.5052 38.1044 17.3015 37.9813C17.1257 37.9355 16.9558 37.9197 16.788 37.92C16.6201 37.9209 16.4538 37.9399 16.286 37.959C14.7474 37.8294 13.1645 37.9513 11.6731 37.83C11.6312 37.7847 11.5849 37.7788 11.5493 37.8384C11.362 38.1887 11.2035 37.724 10.9845 37.8759C10.5691 38.1279 10.1706 37.718 9.75966 37.9524C9.69954 38.0046 9.56972 37.984 9.48238 37.9268C8.91107 37.9438 8.31972 37.9694 7.7197 37.9986L7.60723 38.0043L7.57911 38.0058C7.57403 38.0073 7.57163 38.0096 7.56775 38.0114L7.54681 38.0231L7.46186 38.0689C7.40473 38.0993 7.3467 38.1294 7.28807 38.1589C7.17082 38.2179 7.05118 38.2748 6.93123 38.3287L6.9088 38.3388C6.90102 38.3415 6.89234 38.3409 6.88397 38.3424L6.83402 38.3472L6.73411 38.3558C6.66771 38.3612 6.6019 38.3659 6.5373 38.3695C6.40778 38.377 6.28215 38.3811 6.1658 38.3805H6.12242L6.10119 38.38H6.09072C6.08952 38.3776 6.09162 38.3725 6.09191 38.3689C6.0985 38.3371 6.10537 38.3055 6.11196 38.2739C6.12542 38.2107 6.14247 38.1479 6.16071 38.0856C6.17836 38.0234 6.1999 37.962 6.22263 37.9018C6.24476 37.8416 6.27049 37.7829 6.29741 37.7257C6.24028 37.7388 6.2645 37.7108 6.28275 37.6885C6.301 37.6656 6.31386 37.648 6.23459 37.6718C6.17537 37.69 6.15622 37.6754 6.18943 37.6477C6.20887 37.6081 6.2337 37.567 6.25912 37.5273C6.28484 37.488 6.30967 37.4499 6.32762 37.4144C6.36381 37.3426 6.37398 37.2836 6.31087 37.2199C6.27647 37.2014 6.31236 37.1552 6.36471 37.1275C6.4018 37.1076 6.44308 37.084 6.41705 37.0665C6.35753 37.0108 6.41017 36.964 6.46132 36.9267C6.51426 36.8877 6.56511 36.8585 6.51785 36.7879C6.51247 36.782 6.50709 36.7763 6.5026 36.7709C6.49871 36.765 6.49721 36.7581 6.49512 36.7522C6.49333 36.7462 6.49183 36.7403 6.49093 36.7346C6.49004 36.7289 6.48974 36.7248 6.48974 36.7155C6.49004 36.6837 6.49751 36.6565 6.51008 36.6333C6.5349 36.5865 6.58037 36.5541 6.63062 36.524C6.73232 36.4644 6.85675 36.4164 6.88726 36.2809C6.92525 36.1939 6.88068 36.1718 6.83192 36.1525C6.78317 36.1334 6.73082 36.117 6.75685 36.0411C6.79842 35.9597 6.83043 35.8671 6.86423 35.772C6.89743 35.6767 6.93123 35.579 6.96443 35.4831C7.00122 35.3886 7.04101 35.2975 7.08557 35.2158C7.10771 35.175 7.13253 35.1372 7.16005 35.1032C7.18727 35.0693 7.21659 35.0386 7.24799 35.0124C7.3485 34.9647 7.36913 34.8914 7.37661 34.8095C7.38319 34.727 7.37242 34.634 7.39994 34.5458L7.40174 34.553L7.39875 34.5536ZM9.40341 30.9566C9.5422 30.7651 9.5419 30.979 9.40461 30.9507L9.40341 30.9566ZM7.39875 34.5536C7.41938 34.522 7.44122 34.4913 7.46276 34.4603C7.52318 34.5661 7.45767 34.6093 7.39695 34.5464L7.39875 34.5536Z" fill="#777E5C"/>
<path d="M43.842 4.678C43.9476 4.51087 43.9342 4.69795 43.962 4.7626C43.9823 4.83827 44.0173 4.84304 44.0628 4.8338C44.1076 4.82457 44.1609 4.80342 44.2099 4.83112C44.2291 4.85406 44.2174 4.90173 44.2689 4.89815C44.3024 4.89636 44.3344 4.91781 44.3203 4.95028C44.2817 5.03727 44.3553 4.96995 44.3697 4.98276C44.4038 5.01672 44.4426 5.04711 44.466 5.08822C44.4893 5.12903 44.501 5.1761 44.4863 5.23628C44.483 5.31999 44.5925 5.23628 44.5874 5.27024C44.5509 5.34948 44.6628 5.29258 44.684 5.31642C44.8479 5.50321 44.6954 5.5759 44.8958 5.52376C44.9823 5.55683 44.804 5.58007 44.7986 5.61611C44.8216 5.63041 44.8444 5.6471 44.8668 5.66497C44.8782 5.67391 44.8892 5.68314 44.9003 5.69298C44.9111 5.70281 44.9212 5.71353 44.9314 5.72396C44.9724 5.76656 45.0122 5.81303 45.051 5.85951H45.0478C45.113 5.85265 45.1115 5.89972 45.1136 5.9462C45.1157 5.99297 45.1204 6.03944 45.197 6.04153C45.2156 6.04451 45.2269 6.05762 45.2344 6.0749C45.2407 6.09277 45.2428 6.11452 45.2437 6.13418C45.2401 6.18631 45.2751 6.20627 45.3149 6.22564C45.3543 6.245 45.4004 6.26258 45.4124 6.31025C45.4345 6.3451 45.4396 6.38919 45.4522 6.42881C45.4644 6.46873 45.486 6.50359 45.5356 6.52593C45.5676 6.56555 45.4836 6.66029 45.5548 6.69127C45.6107 6.73268 45.6319 6.78243 45.6233 6.84678C45.6346 6.87836 45.6511 6.90845 45.6693 6.93854C45.6882 6.96833 45.7046 6.99901 45.7223 7.0297C45.7393 7.06068 45.7552 7.09196 45.7665 7.12473C45.7782 7.1575 45.7851 7.19117 45.7818 7.22781C45.7638 7.2859 45.8102 7.33893 45.8488 7.39196C45.8874 7.44469 45.9125 7.49772 45.8619 7.54449C45.8323 7.55462 45.7976 7.55611 45.8596 7.58202C45.9188 7.60884 45.9313 7.66425 45.9391 7.72115C45.9481 7.77805 45.9577 7.83495 46.0163 7.86951C46.0393 7.88262 46.0357 7.91181 46.0408 7.93475C46.0441 7.99642 46.0492 8.0563 46.0558 8.11528C46.0621 8.17427 46.0647 8.23296 46.0716 8.29075C46.0749 8.31965 46.0782 8.34855 46.0815 8.37715C46.0848 8.40575 46.086 8.43435 46.0884 8.46295C46.0935 8.52014 46.0985 8.57705 46.1036 8.63424C46.1063 8.69144 46.109 8.74864 46.1117 8.80614C46.1129 8.83504 46.1141 8.86393 46.1153 8.89283C46.1147 8.92173 46.1141 8.95092 46.1135 8.97982C46.1117 9.03821 46.1108 9.0972 46.106 9.15678C46.0994 9.21606 46.092 9.27624 46.083 9.33702C46.0818 9.39332 46.0776 9.4532 46.0665 9.50801C46.0546 9.56253 46.0348 9.61169 45.9912 9.64386C45.9648 9.65965 45.9924 9.66918 46.0061 9.67693C46.065 9.68289 45.99 9.74962 46.0235 9.79014C46.0061 9.89292 45.9783 9.99361 45.955 10.0955C45.9442 10.1467 45.9275 10.1965 45.9137 10.2468C45.899 10.2972 45.8856 10.3478 45.87 10.3982C45.8036 10.5972 45.7351 10.7977 45.6451 10.9898C45.6227 11.0378 45.6029 11.0875 45.5784 11.1346L45.5048 11.2764C45.4925 11.2999 45.4806 11.3241 45.4677 11.3473L45.427 11.4161L45.3451 11.5544C45.317 11.5999 45.2856 11.6437 45.2559 11.6884L45.2108 11.7552L45.188 11.7885L45.1635 11.8207L45.0651 11.9491C45.0484 11.9702 45.0328 11.9923 45.0152 12.0128L44.9619 12.0742C44.9326 12.1335 44.8967 12.1892 44.8551 12.2407C44.8118 12.2908 44.7648 12.3382 44.7178 12.3855C44.6718 12.4338 44.6203 12.4767 44.5737 12.5241C44.5261 12.5702 44.4833 12.6215 44.4403 12.6712C44.3987 12.7222 44.3466 12.785 44.285 12.7853C44.2464 12.7862 44.2342 12.861 44.1914 12.8369C44.1818 12.8315 44.1791 12.8717 44.1666 12.8893C44.0765 12.9894 43.9557 13.0868 43.8468 13.1541C43.7942 13.1619 43.8217 13.2081 43.7801 13.2188C43.7358 13.2349 43.6952 13.2563 43.6566 13.2816C43.647 13.2879 43.6374 13.2945 43.6279 13.3013C43.618 13.3076 43.6084 13.3138 43.5988 13.3204C43.5797 13.3335 43.5612 13.3475 43.5426 13.3621C43.5055 13.391 43.4696 13.4223 43.4334 13.4544C43.3972 13.4863 43.359 13.5152 43.3213 13.5453C43.1906 13.6138 43.0515 13.6534 42.9348 13.7482C42.8801 13.7741 42.8179 13.8292 42.7679 13.8301C42.697 13.8331 42.6477 13.8947 42.5872 13.9049C42.5298 13.9177 42.4969 13.89 42.4314 13.9359C42.382 13.9674 42.3255 13.9874 42.2687 14.0082C42.2403 14.0184 42.2119 14.03 42.1834 14.0407C42.155 14.0514 42.1269 14.0634 42.1 14.0786C42.0405 14.0821 41.9806 14.106 41.9175 14.1292C41.8544 14.1515 41.7886 14.1775 41.7213 14.1944C41.6702 14.2132 41.6166 14.2224 41.5634 14.2341C41.5101 14.2448 41.4566 14.2555 41.4033 14.265C41.3501 14.2731 41.2972 14.2817 41.2454 14.2925C41.1937 14.3029 41.1428 14.3172 41.0935 14.3297C41.0447 14.35 41.0306 14.3425 41.0175 14.3348C40.9834 14.3219 40.9355 14.3348 40.882 14.3485C40.8287 14.3607 40.7698 14.3705 40.716 14.3628C40.669 14.361 40.6185 14.3702 40.5658 14.375C40.5135 14.3797 40.459 14.3839 40.4049 14.3812C40.3708 14.383 40.3358 14.3854 40.3011 14.3857C40.2661 14.3857 40.2308 14.3857 40.1958 14.3857C40.1605 14.3857 40.1249 14.3863 40.0899 14.3863C40.0546 14.3869 40.0196 14.3872 39.9855 14.3854C39.9293 14.3729 39.8566 14.3702 39.7806 14.3648C39.7047 14.3592 39.6254 14.3491 39.5542 14.3377C39.4791 14.33 39.4056 14.3154 39.332 14.3014C39.2584 14.2871 39.1848 14.2728 39.113 14.2522C39.0409 14.2332 38.9686 14.2141 38.8971 14.1924C38.8265 14.1688 38.7556 14.1456 38.6853 14.1209C38.4056 14.0184 38.1346 13.893 37.8738 13.7458C37.6602 13.6207 37.4449 13.4753 37.2483 13.3099C37.199 13.2688 37.1481 13.2304 37.1018 13.1863C37.0548 13.1434 37.0082 13.1008 36.9615 13.0585C36.9139 13.0174 36.8715 12.9721 36.8278 12.9286C36.7844 12.8851 36.7411 12.8428 36.698 12.8014C36.6681 12.7823 36.7494 12.8777 36.8571 12.9965C36.8834 13.0269 36.9136 13.0564 36.9444 13.0853C36.9753 13.1145 37.0061 13.1437 37.0357 13.1717C37.0656 13.1994 37.0934 13.2268 37.12 13.2498C37.1469 13.2724 37.1709 13.2924 37.1909 13.3085C37.2328 13.346 37.2741 13.3835 37.3159 13.4211C37.3581 13.4583 37.4036 13.4926 37.4497 13.5283C37.4963 13.5632 37.543 13.6007 37.5941 13.6356C37.6456 13.6698 37.6997 13.7047 37.7568 13.7401C37.7832 13.7577 37.8089 13.7768 37.8361 13.7935C37.8633 13.8101 37.8905 13.8268 37.9178 13.8435C37.9728 13.8766 38.0278 13.9105 38.0838 13.943C38.1412 13.9734 38.1989 14.0038 38.2567 14.0345C38.2857 14.0494 38.3147 14.0651 38.3443 14.0794L38.4343 14.12C38.5187 14.1554 38.5971 14.1944 38.6802 14.2242C38.7212 14.24 38.7628 14.2555 38.8052 14.2701C38.8265 14.2773 38.848 14.2847 38.8695 14.2919C38.8914 14.299 38.9141 14.3041 38.9368 14.31C39.0027 14.3389 39.0726 14.3497 39.1414 14.3726C39.1887 14.3937 39.2452 14.4045 39.3066 14.4173C39.3463 14.4253 39.405 14.4366 39.4247 14.4483C39.5108 14.4751 39.6164 14.4992 39.7247 14.5239C39.7795 14.5338 39.8348 14.5436 39.8892 14.5534C39.9437 14.5627 39.9966 14.5755 40.0472 14.5832C40.1402 14.5865 40.2305 14.6026 40.3229 14.6142C40.4157 14.6237 40.5102 14.6368 40.6092 14.6333C40.6687 14.6336 40.7256 14.6362 40.7812 14.6401C40.809 14.6422 40.8368 14.6446 40.8643 14.6467C40.8919 14.6479 40.9194 14.6491 40.9466 14.6505C41.0561 14.655 41.1664 14.6628 41.2843 14.6479C41.3474 14.6333 41.403 14.6339 41.4593 14.6359C41.5152 14.6359 41.5714 14.6395 41.6349 14.6321C41.6806 14.6288 41.7285 14.6264 41.776 14.6178C41.8239 14.61 41.8721 14.6023 41.9199 14.5942C41.9675 14.5862 42.0153 14.582 42.0608 14.5755C42.1063 14.5698 42.1508 14.5671 42.193 14.5695C42.2471 14.5323 42.3177 14.5233 42.3919 14.5153C42.4664 14.5087 42.546 14.5102 42.6157 14.4986C42.7266 14.4775 42.8259 14.4188 42.936 14.4036C42.9845 14.3437 43.0213 14.3684 43.058 14.3744C43.0742 14.3765 43.1035 14.3687 43.1397 14.3559C43.1577 14.3494 43.1777 14.3422 43.1983 14.3336C43.2187 14.3243 43.2402 14.3148 43.262 14.305C43.3491 14.2659 43.4409 14.2287 43.4945 14.2367C43.5504 14.2412 43.6144 14.1772 43.6775 14.153C43.7296 14.1363 43.7819 14.1569 43.8363 14.1191C43.871 14.0833 43.9186 14.0628 43.9659 14.044C44.0131 14.0252 44.0601 14.0082 44.0894 13.9758C44.1298 13.9084 44.2393 13.8974 44.3021 13.8438C44.3703 13.8435 44.4483 13.8164 44.5258 13.7771C44.5641 13.7568 44.6036 13.7357 44.6386 13.7088C44.6739 13.6826 44.7071 13.6549 44.7373 13.6272C44.7738 13.5897 44.813 13.5605 44.8539 13.5346C44.894 13.5081 44.9344 13.4839 44.9751 13.4607C45.0558 13.413 45.1393 13.368 45.1964 13.2831C45.2524 13.2367 45.3092 13.1997 45.3663 13.1592C45.4228 13.1184 45.4755 13.0701 45.5272 13.007C45.5452 12.9822 45.5745 12.9742 45.605 12.9656C45.6355 12.9566 45.6681 12.9471 45.6897 12.9173C45.7208 12.8503 45.7695 12.8041 45.8231 12.7615C45.8494 12.74 45.8781 12.7204 45.9038 12.698C45.9295 12.6757 45.9544 12.6522 45.9765 12.6253C46.0085 12.5869 46.0268 12.5565 46.0402 12.5187C46.0447 12.5065 46.0151 12.4889 46.0537 12.4835C46.1096 12.4761 46.1407 12.4272 46.1515 12.3855C46.1865 12.3408 46.2233 12.2899 46.2616 12.2363C46.2711 12.2229 46.2807 12.2095 46.2906 12.1958C46.2998 12.1818 46.3088 12.1678 46.3181 12.1535C46.3366 12.1252 46.3555 12.0969 46.3743 12.0686C46.4117 12.012 46.4527 11.9577 46.4901 11.9062C46.5275 11.8547 46.5661 11.8082 46.6055 11.7703C46.6355 11.7456 46.6468 11.7149 46.6585 11.6848C46.6705 11.6551 46.6803 11.6247 46.712 11.6023C46.7608 11.5466 46.8 11.4835 46.8338 11.4167C46.8661 11.3494 46.89 11.2773 46.9151 11.2067C46.9277 11.1712 46.94 11.1358 46.9531 11.1009C46.9648 11.0655 46.9767 11.0306 46.9905 10.9967C47.0174 10.9287 47.0503 10.8641 47.0943 10.806C47.0623 10.7306 47.135 10.6708 47.1446 10.6046C47.1583 10.5069 47.184 10.5441 47.2092 10.5695C47.2235 10.5838 47.2489 10.5876 47.2415 10.562C47.2331 10.5319 47.2433 10.5087 47.2549 10.4867C47.2669 10.4646 47.2809 10.4435 47.28 10.4181C47.3076 10.3603 47.3279 10.3064 47.339 10.2507C47.3503 10.1953 47.3476 10.1369 47.3357 10.0726C47.3563 9.98646 47.3964 9.90215 47.4245 9.81397C47.4395 9.76988 47.4535 9.72549 47.4637 9.67991C47.4739 9.63463 47.4811 9.58845 47.4778 9.54079C47.4814 9.44694 47.5002 9.49223 47.5268 9.50563C47.5932 9.50385 47.4814 9.36085 47.5433 9.31288C47.5953 9.24585 47.5337 9.18925 47.5573 9.1252C47.5836 9.07605 47.595 9.02272 47.5986 8.9682C47.6004 8.91339 47.5932 8.85738 47.5866 8.80227C47.5798 8.74715 47.5726 8.69323 47.5732 8.64199C47.5717 8.59075 47.5774 8.54189 47.5992 8.49661C47.6148 8.47725 47.63 8.39919 47.6378 8.29284C47.6405 8.23981 47.6417 8.17963 47.6417 8.11618C47.6417 8.05302 47.6417 7.98629 47.6348 7.92105C47.6175 7.65889 47.5573 7.41519 47.5101 7.43664C47.4864 7.42354 47.4855 7.39315 47.5125 7.38838C47.6581 7.35412 47.4763 7.20547 47.5032 7.11788C47.5286 7.01004 47.4221 6.96744 47.4176 6.87687C47.4173 6.87032 47.4015 6.85721 47.394 6.8578C47.3219 6.86198 47.28 6.85453 47.3542 6.76992C47.333 6.72077 47.318 6.68353 47.3106 6.65105C47.3028 6.61888 47.301 6.59237 47.3001 6.56675C47.2986 6.5158 47.3031 6.46754 47.2732 6.38711C47.2337 6.34033 47.1709 6.29475 47.1885 6.24232C47.2283 6.15474 47.1583 6.12286 47.1475 6.06566C47.167 6.02991 47.2157 5.98731 47.1212 5.98165C47.1003 5.92475 47.0698 5.86874 47.0342 5.81274C46.998 5.75703 46.954 5.7031 46.9124 5.6471C46.8308 5.53419 46.7419 5.42337 46.6989 5.2905C46.6172 5.2622 46.6061 5.18504 46.5969 5.11235C46.5873 5.03996 46.5777 4.97352 46.4958 4.98037C46.4192 4.97084 46.4578 5.02268 46.4715 5.05843C46.5239 5.03966 46.5849 5.09418 46.5344 5.13916C46.5113 5.08315 46.4632 5.06558 46.4291 5.048C46.395 5.03013 46.3743 5.01285 46.4033 4.95475C46.4012 4.89845 46.386 4.83112 46.3582 4.76618C46.3444 4.734 46.3277 4.70213 46.3079 4.67323C46.2873 4.64493 46.2631 4.6196 46.2367 4.59875C46.1913 4.57283 46.1581 4.53828 46.1312 4.49865C46.1039 4.45933 46.0839 4.41434 46.0606 4.37204C46.0151 4.28684 45.969 4.20134 45.8769 4.16172C45.7486 4.11494 45.7375 3.99757 45.6843 3.90641C45.6379 3.90492 45.6164 3.88555 45.6035 3.85934C45.5907 3.83282 45.5871 3.79916 45.5757 3.77056C45.5712 3.70234 45.5317 3.67344 45.4884 3.64693C45.4665 3.63382 45.4441 3.62071 45.4237 3.60373C45.4028 3.58735 45.3846 3.56679 45.372 3.5364C45.3454 3.46401 45.3307 3.42737 45.3044 3.39787C45.2912 3.38328 45.2751 3.37017 45.2527 3.35557C45.2305 3.34068 45.2021 3.32399 45.1626 3.30403C45.124 3.27424 45.1067 3.20185 45.0798 3.14495C45.0528 3.08835 45.0175 3.04664 44.9455 3.08328C44.9167 3.09996 44.8614 3.08596 44.8503 3.04813C44.8354 2.99719 44.7887 2.96769 44.7474 2.93433C44.7065 2.90066 44.6706 2.86372 44.6751 2.79759C44.611 2.77673 44.5548 2.74426 44.5028 2.70494C44.4767 2.68527 44.4516 2.66382 44.4271 2.64148C44.402 2.61973 44.3771 2.59769 44.3526 2.57475C44.2545 2.48389 44.1585 2.382 44.0376 2.32629C44.0015 2.2959 43.9404 2.26164 43.8689 2.2253C43.7966 2.19134 43.7128 2.15767 43.6332 2.12282C43.5932 2.10614 43.5549 2.08737 43.5178 2.07217C43.481 2.05638 43.4466 2.04089 43.4167 2.0251C43.3572 1.99353 43.3153 1.96135 43.3054 1.92918C43.2937 1.7826 43.1131 1.88747 43.0482 1.82819C43.0231 1.7543 42.9794 1.70932 42.9267 1.68161C42.8738 1.6551 42.8125 1.64378 42.7527 1.63246C42.6928 1.62144 42.6345 1.60892 42.5854 1.58211C42.5361 1.5559 42.4963 1.5127 42.4736 1.43494C42.4568 1.38043 42.4191 1.37923 42.3803 1.38638C42.3444 1.40098 42.3159 1.39979 42.2911 1.38936C42.2663 1.37953 42.2451 1.36166 42.2244 1.3411C42.1834 1.30059 42.1446 1.25232 42.0859 1.25471C42.0387 1.26573 41.9962 1.25947 41.9567 1.24428C41.9169 1.22968 41.8795 1.20734 41.8433 1.18351C41.7814 1.11141 41.6947 1.11916 41.6154 1.12959C41.5356 1.1412 41.4629 1.15818 41.421 1.09384C41.377 1.07715 41.3262 1.05749 41.2708 1.03634C41.2152 1.01519 41.1548 0.998505 41.0929 0.982418C41.0309 0.966926 40.9675 0.954712 40.9056 0.948754C40.844 0.9422 40.7842 0.94786 40.73 0.959777C40.6591 0.919559 40.5712 0.962756 40.4958 0.913898C40.4528 0.884405 40.3801 0.977949 40.3445 0.879639C40.2796 0.9422 40.151 0.850146 40.107 0.969905C40.0944 1.00476 40.0406 1.00893 40.0131 0.997909C39.9574 0.975566 39.8991 0.979141 39.8414 0.980332C39.8124 0.980928 39.7833 0.980928 39.7546 0.976757C39.7262 0.97348 39.6978 0.966331 39.6697 0.951137C39.6371 0.93356 39.5865 0.932667 39.5755 0.969012C39.5449 1.07 39.4932 1.04438 39.4139 1.02085C39.2868 0.968714 39.1723 0.999994 39.061 1.04557C39.005 1.06762 38.9506 1.0986 38.8944 1.12393C38.8381 1.14955 38.7804 1.17189 38.7185 1.18381C38.6482 1.17397 38.5821 1.19066 38.5178 1.21091C38.4535 1.23147 38.3913 1.25739 38.3296 1.27228C38.1956 1.24517 38.0634 1.2985 37.9342 1.36404C37.8056 1.43286 37.6806 1.51627 37.5484 1.55083C37.3689 1.57079 37.2053 1.66999 37.0536 1.79005C36.8984 1.90534 36.7539 2.03732 36.5861 2.11567C36.4581 2.17942 36.334 2.25122 36.211 2.32629C36.1512 2.36591 36.092 2.40673 36.0333 2.44814C35.975 2.48984 35.9158 2.53155 35.8611 2.57773C35.8057 2.62361 35.7513 2.67008 35.6968 2.71745C35.6427 2.76482 35.588 2.81129 35.5374 2.86223L35.3846 3.01327L35.3089 3.08954C35.2847 3.11575 35.2613 3.14316 35.2374 3.16968C34.8536 3.59509 34.5336 4.06996 34.2422 4.54602C34.1854 4.68366 34.1136 4.82486 34.0493 4.96727C34.0158 5.03757 33.9874 5.11026 33.9629 5.18206C33.9383 5.25356 33.9189 5.32535 33.906 5.39506C33.898 5.51185 33.8752 5.62297 33.8453 5.7323C33.8154 5.84104 33.7852 5.95097 33.755 6.06089L33.7335 6.14342C33.7272 6.17112 33.7221 6.19913 33.7167 6.22713C33.7062 6.28284 33.6982 6.33914 33.6931 6.39575C33.6811 6.50836 33.6865 6.62365 33.711 6.73864C33.7003 6.79077 33.6898 6.84261 33.6811 6.89504C33.6739 6.94777 33.6673 7.0005 33.6614 7.05353C33.6554 7.10656 33.6503 7.15929 33.6455 7.21202C33.641 7.26505 33.6398 7.31837 33.6386 7.3714C33.6327 7.58411 33.6461 7.79741 33.667 8.00804C33.6799 8.1135 33.6919 8.21836 33.708 8.32263C33.7266 8.426 33.7448 8.52938 33.7634 8.63305C33.7864 8.73494 33.8094 8.83682 33.8325 8.93901C33.857 9.0403 33.886 9.14069 33.9123 9.24049C33.9303 9.28875 33.9482 9.33672 33.9662 9.38438C33.9835 9.43205 33.9997 9.47912 34.0149 9.52649C34.0439 9.62092 34.078 9.71357 34.1106 9.80593C34.1277 9.8521 34.1423 9.89858 34.1597 9.94445C34.1782 9.99033 34.1974 10.0359 34.2174 10.0815C34.2375 10.1271 34.2581 10.1727 34.2802 10.2179C34.3021 10.2632 34.3287 10.3076 34.3547 10.3523C34.3849 10.4006 34.4139 10.4503 34.4424 10.501C34.4705 10.5516 34.5031 10.6019 34.5327 10.6532C34.5632 10.7041 34.5916 10.7563 34.6206 10.8084C34.6514 10.8593 34.6822 10.9106 34.7128 10.9618C34.743 11.0128 34.7708 11.0643 34.8013 11.114C34.8321 11.1635 34.8629 11.2121 34.8922 11.2603C34.9218 11.3083 34.9479 11.3565 34.9784 11.4012C35.0077 11.4465 35.037 11.49 35.0639 11.5326C35.0884 11.5654 35.1142 11.5996 35.1405 11.6351C35.168 11.6697 35.1961 11.7054 35.2251 11.7423C35.2542 11.779 35.2823 11.8171 35.311 11.8555C35.3388 11.8946 35.3717 11.9315 35.4025 11.9699C35.4668 12.0453 35.5243 12.1263 35.5921 12.1993C35.6251 12.2363 35.6577 12.2732 35.69 12.3099C35.7217 12.3468 35.7528 12.3831 35.7866 12.4165C35.8524 12.4835 35.9158 12.5485 35.9756 12.6093C36.0378 12.6671 36.0968 12.7195 36.1503 12.7648C36.1775 12.7871 36.2017 12.8092 36.2263 12.8273C36.2508 12.8455 36.2741 12.8619 36.2954 12.8759C36.3381 12.9039 36.3737 12.923 36.4013 12.9313C36.4153 12.8985 36.4623 12.9 36.5059 12.9006C36.5499 12.9012 36.5909 12.9012 36.5984 12.864C36.6088 12.8589 36.5855 12.8148 36.6349 12.8533C36.6405 12.8467 36.6163 12.8062 36.6376 12.816C36.6405 12.8136 36.6361 12.8032 36.613 12.7773C36.581 12.7409 36.5505 12.7022 36.5191 12.6647C36.4877 12.6271 36.4551 12.5917 36.4228 12.5583C36.3803 12.5056 36.3372 12.452 36.2936 12.3977C36.249 12.3441 36.2104 12.2845 36.1688 12.2264C36.0836 12.1118 36.0106 11.9851 35.9346 11.86C35.7905 11.6041 35.6684 11.3309 35.5784 11.0569L35.5368 10.8841L35.5162 10.7983L35.4991 10.7113C35.4878 10.6538 35.4764 10.5963 35.4647 10.5385C35.4546 10.4807 35.4462 10.4226 35.4372 10.3648C35.4175 10.2498 35.407 10.1327 35.3953 10.0171L35.3908 9.97365L35.3888 9.92986L35.3846 9.84257C35.3825 9.78418 35.3774 9.72668 35.3783 9.66829C35.3834 9.62271 35.3879 9.57713 35.3908 9.53215C35.3944 9.48686 35.3938 9.44247 35.3974 9.39719C35.4037 9.30722 35.4022 9.21815 35.4046 9.12937C35.4064 9.08498 35.4082 9.04059 35.41 8.9965C35.4124 8.95241 35.4115 8.90862 35.4172 8.86483C35.4267 8.77724 35.4354 8.69055 35.4567 8.60624C35.4722 8.54576 35.4866 8.48529 35.5006 8.42511L35.5108 8.38013L35.5234 8.33514L35.5476 8.24577C35.5766 8.1266 35.6164 8.00923 35.6511 7.89275C35.733 7.66186 35.8165 7.43426 35.943 7.22692C36.1099 6.95314 36.2786 6.68531 36.4596 6.43656C36.6408 6.1884 36.835 5.95871 37.0545 5.77788C37.0551 5.69506 37.0647 5.62595 37.1556 5.60271C37.2714 5.5321 37.3336 5.4326 37.4045 5.3325C37.4308 5.30957 37.4568 5.28603 37.4826 5.2622C37.5095 5.23956 37.5361 5.21691 37.5624 5.19368C37.6154 5.1478 37.6653 5.09864 37.7203 5.05545L37.8005 4.98782C37.8271 4.96518 37.8529 4.94165 37.8813 4.92109C37.9363 4.87849 37.9901 4.8341 38.0446 4.79061C38.1014 4.75039 38.158 4.71017 38.2145 4.67025C38.2423 4.6494 38.2728 4.63331 38.3021 4.61484C38.3314 4.59667 38.3608 4.57849 38.3898 4.56062L38.4337 4.53381C38.4487 4.52517 38.4639 4.51772 38.4792 4.50997C38.5097 4.49478 38.5402 4.47929 38.5707 4.4641C38.6015 4.4495 38.6315 4.43371 38.6629 4.4212C38.6946 4.40928 38.7263 4.39736 38.7577 4.38545C38.7816 4.39826 38.7975 4.39349 38.7951 4.36161C38.7852 4.27016 38.8193 4.26628 38.8612 4.27731C38.903 4.28773 38.9503 4.30888 38.9698 4.25854C38.9907 4.21504 39.0203 4.18972 39.0541 4.17482C39.0888 4.16142 39.1274 4.15784 39.1654 4.15427C39.2034 4.1504 39.2413 4.14652 39.2754 4.13342C39.3101 4.1218 39.3419 4.10213 39.367 4.06251C39.3786 4.03093 39.4274 4.02557 39.4666 4.04285C39.5147 4.02378 39.5653 4.01068 39.6149 3.99221C39.6649 3.97493 39.7145 3.95497 39.7663 3.94097C39.8177 3.92518 39.8695 3.90909 39.9212 3.893C39.9473 3.88406 39.9739 3.879 40.0002 3.87185C40.0268 3.8647 40.0531 3.85755 40.0798 3.8504L40.1599 3.82836C40.1868 3.8218 40.2141 3.81644 40.2413 3.81048C40.2957 3.79886 40.3502 3.78635 40.4052 3.77533C40.5156 3.75835 40.6268 3.73481 40.739 3.72647L40.8231 3.71783C40.8512 3.71485 40.8793 3.71217 40.9071 3.71157C40.9633 3.70919 41.0193 3.70681 41.0752 3.70442C41.1033 3.70264 41.1312 3.70383 41.159 3.70442C41.1868 3.70532 41.2146 3.70621 41.2424 3.70681C41.2978 3.7086 41.3534 3.71008 41.4075 3.71723C41.462 3.72319 41.5164 3.72945 41.57 3.7363C41.6235 3.74494 41.6758 3.75626 41.7282 3.76699C41.7542 3.77265 41.7799 3.77801 41.806 3.78367C41.8317 3.78963 41.8568 3.79767 41.8816 3.80512C41.9316 3.82001 41.9809 3.8355 42.0294 3.85159C42.0698 3.79648 42.0916 3.90641 42.1245 3.82865C42.1368 3.79976 42.161 3.79231 42.1733 3.81018C42.2367 3.8355 42.298 3.87125 42.3605 3.89985C42.3922 3.91326 42.4245 3.92309 42.4592 3.92667C42.4939 3.92994 42.531 3.92667 42.5702 3.91654C42.5971 3.90194 42.6336 3.92637 42.653 3.95735C42.6665 3.9794 42.6856 4.00472 42.7078 3.9937C42.773 3.96897 42.8095 4.00591 42.8457 4.04136C42.8822 4.07711 42.9178 4.11256 42.9842 4.09618C43.0646 4.06787 43.0874 4.11524 43.102 4.17304C43.1095 4.20223 43.1152 4.23411 43.1256 4.26122C43.1361 4.28833 43.1517 4.31037 43.1783 4.32289C43.2426 4.37383 43.2375 4.22458 43.2964 4.25913C43.3267 4.28505 43.3619 4.3071 43.3993 4.32795C43.4364 4.3491 43.4735 4.37234 43.51 4.39528C43.5462 4.41852 43.5803 4.44354 43.6087 4.47184C43.6365 4.50104 43.6575 4.53559 43.6694 4.57432C43.6727 4.6348 43.6996 4.65029 43.7349 4.65595C43.7526 4.65863 43.772 4.65893 43.7918 4.66042C43.8109 4.6628 43.8295 4.66697 43.8462 4.6768L43.8426 4.6777L43.842 4.678ZM45.0475 5.85891C45.0807 5.89406 45.0597 5.9176 45.0439 5.91909C45.0277 5.92088 45.0125 5.9036 45.051 5.85891H45.0478H45.0475ZM43.842 4.678L43.8704 4.71881C43.8118 4.75277 43.8067 4.71136 43.8456 4.6771L43.842 4.678Z" fill="#777E5C"/>
<path d="M54.1735 25.8058C54.3856 25.5836 54.3195 25.8993 54.3422 26.0385C54.3512 26.1907 54.4107 26.2184 54.4855 26.2306C54.56 26.2422 54.6518 26.236 54.7233 26.3155C54.7481 26.3677 54.714 26.4493 54.7975 26.4728C54.8528 26.4883 54.8992 26.5446 54.8666 26.5956C54.7783 26.7338 54.918 26.6507 54.9381 26.6817C54.9826 26.7627 55.0317 26.8428 55.0592 26.9289C55.0661 26.9504 55.0718 26.9724 55.0754 26.9948C55.0786 27.0174 55.0801 27.0406 55.0792 27.0645C55.0777 27.1121 55.0676 27.1619 55.0451 27.2149C55.0104 27.3716 55.2192 27.2673 55.1983 27.3293C55.1083 27.4628 55.3158 27.4068 55.3431 27.4607C55.3966 27.5655 55.416 27.6511 55.4238 27.7181C55.4316 27.7851 55.4268 27.8337 55.4268 27.8685C55.4277 27.9379 55.4466 27.9513 55.6245 27.943C55.7585 28.0401 55.4486 28.0139 55.4259 28.0803C55.4917 28.1548 55.5545 28.243 55.6078 28.3401C55.6625 28.4366 55.7146 28.5394 55.7591 28.6434L55.7534 28.6419C55.8665 28.652 55.8492 28.7402 55.8351 28.8299C55.8193 28.921 55.807 29.0134 55.9413 29.0396C55.9727 29.0506 55.9874 29.0795 55.9927 29.115C55.9972 29.1507 55.9921 29.1933 55.9859 29.2315C55.958 29.3313 56.0125 29.3789 56.0768 29.426C56.1396 29.4734 56.2111 29.5204 56.2171 29.6131C56.2308 29.6488 56.2359 29.6879 56.2383 29.7281C56.2395 29.7686 56.2383 29.8097 56.241 29.8496C56.2461 29.9292 56.2673 30.0022 56.3559 30.0525C56.401 30.1341 56.1979 30.3013 56.3203 30.3734C56.4043 30.4636 56.4315 30.5598 56.3855 30.6817C56.4013 30.8059 56.4558 30.923 56.5012 31.0437C56.5416 31.1652 56.5745 31.2903 56.5344 31.4265C56.5189 31.4536 56.512 31.4804 56.5111 31.5069C56.5111 31.5135 56.5111 31.5203 56.5117 31.5269L56.5126 31.5367C56.5129 31.5403 56.5135 31.5438 56.5141 31.5438C56.5159 31.548 56.5192 31.5519 56.5234 31.5561C56.5276 31.5599 56.5326 31.5638 56.5386 31.5677C56.5416 31.5695 56.5449 31.5713 56.5479 31.5733L56.5557 31.5796C56.5661 31.5882 56.5787 31.5969 56.5922 31.6055C56.6433 31.6398 56.6804 31.6836 56.5452 31.7062C56.4755 31.7092 56.3992 31.7041 56.5213 31.7283C56.6376 31.7545 56.6355 31.7953 56.6334 31.8319C56.6307 31.8701 56.6272 31.9034 56.7477 31.9609C56.7938 31.9833 56.777 31.9999 56.7821 32.0184C56.7716 32.0551 56.7642 32.0905 56.7597 32.1257C56.7546 32.1611 56.7513 32.1963 56.7507 32.2317C56.7504 32.2672 56.7501 32.3032 56.7516 32.3399C56.7534 32.3765 56.7564 32.4137 56.7585 32.4516L56.7668 32.5666C56.7689 32.6053 56.7707 32.644 56.7716 32.6828C56.7731 32.7212 56.771 32.7593 56.7686 32.7963C56.7674 32.8147 56.7656 32.8326 56.7633 32.8502C56.7615 32.8582 56.7624 32.8695 56.7621 32.8794L56.7612 32.9092C56.7555 32.925 56.7489 32.9401 56.7417 32.9544C56.7381 32.9616 56.7342 32.9688 56.7301 32.9753C56.7289 32.9768 56.7283 32.9792 56.7265 32.9798L56.716 32.9759L56.6948 32.9676C56.6556 32.9628 56.6215 32.9693 56.5676 32.9461C56.5141 32.9226 56.442 32.8692 56.3373 32.7441C56.2766 32.6688 56.3316 32.7566 56.3574 32.8019C56.4181 32.894 56.4022 32.8883 56.3786 32.8743C56.3547 32.8606 56.3242 32.8383 56.3478 32.8978L56.2243 32.863L56.1635 32.8463L56.1333 32.8383C56.1234 32.8362 56.1157 32.8383 56.1067 32.838C56.037 32.8401 55.9685 32.843 55.9009 32.8466C55.8342 32.8502 55.7675 32.8541 55.7005 32.8579L55.6021 32.8633C55.5994 32.8633 55.5997 32.8639 55.5943 32.8633L55.5737 32.8609L55.5324 32.8561L55.4501 32.8463L55.2853 32.8266C54.4065 32.7203 53.5236 32.5979 52.6373 32.4117C52.3687 32.4858 52.0977 32.4274 51.827 32.3574C51.556 32.2877 51.285 32.2061 51.0161 32.2407C50.8821 32.2585 50.7179 32.2815 50.6287 32.0866C50.5713 31.9612 50.4469 32.1665 50.4175 31.9564C50.4113 31.9103 50.3499 32.0259 50.3072 32.0419C50.035 32.0568 49.7209 32.0387 49.4643 31.9279C49.3709 31.7989 49.356 32.0524 49.2767 31.966C48.916 31.6624 48.5307 31.8117 48.1464 31.8888C47.855 31.7869 47.5742 31.573 47.2804 31.6904C47.1599 31.6699 47.0005 31.7846 46.9125 31.6389C46.786 31.4289 46.643 31.6487 46.5285 31.5352C46.4163 31.4485 46.3807 31.1753 46.2255 31.2608C45.9957 31.3782 45.7567 31.1405 45.5169 31.2707C45.2952 31.0133 45.0155 31.2269 44.7481 31.1518C44.5382 31.1637 44.3282 31.0725 44.1212 31.004C43.9142 30.9358 43.7108 30.8902 43.5134 30.9978C43.4126 31.1217 43.3904 31.0234 43.3695 30.9179C43.2558 30.5304 42.9884 31.0946 42.7955 30.7714C42.6208 30.6257 42.4061 30.8521 42.2057 30.6999C41.9472 30.6894 41.6717 30.7073 41.4109 30.7669C41.2045 30.4961 40.8659 30.7478 40.5994 30.6355C40.0353 30.6361 39.4849 30.4648 38.9369 30.273C38.389 30.082 37.8434 29.8708 37.2882 29.8082C36.8297 29.7361 36.3553 29.5487 35.8821 29.423C35.4086 29.2979 34.936 29.2344 34.4801 29.4248C34.4062 29.6342 34.6303 29.8764 34.9195 30.074C35.2091 30.2721 35.5641 30.4261 35.7517 30.4693C36.1456 30.957 36.5318 31.3833 37.025 31.4828C37.4755 31.9037 37.934 32.3434 38.4096 32.5743C38.7413 32.6786 39.035 32.9774 39.3868 32.8097C39.5094 33.0227 39.6461 32.8216 39.7765 32.8931C39.8636 33.068 39.9698 33.0334 40.0864 33C40.1615 32.9786 40.2731 32.9434 40.3078 33.0745C40.623 33.4505 41.0861 33.4454 41.4507 33.7156C41.6233 33.6545 41.7875 33.7424 41.9547 33.8297C42.1219 33.9173 42.2921 34.0043 42.4761 33.9456C42.9095 33.9882 43.2573 34.4351 43.6926 34.4026C43.933 34.2414 44.0907 34.6082 44.3219 34.6284C44.6497 34.7544 45.0448 34.607 45.326 34.9531C45.5614 34.6019 45.8375 35.12 46.0861 35.2108C46.2838 35.3041 46.4944 35.1277 46.6846 35.271C46.8132 35.0339 46.8515 35.2555 46.9044 35.3642C47.0002 35.5487 47.5631 35.2633 47.7103 35.5865C47.7901 35.7411 47.949 35.5767 48.0677 35.61C48.1622 35.6511 48.2182 35.8612 48.336 35.8257C48.5107 35.6726 48.6976 35.9237 48.8511 35.8105C48.9821 35.6336 49.1472 35.8632 49.2941 35.8016C49.4813 36.1507 49.8361 36.2035 50.1238 36.1302C50.3078 36.059 50.4678 36.1323 50.6263 36.1999C50.7846 36.2675 50.9413 36.3298 51.1184 36.2416C51.3702 36.2717 51.5736 36.4287 51.8584 36.3661C51.9649 36.3316 52.0262 36.6053 52.1524 36.5788C52.4022 36.415 52.6112 36.6667 52.8469 36.673C52.9322 36.6754 52.9929 36.6575 53.0605 36.6095C53.0827 36.5937 53.0815 36.4701 53.1245 36.5669C53.1858 36.7051 53.2843 36.6923 53.3557 36.6357C53.7419 36.6616 54.3021 36.5776 54.647 36.7796C54.7652 36.8684 54.8696 36.7022 54.9808 36.8154C55.0996 36.8723 55.2231 36.8887 55.349 36.8851C55.3649 36.8848 55.3805 36.8839 55.3963 36.883L55.4199 36.8812L55.4259 36.8806H55.4343L55.451 36.8794C55.4959 36.877 55.5405 36.8738 55.5853 36.8696C55.6748 36.8615 55.7639 36.8514 55.8522 36.8413C56.0289 36.821 56.2015 36.8014 56.3729 36.8026C56.5446 36.8037 56.7148 36.8255 56.894 36.8878C56.9463 36.8046 57.0262 36.8014 57.1132 36.8145C57.2003 36.8273 57.2948 36.8565 57.3654 36.8383C57.5733 36.785 57.5472 36.8928 57.5416 36.989C57.538 37.0439 57.5742 37.1192 57.6118 37.0743C57.6561 37.0206 57.7186 37.0293 57.7838 37.0451C57.8484 37.0605 57.9181 37.0853 57.9636 37.0594C58.2741 37.1079 58.5128 37.0883 58.6931 36.9235C58.8909 36.9178 59.1221 36.9587 59.353 36.9858C59.583 37.0132 59.813 37.0269 59.9841 36.9721C60.1723 36.9387 60.1325 37.0078 60.1717 37.082C60.1923 37.1031 60.2106 37.1163 60.227 37.1228C60.2354 37.1261 60.2432 37.1282 60.2506 37.1285C60.2545 37.1285 60.2581 37.1285 60.2617 37.1285C60.2644 37.127 60.2665 37.1249 60.2686 37.1225C60.2859 37.1037 60.2955 37.0644 60.3048 37.0218C60.3245 36.9375 60.3398 36.8389 60.4504 36.8892C60.4579 36.8907 60.4651 36.8922 60.472 36.8937C60.5204 36.8553 60.5091 36.7629 60.4893 36.6676C60.4684 36.5717 60.4418 36.4731 60.4645 36.4135C60.5228 36.3396 60.5414 36.2163 60.5402 36.0736C60.5381 35.933 60.5156 35.7739 60.4935 35.619C60.4501 35.3065 60.4005 35.0258 60.5121 34.8807C60.5536 34.8608 60.5868 34.6931 60.6093 34.4467C60.615 34.3853 60.62 34.3189 60.6245 34.2489C60.6275 34.214 60.6266 34.1774 60.6266 34.1401C60.6263 34.1029 60.626 34.0648 60.6257 34.0263C60.6239 33.8723 60.6173 33.7076 60.6102 33.5455C60.6042 33.3843 60.5952 33.2241 60.5829 33.0748C60.5797 33.0376 60.577 33.0009 60.5731 32.9649C60.5662 32.9285 60.5593 32.8931 60.5527 32.8585C60.539 32.7897 60.5249 32.7248 60.5106 32.6655C60.4531 32.4271 60.393 32.2776 60.3359 32.2859C60.2802 32.2383 60.2796 32.1677 60.3437 32.1745C60.5145 32.1847 60.4986 32.0664 60.4501 31.9261C60.4379 31.8909 60.4238 31.8546 60.4101 31.8185C60.4032 31.8003 60.3966 31.7825 60.3897 31.7643C60.3834 31.7464 60.3775 31.7285 60.3697 31.7116C60.3416 31.6425 60.3248 31.579 60.3386 31.5287C60.3622 31.4062 60.3128 31.3049 60.2578 31.2114C60.244 31.1881 60.2303 31.1649 60.2162 31.1417C60.2013 31.119 60.1866 31.0964 60.1738 31.0731C60.1465 31.027 60.1316 30.9781 60.1289 30.9233C60.128 30.9072 60.093 30.8724 60.0762 30.8721C59.9961 30.867 59.9345 30.8649 59.9138 30.8429C59.8932 30.8208 59.9138 30.7806 59.9991 30.707C59.9138 30.5298 59.9078 30.4317 59.9138 30.3397C59.9201 30.2479 59.9333 30.1633 59.8815 30.0174C59.8076 29.9304 59.6886 29.8422 59.7326 29.7507C59.8301 29.5985 59.6859 29.5365 59.6781 29.4323C59.7263 29.3703 59.8316 29.3 59.6413 29.2797C59.6093 29.1764 59.5591 29.073 59.4966 28.9699C59.4332 28.8671 59.3611 28.764 59.2911 28.6592C59.219 28.5549 59.1472 28.4494 59.0886 28.3395C59.0302 28.2296 58.9782 28.1173 58.951 27.9966C58.799 27.9335 58.7987 27.794 58.7975 27.6648C58.7969 27.6001 58.7957 27.5387 58.7754 27.4926C58.7539 27.447 58.7135 27.4169 58.6357 27.4145C58.4936 27.3826 58.5559 27.4801 58.5747 27.5453C58.6779 27.5227 58.7787 27.6302 58.6743 27.6996C58.6593 27.6481 58.6303 27.612 58.5977 27.5843C58.5648 27.5566 58.5274 27.5378 58.4969 27.5191C58.4359 27.4815 58.4012 27.4464 58.4703 27.3505C58.4757 27.3007 58.4754 27.2453 58.4697 27.1875C58.4631 27.13 58.45 27.0707 58.4317 27.0117C58.3943 26.8941 58.3354 26.7782 58.2481 26.693C58.1718 26.637 58.1203 26.5684 58.0809 26.4934C58.0408 26.4186 58.0106 26.3388 57.9812 26.2589C57.9238 26.0983 57.858 25.9428 57.7034 25.8496C57.5984 25.7885 57.546 25.7099 57.5128 25.6232C57.4787 25.5371 57.4641 25.4429 57.4258 25.3607C57.2625 25.3279 57.2948 25.2016 57.2694 25.0989C57.2774 24.9842 57.214 24.9255 57.1452 24.8677C57.0755 24.8102 57.0011 24.753 56.9714 24.6469C56.9418 24.5203 56.9254 24.4563 56.8871 24.3997C56.8494 24.3425 56.7875 24.2942 56.6672 24.1983C56.6095 24.1357 56.5975 24.0136 56.5632 23.9164C56.5296 23.8187 56.4776 23.7425 56.3502 23.7696C56.3248 23.7764 56.2901 23.7684 56.2607 23.7508C56.2308 23.7335 56.2063 23.7067 56.2012 23.6754C56.1875 23.5914 56.1163 23.5271 56.0553 23.4592C55.9945 23.3909 55.941 23.3227 55.964 23.2241C55.766 23.1043 55.6227 22.9351 55.4851 22.7567C55.4148 22.6691 55.3461 22.5797 55.2725 22.4942C55.1992 22.4087 55.1181 22.331 55.0293 22.2622C55.0036 22.2324 54.9683 22.1984 54.9261 22.1615C54.8833 22.1254 54.8334 22.0864 54.7795 22.0456C54.7257 22.0048 54.6677 21.9622 54.6084 21.919C54.5486 21.877 54.4873 21.8341 54.4272 21.7918C54.3673 21.7494 54.309 21.7077 54.2552 21.6672C54.2004 21.6279 54.1499 21.5901 54.1065 21.5543C54.0198 21.4831 53.9615 21.4206 53.9543 21.375C53.9626 21.2817 53.8885 21.2442 53.8023 21.2162C53.7159 21.1885 53.6184 21.1697 53.5735 21.1164C53.5532 21.0133 53.4951 20.9382 53.4204 20.8778C53.3459 20.8164 53.2528 20.772 53.1622 20.7279C53.0716 20.6841 52.9839 20.6391 52.9151 20.5822C52.8461 20.5256 52.7973 20.455 52.7856 20.3552C52.7761 20.2849 52.7186 20.2644 52.6564 20.2522C52.4165 20.2468 52.4282 20.0105 52.2457 19.956C52.0929 19.9322 51.9933 19.8416 51.8994 19.754C51.8303 19.6471 51.6963 19.6113 51.5718 19.5804C51.4465 19.5512 51.3304 19.5279 51.2919 19.4424C51.174 19.3617 51.0152 19.2595 50.8441 19.1639C50.7585 19.1165 50.6685 19.0745 50.5794 19.0376C50.4902 19.0012 50.4017 18.9705 50.3161 18.9548C50.2294 18.8821 50.0813 18.8749 49.9928 18.7927C49.9437 18.7447 49.7945 18.7879 49.7885 18.6842C49.7263 18.6941 49.6605 18.6631 49.5944 18.639C49.528 18.616 49.4616 18.6005 49.4012 18.639C49.3659 18.6613 49.2863 18.6357 49.2522 18.6116C49.2178 18.5874 49.1795 18.5681 49.1391 18.5514C49.0984 18.5353 49.0563 18.5216 49.0141 18.5073C48.93 18.4787 48.8481 18.4483 48.7847 18.3947C48.7482 18.3631 48.677 18.3372 48.6417 18.3601C48.5436 18.4239 48.4832 18.3768 48.3848 18.3178C48.3103 18.2633 48.2283 18.229 48.1431 18.204C48.0575 18.1793 47.9684 18.1644 47.8775 18.1528C47.7859 18.1426 47.6929 18.1358 47.5996 18.1251C47.5063 18.1146 47.4132 18.0997 47.3202 18.0777C47.2296 18.0366 47.1294 18.0122 47.0292 17.9925C46.9287 17.9731 46.8273 17.9609 46.7339 17.9401C46.5721 17.8528 46.3616 17.8245 46.1447 17.8015C46.0361 17.7908 45.9251 17.7846 45.8172 17.7735C45.763 17.7682 45.7098 17.7619 45.6577 17.7542C45.6054 17.7473 45.5542 17.7393 45.5049 17.7289C45.2596 17.6505 44.9767 17.6362 44.6895 17.6296C44.5456 17.6282 44.4009 17.6267 44.2582 17.6225C44.1152 17.6198 43.9746 17.6121 43.8388 17.5936C43.7335 17.5811 43.6279 17.5704 43.5224 17.5599L43.3635 17.5453L43.2017 17.5358C43.0937 17.5298 42.9857 17.5245 42.8778 17.52L42.7156 17.5135C42.6615 17.5117 42.6074 17.5129 42.5532 17.5126L42.2281 17.515C42.1198 17.5164 42.0115 17.5164 41.9032 17.5236L41.5787 17.5415C41.4707 17.5483 41.3628 17.5519 41.2551 17.5638C40.3927 17.635 39.5432 17.7703 38.7168 17.9305C38.6094 17.9609 38.4975 17.9892 38.3839 18.0169C38.327 18.0303 38.2696 18.044 38.2122 18.0577L38.126 18.0783L38.0405 18.1015C37.9265 18.1325 37.8135 18.1638 37.7043 18.196C37.6495 18.2121 37.596 18.2284 37.5437 18.2454C37.4913 18.2624 37.4408 18.2824 37.3917 18.3014C37.2374 18.3694 37.0767 18.4269 36.9131 18.4814C36.751 18.541 36.5856 18.5967 36.4211 18.6536C36.3382 18.681 36.2572 18.7128 36.1767 18.7453C36.0959 18.7775 36.0161 18.8109 35.9371 18.8451C35.8584 18.8803 35.7801 18.9136 35.705 18.9539C35.6299 18.9938 35.5563 19.0355 35.4852 19.079C35.3311 19.1406 35.1765 19.2011 35.0266 19.2729C34.8759 19.3429 34.7248 19.4114 34.5761 19.4859C34.4287 19.5625 34.2815 19.6399 34.1349 19.718C34.0611 19.7558 33.9902 19.7996 33.9178 19.8407L33.7021 19.9665C33.1308 20.3073 32.5781 20.6802 32.0435 21.0803C31.7923 21.2928 31.5365 21.4834 31.2919 21.6928C31.2302 21.7444 31.1683 21.7959 31.1061 21.8478C31.0445 21.9002 30.9853 21.9559 30.9249 22.011C30.8647 22.0664 30.8046 22.1221 30.7445 22.179C30.6844 22.2356 30.6239 22.2931 30.5665 22.3548C30.5034 22.4218 30.4385 22.4903 30.3718 22.5595C30.3383 22.594 30.3048 22.6286 30.2707 22.6637C30.2536 22.681 30.2366 22.6986 30.2195 22.7162C30.2028 22.7343 30.1863 22.7525 30.1696 22.7707C30.1026 22.8431 30.0347 22.9164 29.9665 22.9896C29.9324 23.0263 29.898 23.0626 29.8636 23.0993L29.8121 23.1541L29.7622 23.2104C29.6958 23.2852 29.6294 23.36 29.5639 23.4341C29.531 23.4711 29.4984 23.5077 29.4658 23.5441C29.4332 23.5804 29.4009 23.6165 29.3704 23.6537C29.2468 23.8009 29.1275 23.9433 29.0156 24.0764C28.9328 24.1899 28.8415 24.3121 28.7452 24.4396C28.721 24.4715 28.6967 24.5036 28.6722 24.5364C28.648 24.5695 28.6247 24.6034 28.6004 24.6374C28.5523 24.7053 28.5035 24.7744 28.4542 24.8444C28.4051 24.9144 28.3546 24.9839 28.3061 25.0554C28.2588 25.1275 28.2113 25.2001 28.164 25.2722C28.1171 25.3443 28.0701 25.4161 28.0237 25.487C28.0001 25.5222 27.9783 25.5582 27.9567 25.5943C27.9352 25.63 27.9137 25.6658 27.8924 25.7012C27.5461 26.2622 27.2969 26.7672 27.2137 26.9236C27.2281 26.903 27.2009 26.9566 27.1731 27.0055C27.1455 27.0546 27.1168 27.099 27.1381 27.0666C27.1342 27.0725 27.1832 26.9992 27.1201 27.0946C27.1204 27.0937 27.1683 27.0234 27.1455 27.057C27.1521 27.0475 27.1596 27.0365 27.1925 26.9885C27.2434 26.9146 27.2951 26.8392 27.3462 26.7648C27.3983 26.6906 27.4468 26.6152 27.4979 26.5458C27.6472 26.3441 27.7952 26.1311 27.9618 25.9247C28.0025 25.8725 28.0435 25.8201 28.0848 25.7674C28.126 25.7149 28.1664 25.661 28.2104 25.6101C28.2968 25.5067 28.3839 25.4024 28.4715 25.2979C28.8287 24.8853 29.204 24.4762 29.5983 24.1077C29.9216 23.8095 30.2593 23.5259 30.6018 23.2467C30.644 23.211 30.688 23.1773 30.7319 23.1437L30.8632 23.0421C30.9509 22.9745 31.0379 22.9059 31.1262 22.8392C31.2162 22.7743 31.3062 22.7093 31.3966 22.6444C31.4872 22.5797 31.5757 22.513 31.6696 22.4525C32.249 22.0897 32.8341 21.6806 33.4404 21.378C33.5472 21.3211 33.6579 21.2704 33.7676 21.2177C33.8777 21.1655 33.9866 21.111 34.0976 21.0595C34.2091 21.0097 34.321 20.96 34.4329 20.9102L34.6007 20.8352L34.7712 20.7657C34.8848 20.7196 34.9985 20.6734 35.1125 20.6272C35.2273 20.584 35.3434 20.5432 35.4588 20.5015L35.632 20.4398C35.6894 20.4187 35.749 20.4023 35.8073 20.3835C35.9246 20.3475 36.0415 20.3117 36.1588 20.2772C36.7833 20.1056 37.43 19.9539 38.0752 19.8428C38.1559 19.8297 38.2364 19.8166 38.3169 19.8035C38.3973 19.791 38.4772 19.7758 38.558 19.7672C38.7189 19.7478 38.8786 19.7281 39.0374 19.7091C39.1966 19.6948 39.3551 19.6837 39.5112 19.6724C39.5501 19.6697 39.5893 19.6671 39.6279 19.6644C39.6668 19.6626 39.7057 19.662 39.7445 19.6608C39.822 19.659 39.8989 19.6575 39.9755 19.6557C40.0469 19.6334 40.1139 19.614 40.1842 19.603C40.2545 19.5923 40.3284 19.5941 40.4122 19.6075C40.5536 19.6143 40.6879 19.6113 40.8202 19.606C40.9527 19.6042 41.0828 19.5973 41.2141 19.5899L41.3284 19.592C41.3663 19.5923 41.4046 19.5932 41.4426 19.5959C41.5189 19.5997 41.5952 19.6033 41.6717 19.6072C41.8243 19.6152 41.9771 19.6179 42.1297 19.6319C42.2822 19.6432 42.4345 19.6542 42.587 19.6656C42.739 19.682 42.8906 19.6983 43.042 19.7144C43.345 19.7478 43.6507 19.7946 43.9492 19.8461C44.0987 19.8729 44.2468 19.9033 44.394 19.9331C44.5405 19.9665 44.6862 20.0001 44.8295 20.0374C44.8603 20.0621 44.8959 20.0728 44.9252 20.0561C45.0036 20.0055 45.0697 20.0314 45.1373 20.068C45.2052 20.1038 45.2737 20.1541 45.361 20.1449C45.4436 20.1401 45.5234 20.1512 45.6018 20.1708C45.6799 20.192 45.7561 20.2215 45.8321 20.251C45.9847 20.3088 46.1333 20.3752 46.2966 20.3728C46.346 20.3642 46.442 20.4041 46.503 20.4497C47.3618 20.71 48.2639 21.0327 49.1134 21.439C49.962 21.8442 50.7573 22.3342 51.3846 22.8976C51.468 22.8678 51.4779 23.0299 51.5539 22.9628C51.5823 22.9381 51.6254 22.9518 51.6421 22.9867C51.7456 23.0796 51.8365 23.1922 51.9382 23.2879C51.9894 23.3355 52.0411 23.3817 52.098 23.4201C52.1548 23.4589 52.2167 23.4901 52.2861 23.511C52.3346 23.5146 52.3896 23.5837 52.4147 23.6459C52.4324 23.69 52.4584 23.7451 52.4973 23.749C52.6098 23.7735 52.6621 23.8595 52.7153 23.9445C52.7417 23.9874 52.7683 24.0297 52.8009 24.0672C52.8335 24.1044 52.8736 24.1351 52.9289 24.1524C52.9983 24.1649 53.0402 24.1935 53.0662 24.2322C53.0919 24.271 53.1006 24.3204 53.1063 24.3728C53.1171 24.478 53.1141 24.5954 53.196 24.6788C53.2887 24.8164 53.3136 24.5695 53.4012 24.6737C53.4883 24.8057 53.6067 24.9371 53.7138 25.07C53.7655 25.1379 53.8137 25.207 53.8517 25.2776C53.8705 25.3131 53.8873 25.3485 53.8998 25.3854C53.9121 25.4224 53.9208 25.4599 53.9256 25.4984C53.916 25.6062 53.9549 25.6542 54.0096 25.6896C54.0637 25.7251 54.1322 25.7495 54.1807 25.8058L54.1747 25.8049L54.1735 25.8058ZM55.7531 28.6416C55.8333 28.8013 55.5868 28.7897 55.7588 28.6431L55.7531 28.6416ZM54.1735 25.8058L54.2088 25.8973C54.1053 25.9178 54.108 25.8404 54.1792 25.8064L54.1732 25.8055L54.1735 25.8058Z" fill="#777E5C"/>
</g>
<defs>
<clipPath id="clip0_3394_3570">
<rect width="60.125" height="43.7273" fill="white" transform="translate(0.5 0.879639)"/>
</clipPath>
</defs>
</svg>
