<svg width="47" height="45" viewBox="0 0 47 45" fill="none" xmlns="http://www.w3.org/2000/svg">
<path d="M3.46924 13.4195C3.46924 13.4195 3.46978 13.4151 3.46924 13.4146C3.46924 13.4162 3.46924 13.4179 3.46924 13.4195Z" fill="#777E5C"/>
<path d="M25.7837 34.6495C25.85 34.875 25.9667 34.6353 25.7837 34.6495V34.6495Z" fill="#777E5C"/>
<path d="M44.3829 15.0492L44.3769 14.8801C44.3748 14.8237 44.3737 14.7679 44.3666 14.7115C44.3558 14.5988 44.3416 14.4866 44.3275 14.3761C44.3123 14.265 44.3009 14.156 44.2808 14.0476C44.2596 13.9392 44.2357 13.8325 44.2123 13.7279C44.1901 13.6276 44.1678 13.5284 44.1461 13.4303C44.1575 13.4845 44.1901 13.6471 44.2216 13.8428C44.233 13.9105 44.2439 13.9826 44.2542 14.0547C44.264 14.1268 44.2667 14.1994 44.2726 14.2688C44.2824 14.4091 44.2911 14.5365 44.2976 14.6237C44.2976 14.6714 44.2976 14.7191 44.2971 14.7668L44.2868 14.9094C44.2786 15.0053 44.271 15.1018 44.2629 15.1999C44.2585 15.2497 44.2547 15.2996 44.2504 15.3505C44.2482 15.376 44.246 15.402 44.2444 15.4275C44.2411 15.453 44.2373 15.479 44.2341 15.505C44.2194 15.609 44.2053 15.718 44.1922 15.8323C44.17 15.938 44.1521 16.0453 44.1222 16.1499C44.0923 16.2545 44.0624 16.3597 44.0326 16.4653C44.001 16.5705 43.9728 16.6773 43.9364 16.7813C43.9 16.8854 43.8636 16.9905 43.8289 17.0962C43.7479 17.3954 43.6062 17.6403 43.5508 17.9579C43.4742 18.0571 43.4736 18.1828 43.4215 18.2939C43.359 18.3611 43.334 18.4549 43.3074 18.5579C43.2911 18.6251 43.2612 18.7216 43.2205 18.7438C43.126 18.8668 43.0396 19.0261 42.9527 19.1898C42.862 19.3519 42.7707 19.5188 42.6686 19.6581C42.5741 19.9562 42.3248 20.1648 42.2096 20.4743C42.1162 20.6472 42.0027 20.7913 41.8859 20.9322C41.7697 21.0737 41.6534 21.2146 41.567 21.3897C41.5182 21.6037 41.3286 21.6736 41.2205 21.8514C41.0331 22.0883 40.9158 22.4237 40.6632 22.5825C40.6936 22.8291 40.3748 22.9527 40.2265 23.1283C40.1005 23.2643 40.0793 23.4627 39.9353 23.5825C39.9771 23.7299 39.868 23.7158 39.7979 23.7347C39.6762 23.7711 39.5475 24.2675 39.3378 24.3109C39.2324 24.338 39.2341 24.4973 39.164 24.5797C39.1021 24.6425 38.9799 24.6371 38.9413 24.7347C38.9315 24.9038 38.7284 24.9867 38.7083 25.1281C38.7305 25.2707 38.5437 25.3379 38.5035 25.4636C38.2471 25.5151 38.044 25.7557 37.9413 25.9882C37.8272 26.295 37.4774 26.3649 37.3824 26.6641C37.2368 26.831 37.0521 26.9215 36.9299 27.1329C36.8908 27.2174 36.7143 27.16 36.6605 27.2532C36.6377 27.3676 36.5616 27.4331 36.4763 27.489C36.3911 27.5448 36.2955 27.5908 36.2286 27.6646C36.1798 27.7177 36.1569 27.7654 36.1434 27.8255C36.139 27.8456 36.2053 27.896 36.1292 27.8824C36.0206 27.8629 35.9706 27.9269 35.9598 27.9952C35.9006 28.051 35.8392 28.1171 35.7756 28.1859C35.7121 28.2553 35.6409 28.3209 35.5709 28.387C35.4291 28.5176 35.2808 28.6374 35.12 28.6753C35.0016 28.6927 35.0228 28.8347 34.8968 28.8352C34.8457 28.8515 34.8001 28.8748 34.7561 28.9008C34.7115 28.9252 34.6703 28.9533 34.6311 28.9853C34.5529 29.0487 34.4834 29.1235 34.4139 29.1994C34.346 29.278 34.271 29.3452 34.1901 29.4021C34.1091 29.4585 34.0201 29.5013 33.9174 29.5159C33.9239 29.672 33.7648 29.6276 33.7066 29.6964C33.6181 29.7999 33.6056 29.7083 33.585 29.6335C33.573 29.5907 33.5377 29.5436 33.5317 29.5885C33.5171 29.6953 33.4074 29.633 33.3731 29.698C33.2922 29.7213 33.221 29.743 33.1624 29.7858C33.1032 29.8286 33.0554 29.8899 33.0146 29.982C32.963 30.008 32.9065 30.0254 32.8484 30.04C32.7881 30.0514 32.7257 30.0584 32.6648 30.0682C32.5426 30.0882 32.4258 30.117 32.3308 30.202C32.2243 30.2644 32.2553 30.1917 32.2428 30.1283C32.1765 29.9934 32.1292 30.3267 32.0173 30.2346C31.8978 30.1749 31.8864 30.3354 31.7936 30.3289C31.6344 30.2741 31.5089 30.3543 31.384 30.4362C31.2612 30.5213 31.1309 30.5912 30.9924 30.5251C30.9592 30.4963 30.8522 30.4898 30.7137 30.4996C30.5725 30.505 30.3965 30.5223 30.2281 30.5527C30.1444 30.569 30.0597 30.5825 29.9815 30.5988C29.9033 30.615 29.8321 30.634 29.7724 30.6546C29.6534 30.6958 29.5806 30.7451 29.5969 30.7987C29.5812 30.8491 29.5383 30.8454 29.5307 30.7868C29.4774 30.4719 29.2813 30.8193 29.1597 30.7397C29.0168 30.66 28.9505 30.867 28.8234 30.8399C28.8142 30.8383 28.7941 30.8665 28.7936 30.8822C28.7892 31.0356 28.7702 31.1212 28.6659 30.931C28.5231 30.9841 28.4459 30.9706 28.3764 30.9478C28.3058 30.9239 28.2417 30.8903 28.1238 30.9066C28.0489 30.9575 27.9641 31.0562 27.8995 30.9879C27.7968 30.8513 27.7289 30.9765 27.6464 30.9537C27.6067 30.8887 27.5719 30.7613 27.523 30.9424C27.353 30.9375 27.1716 31.0188 26.9772 31.0817C26.7832 31.1451 26.5833 31.2014 26.3845 31.1532C26.1993 31.403 25.9576 30.8936 25.849 31.1955C25.7778 31.3201 25.8712 31.3066 25.9272 31.3196C25.9446 31.2079 26.0565 31.157 26.076 31.293C25.9011 31.2567 25.843 31.5591 25.7452 31.3261C25.6295 31.2285 25.4535 31.157 25.29 31.1716C25.2504 30.4974 25.2216 29.8042 25.3514 29.1929C25.2743 29.1647 25.4057 29.1132 25.2998 29.0997C25.2601 29.0948 25.2449 29.072 25.264 29.0542C25.2949 28.9094 25.3927 28.7604 25.2775 28.6173C25.2487 28.5956 25.265 28.5507 25.2971 28.5198C25.3194 28.4981 25.3449 28.4688 25.3221 28.4515C25.2113 28.342 25.4307 28.251 25.3286 28.1371C25.1732 28.0076 25.5149 27.9681 25.5116 27.8407C25.5377 27.7529 25.3541 27.8347 25.3623 27.7621C25.4198 27.5963 25.3519 27.38 25.5057 27.2424C25.6458 27.1627 25.5062 27.1063 25.4959 27.0256C25.2189 27.0413 25.4475 26.9351 25.5024 26.8673C25.6257 26.7546 25.4687 26.7372 25.3954 26.67C25.4128 26.6576 25.434 26.6543 25.4546 26.669C25.5176 26.7139 25.5785 26.689 25.6398 26.6755C25.6996 26.6608 25.7599 26.6576 25.8305 26.7486C25.893 26.6923 25.9592 26.6581 26.0315 26.637C26.1037 26.6164 26.1808 26.6083 26.258 26.6012C26.4144 26.5893 26.5752 26.5822 26.7018 26.5058C26.7539 26.4977 26.8234 26.4641 26.8989 26.4197C26.9717 26.3741 27.0537 26.3194 27.1292 26.2663C27.2813 26.1611 27.4193 26.0728 27.5024 26.1248C27.6757 26.2771 27.6371 25.9677 27.7349 25.9682C27.9255 26.0858 28.0135 25.9855 28.0912 25.8945C28.1716 25.8024 28.2466 25.7194 28.4416 25.8538C28.5106 25.9004 28.5296 25.8663 28.5383 25.8224C28.5345 25.6246 28.7713 25.8192 28.8196 25.7124C28.8392 25.6062 28.9261 25.5959 29.0125 25.5921C29.2308 25.656 29.1396 25.2848 29.3166 25.3704C29.4742 25.3211 29.7441 25.2479 29.8126 25.0637C29.8913 25.0674 29.8962 24.9677 29.9848 24.9802C30.0374 24.991 29.9913 24.8458 30.1043 24.9401C30.0825 24.8355 30.24 24.874 30.1564 24.7179C30.132 24.6724 30.1613 24.6436 30.1879 24.6442C30.2955 24.6447 30.315 24.5255 30.4367 24.552C30.472 24.5596 30.504 24.5417 30.4801 24.4962C30.4133 24.3689 30.4676 24.3791 30.5372 24.3786C30.6621 24.3965 30.7104 24.3315 30.7463 24.2474C30.7805 24.1651 30.806 24.0621 30.8674 24.0171C30.9712 24.0139 31.0005 23.9169 31.0684 23.867C31.1819 23.8838 31.2455 23.815 31.3031 23.7326C31.3628 23.6486 31.4226 23.5505 31.5095 23.5082C31.5763 23.4995 31.6339 23.4654 31.6844 23.4188C31.7349 23.3722 31.7783 23.3131 31.8207 23.2519C31.9071 23.1277 31.9962 22.9906 32.1227 22.9234C32.5209 22.7007 32.8854 22.3744 33.2395 22.0026C33.3286 21.9072 33.4166 21.8173 33.5057 21.7181C33.5937 21.6184 33.6817 21.5186 33.7691 21.4189C33.9446 21.2097 34.1249 21.0108 34.3041 20.7935C34.34 20.7274 34.3829 20.6661 34.4264 20.6006C34.4704 20.5344 34.5149 20.4672 34.5594 20.4006C34.604 20.3339 34.6469 20.2672 34.6849 20.2C34.7224 20.1307 34.7517 20.057 34.774 19.9854C34.7974 19.8624 34.8419 19.7535 34.8919 19.6445C34.9391 19.5323 34.9945 19.4239 35.0472 19.3139C35.0733 19.2586 35.0999 19.2044 35.12 19.1465C35.1401 19.0879 35.158 19.0288 35.1722 18.9687C35.2004 18.8484 35.2162 18.7259 35.2047 18.5974C35.2878 18.3725 35.3628 18.1379 35.3927 17.9081C35.4019 17.8501 35.4106 17.7926 35.4188 17.7346L35.4302 17.6479C35.4329 17.6192 35.434 17.5916 35.4361 17.5628C35.4437 17.4501 35.4459 17.3368 35.4486 17.2246C35.4443 16.7824 35.3949 16.358 35.327 15.9657C35.3107 15.9169 35.2965 15.8686 35.2846 15.8204C35.2721 15.7733 35.2596 15.7272 35.2493 15.6811C35.2281 15.589 35.2118 15.4969 35.1939 15.4053C35.1738 15.3148 35.1515 15.2259 35.1244 15.1359C35.0972 15.0459 35.0657 14.9549 35.0212 14.8671C34.8175 14.4763 34.6588 14.0222 34.5345 13.6666C34.4568 13.5268 34.3807 13.3604 34.3052 13.1886C34.2303 13.0157 34.1483 12.8385 34.0689 12.67C33.994 12.5025 33.9147 12.3453 33.8549 12.2174C33.7984 12.09 33.7544 11.9914 33.7365 11.9443C33.7316 11.9578 33.7164 11.9258 33.711 11.8955C33.7045 11.8651 33.7083 11.8369 33.7045 11.8575C33.7056 11.8538 33.6947 11.8987 33.7066 11.8424C33.7045 11.8521 33.6958 11.8825 33.7001 11.864C33.7001 11.864 33.6969 11.8743 33.686 11.9085C33.6599 12.005 33.6214 12.1063 33.6051 12.2006C33.5736 12.3377 33.5442 12.4797 33.5198 12.6261C33.4964 12.7718 33.4758 12.9209 33.4546 13.0726C33.4215 13.3734 33.3878 13.6796 33.3547 13.9777C33.3275 14.0991 33.3047 14.2216 33.2846 14.3425C33.264 14.4628 33.2449 14.5831 33.2308 14.7029C33.2145 14.8216 33.1993 14.9397 33.1852 15.0584C33.1711 15.176 33.1542 15.2914 33.1374 15.4085C33.1086 15.499 33.0858 15.5857 33.0728 15.6741C33.0592 15.7624 33.0532 15.8508 33.044 15.9353C33.0353 16.0209 33.0336 16.1071 33.0239 16.1906C33.0119 16.2729 32.9967 16.3537 32.9712 16.4328C32.9554 16.4903 32.9348 16.5434 32.9174 16.5976C32.8995 16.6518 32.8826 16.7054 32.8669 16.7596C32.8305 16.8615 32.7936 16.9634 32.7572 17.0658L32.6925 17.2073L32.6605 17.2772C32.655 17.2886 32.6502 17.3005 32.6442 17.3119L32.6241 17.3439L32.5442 17.4691L32.5035 17.5298L32.4513 17.5894C32.4041 17.6409 32.359 17.6929 32.3161 17.7449C32.2699 17.7959 32.22 17.8457 32.1754 17.8967L32.1086 17.9731C32.0847 17.998 32.0586 18.0224 32.0342 18.0468L31.8892 18.1931C31.837 18.2403 31.7843 18.2874 31.7327 18.334C31.7061 18.3568 31.6833 18.3807 31.654 18.4023C31.6252 18.424 31.5969 18.4457 31.5681 18.4674C31.51 18.5102 31.4568 18.5519 31.3959 18.5909C31.334 18.63 31.2726 18.6668 31.2102 18.701C31.2102 18.792 31.1917 18.8625 31.0869 18.8641C31.0206 18.8896 30.9679 18.9248 30.9234 18.9676C30.875 19.0099 30.8337 19.0581 30.7919 19.108C30.2917 19.4294 29.7898 19.8629 29.1754 20.1778C29.1412 20.1654 29.1211 20.1735 29.132 20.2125C29.2026 20.4401 28.95 20.2434 28.9283 20.3789C28.9141 20.439 28.8837 20.4759 28.8441 20.5041C28.8039 20.5328 28.755 20.5502 28.7056 20.5675C28.6067 20.6027 28.5073 20.6325 28.4747 20.7545C28.4736 20.7995 28.4112 20.8266 28.3492 20.8222C28.2927 20.8661 28.2346 20.9111 28.1787 20.9572C28.1254 21.0022 28.0722 21.0477 28.0184 21.0932C27.9131 21.1843 27.8088 21.2769 27.7061 21.3696C27.5002 21.5533 27.3025 21.7387 27.1048 21.9099C26.7094 22.2508 26.3166 22.5457 25.9103 22.6741C25.9489 22.7706 25.8093 22.6584 25.8799 22.776C25.9065 22.8199 25.9011 22.8481 25.8734 22.8367C25.8066 22.8584 25.7284 22.8578 25.6643 22.8784C25.6002 22.8974 25.5513 22.9343 25.5404 23.0291C25.5442 23.0638 25.5127 23.0698 25.4753 23.0562C25.478 22.9863 25.5051 22.9099 25.403 22.8573C25.3704 22.8405 25.3845 22.8118 25.3818 22.7874C25.4736 22.2828 25.3541 21.8509 25.4258 21.349C25.4215 21.2347 25.3883 21.1057 25.5345 21.0238C25.5785 21.0027 25.5247 20.9984 25.4964 20.9935C25.3845 20.9994 25.5035 20.9176 25.428 20.884C25.4714 20.038 25.4497 19.1849 25.5703 18.3194C25.4497 18.0625 25.6491 17.7905 25.5779 17.5314C25.56 17.4669 25.5377 17.3878 25.6453 17.3406C25.7143 17.3103 25.5888 17.2545 25.7083 17.236C25.7343 17.2322 25.6643 17.2046 25.6529 17.1845C25.629 17.0534 25.6214 16.9011 25.6697 16.7743C25.7371 16.7266 25.5931 16.7244 25.6377 16.6843C25.7881 16.5038 25.6817 16.3201 25.6181 16.1358C25.6588 15.9928 25.7599 15.8524 25.6795 15.7131C25.6838 15.6546 25.6132 15.5798 25.6871 15.5342C25.7936 15.4687 25.667 15.4042 25.7219 15.3462C25.7626 15.2898 25.9065 15.2671 25.8517 15.1939C25.7762 15.085 25.8892 14.9646 25.8066 14.8514C25.9299 14.7386 25.8017 14.608 25.8267 14.4769C25.7914 14.2742 25.9701 14.0628 25.8386 13.8764C25.7702 13.8303 25.8191 13.8173 25.8718 13.8054C26.0619 13.7425 25.7615 13.6249 25.9147 13.5246C25.9782 13.4374 25.8533 13.3382 25.9185 13.2379C25.9098 13.1127 25.8859 12.98 25.843 12.8548C25.9652 12.7496 25.824 12.5908 25.8653 12.4597C25.806 11.9139 26.0847 11.3806 26.0842 10.8408C26.1026 10.3942 26.3275 9.90755 26.1124 9.47452C25.9196 9.41165 25.7284 9.9276 25.7066 10.1113C25.5046 10.3119 25.3253 10.5075 25.2998 10.7481C25.1244 10.9747 24.9359 11.2056 24.8435 11.4402C24.806 11.6028 24.6735 11.7513 24.7653 11.9177C24.6675 11.9811 24.7686 12.0434 24.7381 12.1079C24.6567 12.1535 24.6768 12.2044 24.6969 12.2602C24.7099 12.296 24.7305 12.3491 24.6681 12.3686C24.4953 12.529 24.5116 12.7529 24.3894 12.9344C24.46 13.0986 24.2346 13.2596 24.3041 13.4352C24.2955 13.6455 24.0771 13.8233 24.1043 14.033C24.1933 14.1463 24.0087 14.2297 24.0032 14.3419C23.9451 14.5029 24.0326 14.6909 23.856 14.834C24.0472 14.9408 23.7794 15.085 23.7349 15.2069C23.6887 15.3045 23.7881 15.4025 23.7143 15.4974C23.8452 15.5548 23.7262 15.5776 23.6681 15.6058C23.5692 15.6556 23.7365 15.9223 23.5611 16.0003C23.4774 16.0421 23.5709 16.1158 23.554 16.1738C23.5328 16.2204 23.4171 16.2518 23.4383 16.3082C23.5269 16.3895 23.3889 16.4854 23.4552 16.5569C23.5573 16.6166 23.4302 16.7011 23.4671 16.771C23.2721 16.8686 23.2449 17.0415 23.2911 17.1791C23.378 17.3542 23.1314 17.4945 23.239 17.6626C23.2248 17.785 23.1336 17.8864 23.1743 18.023C23.1961 18.0739 23.0331 18.1091 23.0499 18.1693C23.151 18.2869 23.0011 18.3931 22.9989 18.5069C22.9983 18.5481 23.0092 18.5774 23.0396 18.6088C23.0494 18.6191 23.1249 18.6159 23.0662 18.6386C22.982 18.6712 22.9907 18.7183 23.026 18.7519C23.013 18.9389 23.0717 19.2082 22.9467 19.3795C22.8913 19.4386 22.9972 19.4857 22.9266 19.5416C22.7849 19.7762 23.0548 20.0347 22.9016 20.2613C23.0108 20.3111 22.9147 20.3767 22.9402 20.4298C22.9782 20.5095 22.9065 20.4862 22.8435 20.4726C22.8077 20.4651 22.7588 20.4678 22.7887 20.4862C22.8598 20.529 22.7691 20.567 22.8017 20.6065C22.7642 20.7084 22.7713 20.7908 22.8767 20.8883C22.8777 21.032 22.7512 21.181 22.8196 21.3311C22.8392 21.4065 22.7919 21.3723 22.7398 21.3642C22.6192 21.3718 22.8625 21.4753 22.7626 21.5186C22.686 21.5756 22.8044 21.6162 22.7745 21.6693C22.6203 21.8319 22.9141 22.0297 22.7604 22.1723C22.6925 22.2086 22.6507 22.5126 22.6648 22.7467C22.6051 22.7327 22.5518 22.7066 22.5345 22.6297C22.5393 22.5446 22.4562 22.5587 22.3835 22.5636C22.3107 22.5679 22.2477 22.5592 22.3025 22.434C22.3411 22.3782 22.39 22.3229 22.29 22.3939C22.095 22.5235 22.1303 22.2454 21.9239 22.3652C21.8843 22.388 21.8734 22.3576 21.8517 22.3457C21.6914 22.1506 21.497 22.0113 21.2938 21.8671C21.0907 21.723 20.8843 21.5718 20.6887 21.3636C20.5833 21.2878 20.4394 21.226 20.4807 21.033C20.4964 20.9772 20.4492 21.0238 20.422 21.0466C20.3384 21.1544 20.3563 20.9854 20.265 21.0309L20.12 20.9089L20.0456 20.8488L19.9663 20.787L19.8066 20.6645L19.7267 20.6038L19.6485 20.5474C19.5448 20.4732 19.4378 20.3941 19.3362 20.3242C19.2346 20.2542 19.1325 20.1843 19.0304 20.1144C18.9321 20.0467 18.8332 19.9784 18.7343 19.9106C18.6398 19.8434 18.5448 19.7762 18.4503 19.709C18.359 19.6429 18.2688 19.5757 18.1798 19.5069C18.0923 19.4386 18.0097 19.3697 17.9261 19.2987C17.7745 19.2809 17.6822 19.1942 17.5888 19.1031C17.5008 19.012 17.4193 18.9183 17.2933 18.8771C17.233 18.857 17.158 18.831 17.1977 18.7281C17.2232 18.6625 17.0934 18.7243 17.1629 18.6289C17.1787 18.6083 17.1081 18.6446 17.0858 18.6419C17.032 18.6159 16.9772 18.5839 16.9288 18.546C16.8805 18.508 16.837 18.4647 16.8147 18.4153C16.8321 18.3476 16.7273 18.4376 16.7327 18.3882C16.7289 18.2929 16.6713 18.2414 16.6083 18.2007C16.5421 18.1612 16.4546 18.1346 16.3737 18.0999C16.3492 18.0484 16.3357 17.991 16.3107 17.9422C16.2857 17.8929 16.2466 17.8533 16.1841 17.83C16.158 17.7943 16.0662 17.7785 16.0977 17.7216C16.1206 17.6815 16.0988 17.6653 16.0728 17.6512C16.0489 17.6371 16.0217 17.6246 16.0288 17.597C16.0331 17.5477 16.1303 17.4859 16.0537 17.4615C16.0266 17.4517 16.0076 17.4376 15.9924 17.4208C15.9848 17.4127 15.9782 17.404 15.9723 17.3948L15.9598 17.3683C15.9435 17.3325 15.9255 17.2973 15.8701 17.274C15.9082 17.1835 15.7707 17.1211 15.7354 17.0274C15.7072 16.9959 15.6947 16.9558 15.6838 16.9157C15.6724 16.8762 15.6648 16.8355 15.6545 16.7959C15.6491 16.7759 15.6436 16.7564 15.6366 16.7369C15.6306 16.7168 15.6241 16.6957 15.6154 16.6756C15.598 16.6355 15.5736 16.597 15.5366 16.5602C15.4758 16.526 15.5046 16.512 15.5355 16.4984C15.6377 16.4377 15.4112 16.3445 15.4796 16.2486C15.4877 16.2079 15.4611 16.1683 15.4405 16.1217C15.4188 16.0762 15.3981 16.0291 15.4041 15.9808C15.3851 15.9207 15.3612 15.86 15.3395 15.7955C15.3177 15.731 15.2938 15.6659 15.2678 15.6025C15.2906 15.55 15.2694 15.4844 15.2482 15.4112C15.2259 15.3386 15.1982 15.2616 15.195 15.1934C15.1597 15.0497 15.1379 14.9012 15.1184 14.756C15.1021 14.608 15.0863 14.4601 15.07 14.3121C15.0559 14.1614 15.0358 14.0124 15.0135 13.8601C14.9907 13.7067 14.9598 13.555 14.9239 13.3989C14.894 13.2699 14.8718 13.1404 14.8386 13.0076C14.8055 12.8748 14.7724 12.7415 14.7338 12.6087C14.6947 12.4754 14.648 12.3442 14.6024 12.2152C14.5785 12.1507 14.5518 12.0873 14.5263 12.025C14.5019 11.9654 14.4774 11.9063 14.453 11.8472C14.4655 11.8792 14.5024 11.9768 14.5383 12.0933C14.5909 12.2553 14.6322 12.4532 14.6583 12.5572C14.6741 12.671 14.6784 12.7821 14.6865 12.8997C14.6904 12.9594 14.6947 13.0195 14.6985 13.0813C14.7018 13.1436 14.7061 13.2081 14.7126 13.2759C14.7039 13.5295 14.6632 13.7832 14.6398 14.0411C14.6349 14.2211 14.5839 14.3804 14.6263 14.5674C14.5855 14.634 14.6306 14.7061 14.6203 14.7755C14.5855 14.8226 14.5953 14.879 14.6067 14.9403C14.6138 14.9798 14.6257 15.0389 14.5958 15.0579C14.5573 15.1419 14.5404 15.2454 14.5252 15.3516C14.5089 15.4584 14.5019 15.5662 14.4698 15.6643C14.4921 15.7537 14.4736 15.8405 14.4573 15.9293C14.4405 16.0177 14.4198 16.1093 14.4481 16.2025C14.4573 16.3141 14.4318 16.4193 14.4063 16.526C14.3845 16.6317 14.3677 16.739 14.3916 16.8501C14.4291 16.9065 14.4253 16.9596 14.4101 17.016C14.3954 17.0718 14.3715 17.1303 14.3813 17.191C14.3737 17.2821 14.4084 17.3721 14.4258 17.4631C14.4351 17.5086 14.4416 17.5542 14.4399 17.6008C14.4378 17.6474 14.4345 17.6929 14.4139 17.7411C14.5046 17.7737 14.5133 17.8414 14.5008 17.9232C14.4975 17.9438 14.4932 17.965 14.4883 17.9861C14.4839 18.0072 14.4807 18.0284 14.4774 18.0495C14.4709 18.0912 14.4666 18.1324 14.472 18.1682C14.4769 18.2267 14.5089 18.2733 14.5388 18.3205C14.5535 18.3438 14.5676 18.3677 14.5774 18.3931C14.5882 18.4181 14.5958 18.4446 14.5948 18.476C14.724 18.4815 14.6469 18.5508 14.6187 18.6039C14.5953 18.65 14.6502 18.7243 14.7018 18.8045C14.7582 18.8814 14.8098 18.9649 14.7686 19.0473C14.7333 19.1302 14.8452 19.1589 14.8734 19.2207C14.8897 19.2754 14.8256 19.3692 14.8805 19.4115C14.9408 19.4261 14.9625 19.4749 14.981 19.5248C14.9989 19.5757 15.0168 19.625 15.0679 19.6375C15.1857 19.6293 15.1569 19.7838 15.2357 19.8245C15.2194 19.8776 15.2129 19.9301 15.2172 19.9778C15.2216 20.025 15.2352 20.0694 15.2547 20.1101C15.2944 20.1914 15.3596 20.258 15.4307 20.3025C15.5323 20.3469 15.5698 20.4396 15.6083 20.5339C15.6279 20.5805 15.6474 20.6271 15.6757 20.6661C15.7045 20.7035 15.742 20.7323 15.7963 20.7453C15.8908 20.8537 15.9158 21.0119 16.0619 21.084C16.1206 21.1051 16.0412 21.2666 16.1053 21.3008C16.1906 21.3062 16.2308 21.3588 16.2629 21.4216C16.2949 21.4845 16.3177 21.5588 16.3672 21.6032C16.403 21.6352 16.4361 21.6476 16.4839 21.6455C16.4997 21.6444 16.5475 21.5766 16.5279 21.6444C16.5002 21.7414 16.5469 21.769 16.6002 21.762C16.7555 21.9132 17.0298 22.0498 17.0918 22.2834C17.1043 22.3755 17.2167 22.3105 17.2156 22.4151C17.2678 22.5625 17.3883 22.6183 17.5122 22.6736C17.6366 22.7289 17.7517 22.7836 17.7865 22.9316C17.9076 22.8633 17.8859 22.9971 17.9446 23.0096C18.0331 23.028 17.9619 23.0784 17.9038 23.1277C17.8707 23.1559 17.8359 23.2036 17.8718 23.1874C17.9576 23.15 17.9169 23.2594 17.9706 23.2557C18.0173 23.3592 18.0858 23.4123 18.2455 23.3852C18.3579 23.4876 18.372 23.7142 18.5453 23.764C18.6203 23.8025 18.5551 23.8204 18.5062 23.8627C18.4133 23.9803 18.6947 23.8328 18.6474 23.9591C18.6295 24.074 18.761 23.9944 18.7789 24.0626C18.7821 24.3325 19.1895 24.2084 19.1836 24.4653C19.1624 24.5423 19.3128 24.7515 19.4975 24.9179C19.6817 25.0848 19.894 25.2073 19.9538 25.1124C19.9962 25.0864 20.0141 25.1108 19.9772 25.1574C19.7849 25.4132 20.1211 25.2685 20.1282 25.3915C20.1472 25.5292 20.3199 25.41 20.3693 25.4929C20.3731 25.4989 20.4019 25.4875 20.4122 25.4755C20.5138 25.3606 20.5757 25.3037 20.5122 25.5016C20.7338 25.5601 20.6469 25.6972 20.8039 25.7834C20.8794 25.7769 20.9858 25.7341 20.9853 25.8202C20.969 25.9807 21.0836 25.907 21.1227 25.9601C21.1124 26.0316 21.0668 26.1546 21.195 26.0218C21.3031 26.0961 21.4638 26.1059 21.6241 26.1199C21.7854 26.1346 21.944 26.1546 22.0662 26.2609C22.1798 26.1758 22.2308 26.2647 22.2813 26.3481C22.3302 26.4316 22.3818 26.5042 22.472 26.3752C22.5649 26.276 22.4915 26.2641 22.4557 26.2376C22.4057 26.3389 22.3047 26.3552 22.34 26.2224C22.3959 26.2647 22.4617 26.2164 22.51 26.1893C22.5589 26.1622 22.5909 26.1552 22.5904 26.2771C22.6377 26.3839 22.736 26.482 22.8495 26.515C22.8577 26.5416 22.8582 26.5692 22.831 26.599C22.7262 26.7058 22.7289 26.7069 22.7789 26.8418C22.7821 26.9183 22.5214 27.0239 22.73 27.0803C22.774 27.0906 22.8044 27.1318 22.7702 27.1562C22.6789 27.2207 22.7936 27.3269 22.6295 27.3768C22.7327 27.5757 22.5225 27.7746 22.5404 27.9746C22.4894 28.1133 22.6192 28.5371 22.4829 28.5973C22.3139 28.6417 22.5241 28.7425 22.4812 28.8032C22.164 28.9414 22.5757 29.1723 22.2243 29.285C22.1629 29.3056 22.1743 29.3316 22.1961 29.3582C22.315 29.4503 22.0831 29.5007 22.1206 29.582C22.1732 29.646 22.1352 29.7045 22.0928 29.7598C21.9429 29.8595 22.2047 29.9977 22.0624 30.0633C22.0081 30.189 21.9006 30.3977 21.9663 30.5489C21.9207 30.5971 21.9739 30.6589 21.9174 30.7099C21.8816 30.738 21.9902 30.7922 21.8729 30.8123C21.9169 30.8416 21.8919 30.8844 21.8978 30.9212C21.8376 30.912 21.7827 30.8855 21.7463 30.795C21.566 30.8622 21.3867 30.8248 21.208 30.7738C21.0304 30.7218 20.8555 30.6535 20.6768 30.6622C20.4323 30.5906 19.6806 30.7305 19.5904 30.544C19.5296 30.3186 19.3351 30.5858 19.2357 30.5218C19.1363 30.3056 18.9793 30.3245 18.8256 30.3375C18.6713 30.3532 18.5279 30.3516 18.4628 30.118C18.4394 30.0357 18.3949 30.0465 18.3481 30.0698C18.2623 30.1386 18.2085 30.0964 18.1597 30.0416C18.1119 29.9853 18.0695 29.9159 18.0005 29.9311C17.8881 29.9842 17.8022 29.9229 17.724 29.8579C17.6605 29.7544 17.5643 29.7733 17.472 29.7945C17.3802 29.8162 17.2927 29.8395 17.2618 29.7419C17.2172 29.7164 17.1656 29.6866 17.1097 29.6547C17.0559 29.6211 16.9978 29.5875 16.938 29.5582C16.8777 29.5289 16.8158 29.5045 16.7534 29.4894C16.6909 29.4742 16.6273 29.4698 16.5692 29.4736C16.5171 29.3999 16.4095 29.4411 16.3596 29.3549C16.3335 29.3018 16.214 29.4113 16.2319 29.265C16.183 29.3002 16.1434 29.2731 16.1021 29.2574C16.0608 29.2417 16.0173 29.2357 15.9619 29.3067C15.9299 29.3484 15.8783 29.3311 15.8598 29.3051C15.8234 29.2531 15.7691 29.2346 15.7164 29.213C15.6648 29.1902 15.6181 29.1598 15.5931 29.0948C15.579 29.0569 15.5399 29.0303 15.5046 29.0699C15.4063 29.1793 15.3807 29.1203 15.3357 29.0514C15.3204 29.0184 15.302 28.9929 15.2824 28.9712C15.2634 28.9485 15.2422 28.9306 15.2189 28.917C15.1722 28.8894 15.1173 28.8764 15.0581 28.8688C14.9994 28.8607 14.937 28.8574 14.8756 28.8482C14.8446 28.8444 14.8153 28.8368 14.7876 28.8254C14.7593 28.8146 14.7322 28.8016 14.7072 28.7853C14.6344 28.6645 14.4888 28.6455 14.3878 28.5751C14.3411 28.4396 14.2243 28.3745 14.0923 28.3182C14.0255 28.2927 13.9592 28.2585 13.8962 28.2233C13.8332 28.1875 13.7745 28.148 13.7289 28.0992C13.7066 28.0602 13.6795 28.0255 13.6485 27.9941C13.6176 27.9626 13.5844 27.9296 13.5475 27.9014C13.4742 27.8439 13.3889 27.7957 13.3009 27.7486C13.2113 27.7036 13.1233 27.6494 13.0407 27.5908C12.9581 27.5323 12.8826 27.4678 12.8218 27.3925C12.4519 26.9128 12.0288 26.4511 11.6018 25.9568C11.497 25.8305 11.39 25.708 11.2857 25.5791C11.1814 25.4495 11.0776 25.3195 10.975 25.1883C10.7729 24.9195 10.5801 24.6458 10.3997 24.358C10.3395 24.2908 10.2824 24.2171 10.2265 24.1412C10.1711 24.0632 10.1173 23.983 10.063 23.9033C9.95434 23.744 9.84407 23.589 9.71805 23.4605C9.6067 23.3662 9.51327 23.2562 9.42745 23.1402C9.34163 23.0221 9.26286 22.8969 9.18247 22.7733C9.02169 22.5278 8.84516 22.2807 8.5991 22.098C8.45624 21.8503 8.296 21.607 8.13413 21.375C8.05265 21.2585 7.969 21.142 7.88535 21.0271C7.80279 20.9122 7.71697 20.7995 7.63114 20.6862C7.46113 20.4613 7.29057 20.2364 7.12001 20.0104C6.95379 19.786 6.78269 19.5589 6.62625 19.3296C6.53283 19.2256 6.44809 19.1172 6.36987 19.0066C6.29383 18.8961 6.22213 18.7833 6.14825 18.6712C6.07384 18.5595 5.99942 18.4468 5.92392 18.3335C5.84679 18.2208 5.76477 18.1086 5.67242 17.9969C5.26612 17.5151 4.89187 16.8637 4.64255 16.3309C4.52088 16.1239 4.37802 15.8746 4.26178 15.6047C4.23082 15.537 4.19986 15.4692 4.16889 15.4009C4.13739 15.3321 4.1048 15.2633 4.07818 15.1939C4.02006 15.0535 3.96303 14.9142 3.90708 14.7798C3.89296 14.7457 3.87829 14.7121 3.86525 14.6785C3.8533 14.6449 3.8419 14.6113 3.83049 14.5782C3.80768 14.5121 3.78378 14.4476 3.76096 14.3847C3.71588 14.2595 3.67025 14.1419 3.63549 14.0357C3.57411 13.8233 3.52577 13.659 3.50621 13.5799C3.50187 13.6021 3.48503 13.549 3.47851 13.4986C3.4709 13.4482 3.47362 13.4005 3.4709 13.4352C3.47199 13.4287 3.46276 13.5051 3.47253 13.4103C3.47036 13.426 3.4633 13.4775 3.4671 13.446C3.46384 13.4645 3.46221 13.4764 3.45461 13.5208C3.43234 13.6823 3.39812 13.8525 3.38508 14.0108C3.37639 14.0682 3.37367 14.1262 3.37096 14.1848C3.36824 14.2433 3.36498 14.3024 3.36227 14.362C3.35629 14.4812 3.3514 14.6031 3.34814 14.7267C3.34814 14.8497 3.35521 14.9733 3.35901 15.099C3.36498 15.2242 3.36553 15.3527 3.37639 15.4795C3.42582 15.9857 3.491 16.5065 3.59638 17.0046C3.62734 17.2111 3.65504 17.4219 3.70284 17.6257C3.72566 17.7281 3.74847 17.8311 3.77128 17.9341L3.80768 18.0885L3.85059 18.2403C3.88046 18.3411 3.9098 18.4424 3.93967 18.5438C3.97009 18.6446 3.99888 18.7476 4.03418 18.8462C4.10317 19.0451 4.17052 19.2467 4.24114 19.4467C4.32316 19.7654 4.45081 20.0743 4.59529 20.3691C4.73598 20.6683 4.8973 20.9507 5.01463 21.2504C5.10263 21.4607 5.1966 21.6704 5.29328 21.8791C5.39051 22.0855 5.48992 22.2937 5.59149 22.4985C5.69198 22.7028 5.7941 22.9093 5.89024 23.1147C5.98638 23.3207 6.08253 23.5255 6.16944 23.7369C6.39486 24.2951 6.66428 24.862 6.93804 25.4246C7.07927 25.707 7.21995 25.9882 7.35847 26.2652C7.42908 26.4045 7.49372 26.5443 7.56487 26.6825C7.6344 26.8213 7.70176 26.9595 7.7664 27.0977C7.89622 27.186 8.00268 27.2689 8.03636 27.4445C8.09339 27.5757 8.1602 27.6933 8.23625 27.8028C8.31501 27.9117 8.39975 28.0136 8.48611 28.116C8.64527 28.3794 8.83321 28.6347 9.01626 28.8905C9.11077 29.0173 9.21289 29.1409 9.31175 29.2655L9.46113 29.452C9.5111 29.5143 9.56596 29.5739 9.61811 29.6351C9.72348 29.7571 9.82886 29.8785 9.9337 29.9993C10.0412 30.1191 10.1548 30.2362 10.2634 30.3549C10.3177 30.4145 10.3726 30.4736 10.4269 30.5332C10.4818 30.5923 10.5404 30.6492 10.5964 30.7072C10.7094 30.8231 10.8207 30.9402 10.9304 31.0583C10.9375 31.1071 10.9663 31.1364 11.013 31.1256C11.1434 31.0876 11.1879 31.1505 11.2265 31.2296C11.2645 31.3087 11.2976 31.4041 11.3987 31.4242C11.5806 31.4751 11.7083 31.6003 11.8343 31.732C11.8973 31.7976 11.9603 31.8637 12.0309 31.9179C12.0662 31.945 12.1032 31.9699 12.1434 31.99C12.1846 32.0084 12.2286 32.022 12.2764 32.0301C12.3384 32.0285 12.4258 32.1038 12.4709 32.1818C12.5774 32.249 12.6844 32.3173 12.7936 32.384C12.906 32.4458 13.0211 32.5054 13.1368 32.5661C13.2525 32.6257 13.3682 32.688 13.4867 32.7449C13.6062 32.7975 13.7262 32.8501 13.8468 32.9032C13.9071 32.9292 13.9674 32.9558 14.0282 32.9818C14.0885 33.0083 14.1493 33.0344 14.2107 33.056C14.3335 33.101 14.4568 33.146 14.5801 33.1915C14.8261 33.2869 15.0755 33.3547 15.3226 33.4338C16.3128 33.7346 17.2846 33.9302 18.1531 34.1703C18.2216 34.0793 18.3063 34.2625 18.3487 34.128C18.3644 34.0782 18.4117 34.063 18.4443 34.0917C18.7273 34.1638 19.0173 34.3259 19.3107 34.1958C19.3557 34.1617 19.4432 34.1904 19.5019 34.2375C19.5431 34.2706 19.5986 34.3085 19.6349 34.2809C19.8577 34.1508 20.0211 34.4489 20.2504 34.3264C20.3818 34.2316 20.4606 34.2955 20.5393 34.3849C20.6181 34.4744 20.6958 34.5893 20.8196 34.592C20.9902 34.6326 20.8365 34.3849 20.9782 34.4007C21.1385 34.4456 21.3204 34.4451 21.4975 34.4624C21.6029 34.4727 21.705 34.489 21.7984 34.5215C21.7827 34.9789 21.7936 35.4353 21.7088 35.884C21.7349 36.0862 21.6545 36.3198 21.7066 36.5116C21.8511 36.8162 21.5839 37.1528 21.8022 37.4568C21.6349 38.0714 21.6985 38.6876 21.6246 39.313C21.7028 39.6198 21.5078 39.913 21.6013 40.2306C21.7392 40.5769 21.7094 40.9986 21.6094 41.3302C21.7941 41.8641 21.334 42.7789 22.5459 42.9513C23.3036 42.9269 24.0059 43.0672 24.7316 43.0299C24.8658 43.0331 25.0054 42.9908 25.1352 43.0461C25.2368 43.0461 25.3411 43.0044 25.4508 43.0239C25.497 43.0239 25.5355 43.0147 25.5339 42.9838C25.5296 42.8971 25.6453 42.8066 25.5111 42.7226C25.3791 42.2353 25.3031 41.6782 25.3242 41.1498C25.4867 40.7194 25.4329 40.2848 25.4394 39.8447C25.5649 39.5076 25.3433 39.1537 25.3797 38.8182C25.4198 38.3375 25.3427 37.8432 25.4019 37.3538C25.4905 36.7062 25.4247 36.019 25.516 35.3984C25.4443 35.3236 25.397 35.2586 25.4568 35.1746C25.4926 35.0315 25.4617 34.9003 25.428 34.7659C25.4285 34.7334 25.4291 34.7009 25.4291 34.6678C25.5464 34.6538 25.6675 34.6456 25.787 34.6391C25.9082 34.4267 26.0983 34.8532 26.2618 34.5963C26.3101 34.5394 26.4014 34.5768 26.4736 34.6142C26.6561 34.7351 26.7582 34.4467 26.9538 34.4868C27.1206 34.47 27.2987 34.6126 27.4606 34.4511C27.5594 34.4207 27.6833 34.6597 27.7968 34.547C27.9174 34.476 28.0277 34.4603 28.1531 34.5226C28.2955 34.5199 28.4378 34.4738 28.5812 34.4397C28.724 34.4061 28.8707 34.3774 29.0201 34.4196C29.1352 34.482 29.2656 34.4082 29.3883 34.3486C29.5122 34.2863 29.6273 34.2397 29.7186 34.3622C29.7343 34.4283 29.7322 34.5031 29.7995 34.3768C29.868 34.256 29.9869 34.2473 30.1102 34.2337C30.2335 34.2186 30.3596 34.2018 30.4318 34.0771C30.4595 34.0294 30.5209 34.0365 30.5698 34.024C30.6355 34.0191 30.7001 34.0137 30.7642 34.0072C30.8289 33.9985 30.893 33.9882 30.9565 33.9779C31.0831 33.9568 31.208 33.9329 31.3308 33.9058C31.453 33.8809 31.5747 33.8457 31.6952 33.8099C31.8153 33.7736 31.9348 33.7373 32.0543 33.701C32.1732 33.6668 32.2922 33.6202 32.4122 33.578C32.5317 33.5351 32.6518 33.4929 32.7735 33.4517C33.0168 33.366 33.264 33.2674 33.5263 33.185C33.7544 33.0739 33.9918 32.9135 34.233 32.9948C34.2993 33.023 34.2786 32.959 34.2732 32.9222C34.2009 32.8062 34.4264 32.8463 34.4497 32.7281C34.6572 32.6165 34.8712 32.5124 35.0657 32.3807L35.3628 32.1905L35.5111 32.0946C35.56 32.0621 35.6056 32.0263 35.6534 31.9922L35.9348 31.7835L36.0749 31.6789L36.145 31.6263L36.2118 31.5705C36.3889 31.4215 36.5665 31.2724 36.7398 31.1201C37.4264 30.5045 38.0298 29.8319 38.6034 29.1566C38.6588 29.0308 38.7246 28.9149 38.8001 28.8048C38.8756 28.6954 38.9609 28.5919 39.0472 28.4889C39.2162 28.2824 39.3829 28.0754 39.491 27.8358C39.5404 27.715 39.6013 27.5686 39.7382 27.5486C39.8261 27.5356 39.7773 27.3692 39.8951 27.4039C39.9212 27.4115 39.8897 27.3258 39.9006 27.2846C40.0038 27.0462 40.1472 26.7833 40.2993 26.5909C40.397 26.5432 40.2819 26.4663 40.3536 26.4202C40.6387 26.185 40.7072 25.8164 40.8158 25.4734C40.9663 25.249 41.1575 25.0534 41.2091 24.7807C41.2591 24.6832 41.2672 24.526 41.3579 24.481C41.4877 24.4149 41.4459 24.2512 41.5307 24.1775C41.6034 24.1 41.7235 24.1212 41.7403 23.9743C41.7702 23.7591 41.9418 23.6031 41.9712 23.3781C42.1379 23.2372 42.1531 22.9624 42.2705 22.7489C42.3373 22.5706 42.4394 22.4031 42.5301 22.2357C42.6214 22.0687 42.7018 21.8975 42.7333 21.7116C42.7278 21.6075 42.7664 21.6016 42.8055 21.5972C42.9619 21.549 42.875 21.2428 43.0326 21.1116C43.1292 20.9734 43.1336 20.761 43.2357 20.5968C43.315 20.3659 43.3938 20.1198 43.4513 19.8776C43.5154 19.7957 43.554 19.6722 43.5899 19.5416C43.6252 19.4099 43.6545 19.2679 43.7023 19.1497C43.7767 18.8928 43.8506 18.6381 43.9239 18.3834L43.981 18.1942C44 18.1314 44.0152 18.0663 44.032 18.0024C44.0646 17.8745 44.0977 17.7466 44.1303 17.6192C44.1651 17.4929 44.1884 17.3618 44.2156 17.2328C44.2417 17.1032 44.2672 16.9743 44.2911 16.8447C44.3118 16.7141 44.3253 16.5813 44.34 16.4496L44.3601 16.2518L44.3693 16.1532C44.3715 16.1201 44.372 16.0865 44.3737 16.0529C44.3786 15.9434 44.384 15.8323 44.3889 15.7201C44.3916 15.6649 44.3943 15.609 44.397 15.5532C44.4003 15.4974 44.4014 15.4416 44.3992 15.3847C44.3959 15.2719 44.3932 15.1587 44.39 15.0449L44.3829 15.0492Z" fill="#777E5C"/>
<path d="M44.144 13.4244C44.1445 13.4277 44.1456 13.431 44.1462 13.4343C44.1418 13.4128 44.1407 13.4079 44.144 13.4244Z" fill="#777E5C"/>
<path d="M25.7838 34.6461C25.7838 34.6461 25.7827 34.6428 25.7822 34.6411C25.7822 34.6411 25.7817 34.6411 25.7811 34.6411C25.78 34.6428 25.7789 34.6444 25.7778 34.6466C25.78 34.6466 25.7817 34.6466 25.7838 34.6466V34.6461Z" fill="#777E5C"/>
<path d="M14.4476 11.8498C14.4476 11.8498 14.4492 11.8536 14.4498 11.8559C14.4449 11.8432 14.4438 11.8404 14.4476 11.8498Z" fill="#777E5C"/>
<path d="M33.7051 11.8472L33.7057 11.8442C33.7057 11.8454 33.7057 11.846 33.7051 11.8472Z" fill="#777E5C"/>
<path d="M25.4971 27.0245C25.4971 27.0245 25.4938 27.0245 25.4922 27.0239C25.4922 27.025 25.4922 27.0256 25.4922 27.0267C25.4933 27.0267 25.4944 27.0267 25.4955 27.0267C25.4955 27.0261 25.496 27.0256 25.4966 27.025L25.4971 27.0245Z" fill="#777E5C"/>
<path d="M25.5215 26.9771C25.5134 26.9935 25.5052 27.0104 25.4971 27.0268C25.5661 27.0361 25.6073 27.005 25.5215 26.9771Z" fill="#777E5C"/>
<path d="M12.1704 7.81129C12.1873 7.86603 12.2155 7.91806 12.24 7.97117C12.2639 8.02429 12.2981 8.07144 12.3252 8.1175C12.3546 8.16303 12.3888 8.20151 12.417 8.23674C12.4447 8.27305 12.4768 8.29744 12.5001 8.31911C12.5246 8.33971 12.5441 8.3538 12.5577 8.35922C12.5849 8.3706 12.5871 8.3473 12.5577 8.27847C12.5349 8.23132 12.549 8.21939 12.5735 8.21668C12.5957 8.24216 12.6191 8.26763 12.6435 8.29202C12.8695 8.51747 13.1509 8.65351 13.4442 8.7012C13.4594 8.70445 13.4741 8.70771 13.4893 8.71096C13.8853 8.78737 14.3225 8.70066 14.6664 8.44377C14.7076 8.41017 14.7506 8.37765 14.7908 8.34188C14.8282 8.3034 14.869 8.26709 14.9048 8.2259C14.939 8.18362 14.9743 8.14135 15.0086 8.09799C15.0363 8.0503 15.0678 8.00423 15.0928 7.95491C15.2009 7.76035 15.2682 7.53706 15.2829 7.30293C15.3089 7.09427 15.2715 6.85418 15.2063 6.67804C15.2074 6.64119 15.1933 6.60216 15.177 6.56097C15.1688 6.54038 15.159 6.51924 15.1487 6.49756C15.1378 6.47643 15.1237 6.45583 15.1112 6.43524C15.0607 6.34961 14.9955 6.26994 14.9542 6.18864C14.9358 6.15775 14.8983 6.11656 14.8608 6.07971C14.8462 6.06941 14.8315 6.05911 14.8174 6.05098C14.6191 5.86021 14.372 5.70033 14.09 5.62608C13.9504 5.58435 13.8027 5.5708 13.656 5.5708L13.5458 5.57676C13.5088 5.5773 13.473 5.58706 13.4366 5.59194C13.3622 5.59898 13.2943 5.62933 13.2248 5.65426C13.1623 5.67919 13.096 5.69329 13.0325 5.7193C12.9711 5.74965 12.9054 5.77458 12.8462 5.8136C12.7277 5.89056 12.6126 5.98107 12.5175 6.0938C12.3399 6.30733 12.1911 6.54797 12.1161 6.81895C12.0433 7.08831 12.0341 7.38205 12.1205 7.65466C12.1319 7.70507 12.152 7.7571 12.1715 7.81129H12.1704Z" fill="#777E5C"/>
<path d="M34.4485 8.44931C34.5061 8.5512 34.5892 8.6455 34.6815 8.72463C34.7744 8.80321 34.8765 8.86554 34.971 8.91161C34.9879 8.96743 35.0254 9.00103 35.0715 9.02488C35.1172 9.04927 35.172 9.06173 35.2285 9.06878C35.342 9.08721 35.4566 9.08775 35.5528 9.16742C35.6049 9.19939 35.7049 9.20373 35.7755 9.1517C36.0895 9.16525 36.4365 9.12948 36.7576 8.98315C36.9194 8.91378 37.0699 8.81405 37.2041 8.69374C37.3371 8.57234 37.4496 8.42601 37.5311 8.26287C37.5615 8.18537 37.6 8.11112 37.6392 8.03525C37.6755 7.95775 37.719 7.88079 37.7489 7.79624C37.8173 7.63094 37.8488 7.44125 37.801 7.2559C37.763 7.08139 37.7434 6.91175 37.7098 6.73778C37.6804 6.56381 37.6386 6.38658 37.5767 6.21044C37.5131 6.03539 37.4241 5.86359 37.3018 5.71346C37.1785 5.56605 37.0254 5.43652 36.8418 5.36335C36.7223 5.28748 36.5756 5.20997 36.423 5.15795C36.3475 5.1303 36.2687 5.11513 36.1948 5.10266C36.121 5.09128 36.0493 5.09291 35.9862 5.09887C35.8597 5.11459 35.7668 5.17041 35.7326 5.26038C35.6967 5.35197 35.7233 5.48258 35.7896 5.66902C35.832 5.77091 35.8238 5.89285 35.8065 6.02184C35.8043 6.03918 35.801 6.05761 35.7983 6.07495C35.7711 6.07333 35.7434 6.0717 35.7157 6.0717C35.4626 6.0717 35.2285 6.15083 35.0362 6.28578C35.0167 6.28795 34.9966 6.29011 34.9765 6.29282C34.7961 6.3313 34.6174 6.42452 34.4691 6.56489C34.3198 6.70472 34.203 6.89278 34.1394 7.10632C34.0753 7.31877 34.0628 7.55723 34.115 7.79245C34.166 8.02766 34.2801 8.25691 34.448 8.44823L34.4485 8.44931Z" fill="#777E5C"/>
<path d="M22.942 5.56046C22.9659 5.58648 22.9854 5.61358 23.0115 5.63959C23.0359 5.66506 23.0609 5.69108 23.0865 5.71763C23.1337 5.7702 23.1902 5.81736 23.2396 5.86342C23.263 5.88727 23.2896 5.90841 23.3151 5.92846C23.3396 5.94905 23.364 5.96856 23.3874 5.98807C23.4336 6.02601 23.4803 6.0569 23.5177 6.08671C23.6785 6.19511 23.7481 6.24226 23.6829 6.10948C23.659 6.06341 23.6758 6.04932 23.7024 6.04498C23.7247 6.07045 23.7475 6.09593 23.772 6.12031C23.9963 6.34415 24.2755 6.48018 24.5661 6.52842C24.5829 6.53275 24.6003 6.53763 24.6177 6.54142C24.8154 6.58586 25.024 6.60754 25.244 6.59291C25.4629 6.57936 25.6937 6.52245 25.9077 6.40702C26.1207 6.29212 26.3151 6.12194 26.4689 5.90515C26.6226 5.68945 26.7296 5.42606 26.7676 5.14098C26.8062 5.0147 26.8214 4.87325 26.8187 4.73451C26.8187 4.66513 26.8078 4.59739 26.8002 4.53127C26.7915 4.46515 26.7736 4.40391 26.76 4.34483C26.7877 4.28738 26.785 4.22993 26.7703 4.17249C26.7627 4.14376 26.7519 4.11504 26.7388 4.08631C26.7252 4.05813 26.7079 4.03103 26.6905 4.00285C26.6231 3.88958 26.5368 3.78877 26.5243 3.64407C26.5167 3.6083 26.4944 3.56873 26.4623 3.53405C26.4466 3.51671 26.4281 3.50045 26.408 3.48744C26.3874 3.47497 26.3646 3.46468 26.3418 3.45817C26.1087 3.16876 25.81 2.87068 25.4145 2.66528C25.219 2.55905 24.9995 2.48588 24.7692 2.44903C24.6541 2.43386 24.5368 2.42464 24.4194 2.43386C24.3016 2.43765 24.1853 2.46312 24.0712 2.49401C24.0207 2.51244 23.9697 2.53249 23.9175 2.54875C23.8659 2.5661 23.8116 2.5791 23.7589 2.59807C23.6535 2.63438 23.5422 2.6669 23.4384 2.71893C23.2255 2.81323 23.0311 2.97257 22.9257 3.20291C22.8192 3.41211 22.7106 3.60288 22.6302 3.80774C22.5449 4.00827 22.4917 4.22126 22.4803 4.43426C22.471 4.64833 22.5129 4.86241 22.5949 5.05589C22.6802 5.24937 22.8029 5.42064 22.9425 5.55992L22.942 5.56046Z" fill="#777E5C"/>
<path d="M3.88315 11.0913C3.97983 10.9325 4.04121 10.745 4.05588 10.5482C4.0901 10.4507 4.10096 10.3407 4.09499 10.2344C4.08847 10.1282 4.06511 10.0263 4.03578 9.93961C4.06892 9.89083 4.07055 9.84477 4.0586 9.80087C4.04665 9.75643 4.01894 9.71524 3.9869 9.67676C3.92497 9.596 3.85164 9.52772 3.85382 9.4074C3.84621 9.34995 3.78429 9.28546 3.70064 9.28058C3.51541 9.07138 3.28347 8.8676 2.98853 8.74674C2.84295 8.68442 2.68326 8.64702 2.5203 8.63564C2.35735 8.62588 2.19059 8.64648 2.0347 8.70068C1.89781 8.76409 1.74572 8.79064 1.59417 8.85351C1.44263 8.9115 1.29651 9.01068 1.21449 9.16948C1.1303 9.31093 1.03524 9.43179 0.942355 9.56186C0.847298 9.68977 0.75387 9.82634 0.674022 9.97809C0.593631 10.1298 0.539313 10.2984 0.506179 10.4756C0.500204 10.4978 0.500747 10.5201 0.50129 10.5423L0.503463 10.6089L0.507808 10.6761L0.508895 10.6929V10.6973C0.506722 10.6973 0.517586 10.6973 0.521388 10.6967L0.553979 10.6946L0.619161 10.6908L0.649579 10.6892L0.650666 10.6902L0.652838 10.6919L0.657184 10.6951L0.690318 10.7233C0.712588 10.7417 0.734859 10.7612 0.758759 10.7786C0.782659 10.7948 0.806559 10.8106 0.831002 10.8257C0.878259 10.8561 0.93638 10.881 0.993414 10.9032C1.14062 10.9731 1.32856 11.017 1.48174 11.0355C1.64035 11.0528 1.74844 11.0593 1.80982 11.0783C1.87228 11.0951 1.8989 11.12 1.90976 11.1314C1.90542 11.1271 1.89836 11.1195 1.88586 11.1081C1.86251 11.0864 1.86577 11.0859 1.87446 11.0918C1.88695 11.1059 1.89944 11.1206 1.91302 11.1341C1.91302 11.1341 1.91139 11.1325 1.91031 11.1314C1.91465 11.1363 1.9152 11.1368 1.91357 11.1346C1.91357 11.1346 1.91465 11.1357 1.9152 11.1363C2.04936 11.2701 2.21558 11.352 2.38885 11.3823C2.4008 11.3932 2.41275 11.404 2.42524 11.4165C2.48717 11.4864 2.5643 11.5238 2.64795 11.5617C2.73214 11.5942 2.82503 11.6181 2.92171 11.623C3.11509 11.6354 3.32367 11.585 3.50835 11.4718C3.65555 11.3807 3.787 11.2506 3.88315 11.0918V11.0913Z" fill="#777E5C"/>
<path d="M1.90918 11.1333L1.90984 11.134V11.1333H1.90918Z" fill="#777E5C"/>
<path d="M46.4856 10.3441C46.4655 10.246 46.4237 10.1522 46.3721 10.0671C46.264 9.89586 46.1114 9.76904 45.9702 9.65523C45.8534 9.5425 45.7105 9.43302 45.5861 9.35173C45.5704 9.32138 45.5443 9.2997 45.515 9.27693C45.4998 9.26609 45.484 9.2558 45.4672 9.24496C45.4503 9.2352 45.4319 9.22653 45.4139 9.21732C45.3406 9.1783 45.2608 9.14849 45.1896 9.07532C45.1516 9.0428 45.0777 9.00649 45.0207 9.01896C44.9886 9.00649 44.956 8.99403 44.9234 8.98156C44.8903 8.96964 44.8561 8.95988 44.8208 8.95013C44.7496 8.92791 44.6763 8.91544 44.5986 8.90352C44.5595 8.89647 44.5215 8.89647 44.4813 8.89376C44.4416 8.89159 44.4004 8.88997 44.3602 8.89214C44.2798 8.89756 44.1961 8.90569 44.1157 8.92682C44.0332 8.94525 43.956 8.97506 43.8767 9.01029L43.8469 9.02329L43.8431 9.02492C43.8431 9.02492 43.8447 9.02709 43.8409 9.02275L43.83 9.01083C43.8251 9.00541 43.824 9.00378 43.8246 9.00541L43.823 9.00649L43.8159 9.01029L43.8018 9.01842L43.7442 9.05039C43.7067 9.07315 43.666 9.09104 43.6307 9.11868L43.5231 9.19889C43.5046 9.2119 43.4884 9.22707 43.4726 9.24333L43.4248 9.29102C43.358 9.35173 43.3075 9.42868 43.2564 9.50293C43.2358 9.53816 43.22 9.57773 43.1978 9.61349C43.1869 9.63138 43.176 9.64926 43.1641 9.66715C43.1516 9.68449 43.1396 9.70238 43.1304 9.72189C43.0918 9.79885 43.0337 9.87147 43.0114 9.95873C42.9816 10.0433 42.9539 10.1322 42.937 10.2238C42.9332 10.2465 42.9278 10.2698 42.9272 10.2931C42.9289 10.317 42.9316 10.3403 42.9354 10.3641C42.9425 10.4118 42.9533 10.4595 42.9691 10.5061C42.9696 10.5061 42.9674 10.5061 42.9707 10.5061C42.9658 10.5061 42.9935 10.5061 42.9626 10.5061V10.5072L42.9642 10.5094L42.9658 10.5137L42.9696 10.5218L42.9767 10.5381L42.9903 10.5706C42.9989 10.5923 43.0071 10.6134 43.0152 10.6351C43.0294 10.6774 43.044 10.7196 43.0582 10.7614C43.0723 10.8026 43.0842 10.8438 43.0956 10.8855C43.1 10.9072 43.1087 10.9261 43.1168 10.9462L43.1396 11.0058L43.1608 11.0665C43.1641 11.0768 43.1684 11.0866 43.1706 11.0974L43.1722 11.131C43.1739 11.176 43.1749 11.2215 43.1755 11.2676V11.3023C43.1798 11.312 43.1853 11.3218 43.1901 11.3315L43.2195 11.3901L43.2488 11.4497L43.2635 11.4795V11.4806C43.2635 11.4806 43.2667 11.4795 43.2754 11.4752L43.2961 11.4643L43.3134 11.4556L43.314 11.4567L43.3167 11.46L43.3221 11.4659L43.333 11.4784C43.4422 11.6166 43.5948 11.7169 43.7686 11.7684C43.9446 11.8171 44.1337 11.8188 44.3053 11.7868C44.427 11.77 44.5492 11.7505 44.6567 11.7228C44.7637 11.6979 44.8528 11.6768 44.9213 11.6638C44.9897 11.6507 45.0381 11.641 45.0576 11.6318C45.0772 11.6215 45.0663 11.6068 45.0169 11.5857C44.981 11.5727 44.9832 11.5554 44.9951 11.5375C45.019 11.5391 45.0429 11.5413 45.0668 11.5413C45.2879 11.5413 45.4922 11.4719 45.6605 11.3548C45.6768 11.35 45.692 11.3451 45.7083 11.3402C45.8512 11.2914 46.0212 11.2324 46.1722 11.1175C46.2097 11.0887 46.2439 11.0562 46.2792 11.0226C46.3102 10.9868 46.3395 10.9484 46.3694 10.9088C46.3933 10.8676 46.4199 10.8248 46.4416 10.7803C46.4569 10.7348 46.4737 10.6877 46.4856 10.6394C46.4938 10.5912 46.5014 10.5419 46.5014 10.4926C46.4998 10.4432 46.497 10.3934 46.4867 10.3446L46.4856 10.3441Z" fill="#777E5C"/>
</svg>
