<svg width="41" height="41" viewBox="0 0 41 41" fill="none" xmlns="http://www.w3.org/2000/svg">
<circle cx="20.5" cy="20.0469" r="19.5" stroke="#F8DEC8"/>
<g clip-path="url(#clip0_3394_2868)">
<path d="M20.5064 15.4639C17.9162 15.4639 15.8269 17.5029 15.8269 20.0309C15.8269 22.5588 17.9162 24.5979 20.5064 24.5979C23.0966 24.5979 25.1859 22.5588 25.1859 20.0309C25.1859 17.5029 23.0966 15.4639 20.5064 15.4639ZM20.5064 23C18.8325 23 17.4641 21.6685 17.4641 20.0309C17.4641 18.3933 18.8285 17.0617 20.5064 17.0617C22.1843 17.0617 23.5487 18.3933 23.5487 20.0309C23.5487 21.6685 22.1803 23 20.5064 23ZM26.4688 15.277C26.4688 15.8693 25.9801 16.3423 25.3773 16.3423C24.7705 16.3423 24.2859 15.8653 24.2859 15.277C24.2859 14.6888 24.7746 14.2118 25.3773 14.2118C25.9801 14.2118 26.4688 14.6888 26.4688 15.277ZM29.5681 16.3582C29.4989 14.9312 29.1649 13.6673 28.0938 12.6259C27.0268 11.5845 25.7317 11.2585 24.2696 11.187C22.7627 11.1035 18.2461 11.1035 16.7392 11.187C15.2811 11.2546 13.986 11.5805 12.9149 12.6219C11.8438 13.6633 11.5139 14.9273 11.4406 16.3542C11.3551 17.8249 11.3551 22.2329 11.4406 23.7036C11.5098 25.1305 11.8438 26.3945 12.9149 27.4359C13.986 28.4773 15.2771 28.8032 16.7392 28.8748C18.2461 28.9582 22.7627 28.9582 24.2696 28.8748C25.7317 28.8072 27.0268 28.4813 28.0938 27.4359C29.1609 26.3945 29.4948 25.1305 29.5681 23.7036C29.6536 22.2329 29.6536 17.8289 29.5681 16.3582ZM27.6214 25.2816C27.3037 26.0606 26.6887 26.6608 25.8864 26.9748C24.685 27.4399 21.8341 27.3326 20.5064 27.3326C19.1787 27.3326 16.3238 27.4359 15.1264 26.9748C14.3281 26.6648 13.7132 26.0646 13.3914 25.2816C12.9149 24.109 13.0249 21.3267 13.0249 20.0309C13.0249 18.7351 12.919 15.9488 13.3914 14.7802C13.7091 14.0011 14.3241 13.4009 15.1264 13.0869C16.3278 12.6219 19.1787 12.7292 20.5064 12.7292C21.8341 12.7292 24.689 12.6259 25.8864 13.0869C26.6847 13.397 27.2996 13.9972 27.6214 14.7802C28.0979 15.9528 27.9879 18.7351 27.9879 20.0309C27.9879 21.3267 28.0979 24.113 27.6214 25.2816Z" fill="#F8DEC8"/>
</g>
<defs>
<clipPath id="clip0_3394_2868">
<rect width="18.2456" height="20.3509" fill="white" transform="translate(11.3804 9.86658)"/>
</clipPath>
</defs>
</svg>
