<svg width="41" height="41" viewBox="0 0 41 41" fill="none" xmlns="http://www.w3.org/2000/svg">
<circle cx="20.5" cy="20.0469" r="19.5" stroke="#F8DEC8"/>
<g clip-path="url(#clip0_3394_2872)">
<path d="M15.8503 27.1587H12.3578V16.09H15.8503V27.1587ZM14.1021 14.5801C12.9856 14.5801 12.0796 13.6698 12.0796 12.5707C12.0796 12.0426 12.2927 11.5362 12.672 11.1628C13.0513 10.7895 13.5657 10.5797 14.1021 10.5797C14.6386 10.5797 15.153 10.7895 15.5323 11.1628C15.9116 11.5362 16.1247 12.0426 16.1247 12.5707C16.1247 13.6698 15.2187 14.5801 14.1021 14.5801ZM28.9179 27.1587H25.433V21.7705C25.433 20.4864 25.4067 18.8396 23.6172 18.8396C21.8014 18.8396 21.5232 20.2347 21.5232 21.678V27.1587H18.0345V16.09H21.3841V17.5999H21.433C21.8991 16.7302 23.0382 15.8124 24.7375 15.8124C28.2713 15.8124 28.9217 18.1031 28.9217 21.0785V27.1587H28.9179Z" fill="#F8DEC8"/>
</g>
<defs>
<clipPath id="clip0_3394_2872">
<rect width="16.8421" height="18.9474" fill="white" transform="translate(12.0796 10.5797)"/>
</clipPath>
</defs>
</svg>
