<svg width="149" height="39" viewBox="0 0 149 39" fill="none" xmlns="http://www.w3.org/2000/svg">
<path d="M148.592 38.0988H143.343L137.22 21.2848H127.666L123.252 38.0988H120.795L130.174 1.70084L134.79 0L148.592 38.0988ZM136.491 19.2438L131.616 7.2016L128.131 19.2438H136.491Z" fill="#EBECD0"/>
<path d="M116.184 38.1016H111.13V3.84183L100.099 13.9497L89.1649 4.03621C89.2135 6.56317 89.4079 14.2412 89.6023 19.3924C89.8453 26.5359 90.477 38.1016 90.477 38.1016H86.4922C86.4922 38.1016 86.8324 26.4387 86.9781 19.198C87.0753 12.103 87.2697 0.585938 87.2697 0.585938H92.6152L102.431 9.23592L111.956 0.634532L116.184 0.585938V38.1016Z" fill="#EBECD0"/>
<path d="M81.6863 38.1016H65.1152V0.585938H81.0545V4.86233C76.0978 3.35588 74.3484 2.96711 69.9748 2.23818V17.3028L77.993 16.5252V20.1699L69.9748 19.2466V36.4008C74.5427 35.7204 76.5352 35.2831 81.6863 33.728V38.1016Z" fill="#EBECD0"/>
<path d="M57.2338 38.1016H46.5428C36.6293 38.1016 31.8184 34.3598 31.8184 25.6126V0.585938H36.6779V24.3977C36.6779 32.4645 41.2945 36.1578 49.1183 36.1578H52.3742V0.585938H57.2338V38.1016Z" fill="#EBECD0"/>
<path d="M0.59046 0.585903H11.2815C21.1949 0.585903 26.0059 4.32775 26.0059 13.0749L26.0059 38.1016H21.1463L21.1463 14.2898C21.1463 6.22297 16.5298 2.52972 8.70589 2.52972H5.45L5.45 38.1016H0.59046L0.59046 0.585903Z" fill="#EBECD0"/>
</svg>
